<?xml version="1.0" encoding="utf-8"?>
<!-- Generator: Adobe Illustrator 23.0.0, SVG Export Plug-In . SVG Version: 6.00 Build 0)  -->
<svg version="1.1" id="Layer_1" xmlns="http://www.w3.org/2000/svg" xmlns:xlink="http://www.w3.org/1999/xlink" x="0px" y="0px"
	 viewBox="0 0 512 512" enable-background="new 0 0 512 512" xml:space="preserve">
<g>
	<path fill="none" stroke="#000000" stroke-width="15" stroke-linecap="round" stroke-linejoin="round" stroke-miterlimit="10" d="
		M398.2,113.43V256c0,0,0,14.18-4.73,36.03c-9.84-5.34-20.6-9.2-31.98-11.27C355.17,279.6,348.65,279,342,279
		c-59.65,0-108,48.35-108,108c0,17.1,3.98,33.27,11.06,47.64c5.62,11.44,13.21,21.73,22.32,30.45
		c-17.36,10.53-37.02,20.18-59.28,28.53C18,422.34,18,256,18,256V113.43c95.05,0,190.1-95.05,190.1-95.05
		S303.15,113.43,398.2,113.43z"/>
	<path fill="none" stroke="#000000" stroke-width="15" stroke-linecap="round" stroke-linejoin="round" stroke-miterlimit="10" d="
		M450,387c0,59.65-48.35,108-108,108c-28.94,0-55.22-11.39-74.62-29.91c-9.11-8.72-16.7-19.01-22.32-30.45
		C237.98,420.27,234,404.1,234,387c0-59.65,48.35-108,108-108c6.65,0,13.17,0.6,19.49,1.76c11.38,2.07,22.14,5.93,31.98,11.27
		c12.08,6.56,22.78,15.36,31.51,25.85l-77.44,77.43l-0.99-0.99l-24.61-24.61l-22.86-22.86L270,375.93l77.54,77.54l29.08-29.08
		l68.75-68.74C448.38,365.57,450,376.1,450,387z"/>
	<g>
		
			<polygon fill="none" stroke="#000000" stroke-width="15" stroke-linecap="round" stroke-linejoin="round" stroke-miterlimit="10" points="
			492.94,308.08 445.37,355.65 376.62,424.39 347.54,453.47 270,375.93 299.08,346.85 321.94,369.71 346.55,394.32 347.54,395.31 
			424.98,317.88 463.86,279 		"/>
	</g>
	<path fill="none" stroke="#000000" stroke-width="15" stroke-linecap="round" stroke-linejoin="round" stroke-miterlimit="10" d="
		M364.39,138.78V256c0,0,0,9.58-2.9,24.76C355.17,279.6,348.65,279,342,279c-59.65,0-108,48.35-108,108
		c0,17.1,3.98,33.27,11.06,47.64c-11.23,6.07-23.52,11.69-36.96,16.73C51.8,392.76,51.8,256,51.8,256V138.78
		c78.15,0,156.3-78.15,156.3-78.15S286.24,138.78,364.39,138.78z"/>
</g>
</svg>
