<?xml version="1.0" encoding="utf-8"?>
<!-- Generator: Adobe Illustrator 22.0.1, SVG Export Plug-In . SVG Version: 6.00 Build 0)  -->
<svg version="1.1" id="Layer_1" xmlns="http://www.w3.org/2000/svg" xmlns:xlink="http://www.w3.org/1999/xlink" x="0px" y="0px"
	 viewBox="0 0 68 68" style="enable-background:new 0 0 68 68;" xml:space="preserve">
<g>
	<g>
		<g>
			<path d="M22.727129,57.4682617c-0.0063477,0-0.0126953,0-0.019043,0c-0.1323242-0.0048828-0.2573242-0.0625-0.3476563-0.1601563
				L11.015214,45.0708008c-0.090332-0.0966797-0.1381836-0.2265625-0.1328125-0.3583984
				c0.0048828-0.1328125,0.0625-0.2578125,0.159668-0.3476563l7.3349619-6.7998047
				c2.4082031-2.234375,5.5483398-3.4189453,8.8291016-3.3486328l14.9838848,0.3427734
				c2.4360352,0.0751953,4.4291992,2.0380859,4.5410156,4.4677734c0.0019531,0.0488281,0.0039063,0.0966797,0.0043945,0.1455078
				l12.4853516-11.5761719c0.8535156-0.7910156,1.9726563-1.2021484,3.125-1.1582031
				c1.1616211,0.0439453,2.2373047,0.5380859,3.027832,1.390625c0.7905273,0.8535156,1.2021484,1.9628906,1.1582031,3.125
				s-0.5375977,2.2373047-1.390625,3.0283203L47.4541779,50.3793945c-1.5732422,1.4589844-3.5307617,2.3671875-5.6616211,2.6240234
				l-16.1582012,1.9501953l-2.5673828,2.3808594C22.9746876,57.4204102,22.8531055,57.4682617,22.727129,57.4682617z
				 M12.0884562,44.7573242l10.6655283,11.5039063l2.3193359-2.1503906c0.0771484-0.0722656,0.175293-0.1171875,0.2797852-0.1298828
				l16.319334-1.9697266c1.9199219-0.2324219,3.684082-1.0498047,5.1020508-2.3642578l17.6870117-16.3984375
				c0.6567383-0.609375,1.0371094-1.4375,1.0708008-2.3330078c0.0336914-0.8945313-0.2827148-1.75-0.8920898-2.4072266
				c-0.6088867-0.6572266-1.4375-1.0371094-2.3325195-1.0712891c-0.8916016-0.0429688-1.75,0.2822266-2.4072266,0.8916016
				L46.4834747,40.769043c-0.2084961,0.6064453-0.543457,1.1689453-0.9926758,1.6552734
				c-0.8583984,0.9277344-2.0268555,1.4619141-3.2910156,1.5029297L31.1319141,44.293457
				c-0.2739258-0.0029297-0.5073242-0.2070313-0.5161133-0.4833984c-0.0092773-0.2763672,0.2070313-0.5068359,0.4829102-0.5166016
				l11.0683575-0.3662109c0.9946289-0.0322266,1.9145508-0.4521484,2.5898438-1.1826172
				c0.3686523-0.3984375,0.6391602-0.8623047,0.8012695-1.3632813c0.0058594-0.0244141,0.0131836-0.0498047,0.0229492-0.0732422
				c0.1186523-0.3945313,0.1704102-0.8105469,0.1508789-1.234375c-0.0878906-1.9121094-1.6557617-3.4560547-3.5688477-3.5146484
				L27.183672,35.2163086c-3.0297852-0.0859375-5.9101563,1.0253906-8.1269531,3.0810547L12.0884562,44.7573242z"/>
		</g>
	</g>
	<g>
		<g>
			<path d="M16.7754688,66.5014648c-0.0283203,0-0.0566406,0-0.0849609-0.0009766
				c-0.5864258-0.0224609-1.1289072-0.2714844-1.5273447-0.7021484L2.0493939,51.6538086
				c-0.8227539-0.8876953-0.7705078-2.2792969,0.1171875-3.1015625l5.6166992-5.2080078c0,0,0,0,0-0.0009766
				c0.8876953-0.8222656,2.2797852-0.7685547,3.1030273,0.1181641L24.0005665,57.605957
				c0.3989258,0.4296875,0.605957,0.9892578,0.5839844,1.5751953c-0.0224609,0.5869141-0.2714844,1.1289063-0.7016602,1.5283203
				l-5.6166992,5.2060547C17.8570118,66.2954102,17.3306446,66.5014648,16.7754688,66.5014648z M8.4629679,44.0766602
				L2.8462689,49.284668c-0.4829102,0.4482422-0.5117188,1.2060547-0.0634766,1.6894531l13.1137695,14.1445313
				c0.2172861,0.234375,0.5126963,0.3701172,0.8315439,0.3818359c0.3193359,0.0302734,0.6240234-0.1005859,0.8583984-0.3173828
				l5.6166992-5.2070313c0.234375-0.2177734,0.3701172-0.5126953,0.3818359-0.8320313
				c0.012207-0.3193359-0.1005859-0.6240234-0.3178711-0.8583984L10.1529093,44.1411133
				C9.7036905,43.6567383,8.9468546,43.628418,8.4629679,44.0766602L8.4629679,44.0766602z"/>
		</g>
	</g>
	<g>
		<g>
			<path d="M17.0782032,62.9467773c-0.027832,0-0.0551758,0-0.0830078-0.0009766
				c-0.5668945-0.0214844-1.0917978-0.2626953-1.4780283-0.6787109c-0.3857422-0.4160156-0.5864258-0.9580078-0.5649414-1.5244141
				c0.0209961-0.5673828,0.262207-1.0927734,0.6787109-1.4785156c0.4165049-0.3857422,0.9643564-0.5732422,1.5249033-0.5654297
				c1.1708984,0.0449219,2.0874023,1.0332031,2.0429688,2.2041016l0,0c-0.0209961,0.5673828-0.262207,1.0917969-0.6782341,1.4775391
				C18.1245899,62.7475586,17.6153126,62.9467773,17.0782032,62.9467773z M17.0738087,59.6977539
				c-0.2841797,0-0.5537109,0.1054688-0.7631836,0.2998047c-0.2202148,0.2041016-0.3481455,0.4824219-0.359376,0.7822266
				c-0.0112305,0.3007813,0.0952158,0.5869141,0.2993174,0.8076172c0.2041016,0.2197266,0.4819336,0.3476563,0.7822266,0.3583984
				c0.3032227,0.0253906,0.5874023-0.0947266,0.8076172-0.2988281c0.2207031-0.2041016,0.3481445-0.4814453,0.359375-0.78125l0,0
				c0.0234375-0.6201172-0.4619141-1.1435547-1.0820313-1.1669922
				C17.1031055,59.6977539,17.0884571,59.6977539,17.0738087,59.6977539z"/>
		</g>
	</g>
	<g>
		<g>
			<g>
				<path d="M51.0288849,31.1782227H26.3960743c-2.237793,0-4.0581055-1.8164063-4.0581055-4.0498047V5.5561523
					c0-2.2373047,1.8203125-4.0576172,4.0581055-4.0576172h24.6328106c2.2333984,0,4.050293,1.8203125,4.050293,4.0576172V27.128418
					C55.0791779,29.3618164,53.2622833,31.1782227,51.0288849,31.1782227z M26.3960743,2.4985352
					c-1.6860352,0-3.0581055,1.3720703-3.0581055,3.0576172V27.128418c0,1.6816406,1.3720703,3.0498047,3.0581055,3.0498047
					h24.6328106c1.6821289,0,3.050293-1.3681641,3.050293-3.0498047V5.5561523c0-1.6855469-1.3681641-3.0576172-3.050293-3.0576172
					H26.3960743z"/>
			</g>
		</g>
		<g>
			<g>
				<path d="M31.0996876,27.9731445h-4.1748047c-0.7617188,0-1.3813477-0.6201172-1.3813477-1.3818359v-4.6162109
					c0-0.7617188,0.6196289-1.3808594,1.3813477-1.3808594h4.1748047c0.7617188,0,1.381834,0.6191406,1.381834,1.3808594v4.6162109
					C32.4815216,27.3530273,31.8614063,27.9731445,31.0996876,27.9731445z M26.9248829,21.5942383
					c-0.2104492,0-0.3813477,0.1708984-0.3813477,0.3808594v4.6162109c0,0.2138672,0.1674805,0.3818359,0.3813477,0.3818359
					h4.1748047c0.2143555,0,0.3818359-0.1679688,0.3818359-0.3818359v-4.6162109
					c0-0.2099609-0.1713867-0.3808594-0.3818359-0.3808594H26.9248829z"/>
			</g>
		</g>
		<g>
			<g>
				<path d="M40.7959747,27.9731445H36.62117c-0.7617188,0-1.3813477-0.6201172-1.3813477-1.3818359v-4.6162109
					c0-0.7617188,0.6196289-1.3808594,1.3813477-1.3808594h4.1748047c0.7617188,0,1.3813477,0.6191406,1.3813477,1.3808594
					v4.6162109C42.1773224,27.3530273,41.5576935,27.9731445,40.7959747,27.9731445z M36.62117,21.5942383
					c-0.2104492,0-0.3813477,0.1708984-0.3813477,0.3808594v4.6162109c0,0.2138672,0.1674805,0.3818359,0.3813477,0.3818359
					h4.1748047c0.2138672,0,0.3813477-0.1679688,0.3813477-0.3818359v-4.6162109
					c0-0.2099609-0.1708984-0.3808594-0.3813477-0.3808594H36.62117z"/>
			</g>
		</g>
		<g>
			<g>
				<path d="M50.4922638,27.9731445h-4.175293c-0.7617188,0-1.3813477-0.6201172-1.3813477-1.3818359v-4.6162109
					c0-0.7617188,0.6196289-1.3808594,1.3813477-1.3808594h4.175293c0.7617188,0,1.3813477,0.6191406,1.3813477,1.3808594v4.6162109
					C51.8736115,27.3530273,51.2539825,27.9731445,50.4922638,27.9731445z M46.3169708,21.5942383
					c-0.2104492,0-0.3813477,0.1708984-0.3813477,0.3808594v4.6162109c0,0.2138672,0.1674805,0.3818359,0.3813477,0.3818359
					h4.175293c0.2138672,0,0.3813477-0.1679688,0.3813477-0.3818359v-4.6162109
					c0-0.2099609-0.1708984-0.3808594-0.3813477-0.3808594H46.3169708z"/>
			</g>
		</g>
		<g>
			<g>
				<path d="M50.4922638,18.4291992H26.9248829c-0.7617188,0-1.3813477-0.6230469-1.3813477-1.3896484v-5.0722656
					c0-0.7617188,0.6196289-1.3818359,1.3813477-1.3818359h23.5673809c0.7617188,0,1.3813477,0.6201172,1.3813477,1.3818359
					v5.0722656C51.8736115,17.8061523,51.2539825,18.4291992,50.4922638,18.4291992z M26.9248829,11.5854492
					c-0.2138672,0-0.3813477,0.1679688-0.3813477,0.3818359v5.0722656c0,0.2148438,0.1708984,0.3896484,0.3813477,0.3896484
					h23.5673809c0.2104492,0,0.3813477-0.1748047,0.3813477-0.3896484v-5.0722656
					c0-0.2138672-0.1674805-0.3818359-0.3813477-0.3818359H26.9248829z"/>
			</g>
		</g>
		<g>
			<g>
				<path d="M54.5791779,8.4760742h-31.741209c-0.2763672,0-0.5-0.2236328-0.5-0.5V5.5561523
					c0-2.2373047,1.8203125-4.0576172,4.0581055-4.0576172h24.6328106c2.2333984,0,4.050293,1.8203125,4.050293,4.0576172v2.4199219
					C55.0791779,8.2524414,54.855545,8.4760742,54.5791779,8.4760742z M23.3379688,7.4760742h30.741209V5.5561523
					c0-1.6855469-1.3681641-3.0576172-3.050293-3.0576172H26.3960743c-1.6860352,0-3.0581055,1.3720703-3.0581055,3.0576172
					V7.4760742z"/>
			</g>
		</g>
		<g>
			<g>
				<g>
					<path d="M35.190506,5.4868164h-9.0146465c-0.2763672,0-0.5-0.2236328-0.5-0.5s0.2236328-0.5,0.5-0.5h9.0146465
						c0.2763672,0,0.5,0.2236328,0.5,0.5S35.4668732,5.4868164,35.190506,5.4868164z"/>
				</g>
			</g>
			<g>
				<g>
					<path d="M51.2412872,5.4868164h-0.3935547c-0.2763672,0-0.5-0.2236328-0.5-0.5s0.2236328-0.5,0.5-0.5h0.3935547
						c0.2763672,0,0.5,0.2236328,0.5,0.5S51.5176544,5.4868164,51.2412872,5.4868164z"/>
				</g>
			</g>
			<g>
				<g>
					<path d="M48.5703888,5.4868164h-0.394043c-0.2763672,0-0.5-0.2236328-0.5-0.5s0.2236328-0.5,0.5-0.5h0.394043
						c0.2763672,0,0.5,0.2236328,0.5,0.5S48.846756,5.4868164,48.5703888,5.4868164z"/>
				</g>
			</g>
			<g>
				<g>
					<path d="M45.8990021,5.4868164h-0.3935547c-0.2763672,0-0.5-0.2236328-0.5-0.5s0.2236328-0.5,0.5-0.5h0.3935547
						c0.2763672,0,0.5,0.2236328,0.5,0.5S46.1753693,5.4868164,45.8990021,5.4868164z"/>
				</g>
			</g>
		</g>
	</g>
</g>
</svg>
