<?xml version="1.0" encoding="iso-8859-1"?>
<!-- Uploaded to: SVG Repo, www.svgrepo.com, Generator: SVG Repo Mixer Tools -->
<svg fill="#000000" version="1.1" id="Layer_1" xmlns="http://www.w3.org/2000/svg" xmlns:xlink="http://www.w3.org/1999/xlink" 
	 viewBox="0 0 512 512" xml:space="preserve">
<g>
	<g>
		<rect x="0.112" y="396.888" width="511.888" height="16"/>
	</g>
</g>
<g>
	<g>
		<rect y="444.2" width="511.872" height="16"/>
	</g>
</g>
<g>
	<g>
		<path d="M343.488,57.272v70.912H512V57.272H343.488z M496,112.184H359.488V73.272H496V112.184z"/>
	</g>
</g>
<g>
	<g>
		<path d="M343.488,255.672v70.912H512v-70.912H343.488z M496,310.584H359.488v-38.912H496V310.584z"/>
	</g>
</g>
<g>
	<g>
		<path d="M343.488,156.6v70.912H512V156.6H343.488z M496,211.496H359.488v-38.912H496V211.496z"/>
	</g>
</g>
<g>
	<g>
		<path d="M98.224,122.328v139.456l118.784-69.728L98.224,122.328z M114.224,150.264l71.168,41.776l-71.168,41.776V150.264z"/>
	</g>
</g>
<g>
	<g>
		<path d="M252.432,51.8H41.824C18.752,51.784,0,70.792,0,94.136v195.6c0,23.328,18.752,42.336,41.824,42.336h210.608
			c23.024,0,41.776-19.008,41.776-42.336v-195.6C294.208,70.792,275.456,51.8,252.432,51.8z M278.192,289.736
			c0,14.528-11.568,26.336-25.776,26.336H41.824C27.584,316.072,16,304.264,16,289.72V94.136C16,79.608,27.584,67.8,41.808,67.8
			h210.608c14.224,0,25.776,11.808,25.776,26.336V289.736z"/>
	</g>
</g>
</svg>