<?xml version="1.0" encoding="UTF-8" standalone="no"?> <svg id="Layer_1" data-name="Layer 1" xmlns="http://www.w3.org/2000/svg" viewBox="0 0 64 64"><title>management-team-manage-adminstration-staff-crew</title><path d="M32,33a5,5,0,1,0-5-5A5.006,5.006,0,0,0,32,33Zm0-8a3,3,0,1,1-3,3A3,3,0,0,1,32,25Z"/><path d="M23.216,24.783c-.062.181-.12.367-.174.561l-1.381.609a1,1,0,0,0-.59.807,10.864,10.864,0,0,0,0,2.48,1,1,0,0,0,.59.807l1.381.609q.081.29.174.56l-.768,1.326a1,1,0,0,0-.008.989,11.231,11.231,0,0,0,1.439,2.012,1,1,0,0,0,.968.308l1.452-.333q.215.168.44.325l.141,1.54a1,1,0,0,0,.576.817,10.823,10.823,0,0,0,2.319.779,1,1,0,0,0,.962-.326L31.73,37.5c.179.008.361.008.54,0l.993,1.152A1,1,0,0,0,34.02,39a1.019,1.019,0,0,0,.2-.021,10.841,10.841,0,0,0,2.319-.779,1,1,0,0,0,.575-.816l.141-1.541q.227-.158.441-.325l1.452.333a1,1,0,0,0,.968-.308,11.2,11.2,0,0,0,1.439-2.011,1,1,0,0,0-.008-.989l-.768-1.326c.062-.181.12-.367.174-.561l1.381-.609a1,1,0,0,0,.59-.807,10.864,10.864,0,0,0,0-2.48,1,1,0,0,0-.59-.807l-1.381-.609q-.081-.29-.174-.56l.768-1.326a1,1,0,0,0,.008-.989,11.231,11.231,0,0,0-1.439-2.012,1,1,0,0,0-.968-.308L38,20.413V14a6,6,0,0,0-3.107-5.253,4,4,0,1,0-5.786,0A6,6,0,0,0,26,14v6.413l-1.153-.264a1,1,0,0,0-.968.308,11.2,11.2,0,0,0-1.439,2.011,1,1,0,0,0,.008.989ZM30,6a2,2,0,1,1,2,2A2,2,0,0,1,30,6Zm-2,8a4,4,0,0,1,8,0v3.564c-.136-.054-.273-.1-.41-.145-.105-.038-.21-.077-.315-.112a10.376,10.376,0,0,0-1.05-.286,1,1,0,0,0-.962.326L32.27,18.5c-.09,0-.179-.006-.27-.006s-.18,0-.27.006l-.331-.384-.661-.768a1,1,0,0,0-.7-.345,1.048,1.048,0,0,0-.267.019l-.008,0a10.263,10.263,0,0,0-1.044.285c-.1.033-.2.072-.308.109-.138.05-.277.092-.415.147ZM24.3,26.977a1,1,0,0,0,.572-.693,7.407,7.407,0,0,1,.376-1.208,1,1,0,0,0-.059-.885l-.711-1.227q.242-.375.521-.729l1.339.307a1,1,0,0,0,.885-.225c.111-.1.247-.178.366-.27.008-.006.017-.008.024-.014l.1-.08c.143-.106.275-.219.428-.317.026-.018.05-.04.078-.057a1,1,0,0,0,.469-.759l.131-1.428a8.415,8.415,0,0,1,.806-.274l.916,1.064a.977.977,0,0,0,.838.343h.006a7.241,7.241,0,0,1,1.232,0h.005a.972.972,0,0,0,.838-.343l.918-1.064a8.492,8.492,0,0,1,.8.274l.131,1.427a1,1,0,0,0,.469.76c.017.01.031.024.048.035.165.1.307.227.461.341l.1.078c.006,0,.014.006.02.011.121.093.257.174.37.273a1,1,0,0,0,.885.225L39,22.235c.187.236.362.48.522.729l-.711,1.227a1,1,0,0,0-.059.884,7.482,7.482,0,0,1,.376,1.209,1,1,0,0,0,.572.693l1.283.566c.009.151.013.3.013.457s0,.306-.013.457l-1.283.566a1,1,0,0,0-.572.693,7.407,7.407,0,0,1-.376,1.208,1,1,0,0,0,.059.885l.711,1.227q-.242.375-.521.729l-1.339-.307a1,1,0,0,0-.885.225,7.4,7.4,0,0,1-1,.739,1,1,0,0,0-.469.759l-.131,1.427a8.51,8.51,0,0,1-.806.274l-.917-1.064a1,1,0,0,0-.841-.343,7.5,7.5,0,0,1-1.236,0,1,1,0,0,0-.841.343l-.917,1.064a8.415,8.415,0,0,1-.806-.274l-.13-1.427a1,1,0,0,0-.471-.76,7.319,7.319,0,0,1-1-.738,1,1,0,0,0-.885-.225L25,33.765c-.187-.236-.362-.48-.522-.729l.711-1.227a1,1,0,0,0,.059-.884,7.482,7.482,0,0,1-.376-1.209,1,1,0,0,0-.572-.693l-1.283-.566C23,28.306,23,28.153,23,28s0-.306.013-.457Z"/><path d="M51,46a5,5,0,1,0,5,5A5.006,5.006,0,0,0,51,46Zm0,8a3,3,0,1,1,3-3A3,3,0,0,1,51,54Z"/><path d="M61.339,48.953l-1.381-.609q-.081-.289-.174-.56l.768-1.326a1,1,0,0,0,.008-.989,11.231,11.231,0,0,0-1.439-2.012,1,1,0,0,0-.968-.308L57,43.413V37a6,6,0,0,0-3.107-5.253,4,4,0,1,0-5.786,0A6,6,0,0,0,45,37v6.413l-1.153-.264a1,1,0,0,0-.968.308,11.2,11.2,0,0,0-1.439,2.011,1,1,0,0,0,.008.989l.768,1.326c-.062.181-.12.367-.174.561l-1.381.609a1,1,0,0,0-.59.807,10.864,10.864,0,0,0,0,2.48,1,1,0,0,0,.59.807l1.381.609q.081.289.174.56l-.768,1.326a1,1,0,0,0-.008.989,11.231,11.231,0,0,0,1.439,2.012,1,1,0,0,0,.968.308l1.452-.333q.215.168.44.325l.141,1.54a1,1,0,0,0,.576.817,10.823,10.823,0,0,0,2.319.779,1,1,0,0,0,.962-.326L50.73,60.5c.179.008.361.008.54,0l.993,1.152A1,1,0,0,0,53.02,62a1.019,1.019,0,0,0,.2-.021,10.841,10.841,0,0,0,2.319-.779,1,1,0,0,0,.575-.816l.141-1.541q.227-.158.441-.325l1.452.333a1,1,0,0,0,.968-.308,11.2,11.2,0,0,0,1.439-2.011,1,1,0,0,0-.008-.989l-.768-1.326c.062-.181.12-.367.174-.561l1.381-.609a1,1,0,0,0,.59-.807,10.864,10.864,0,0,0,0-2.48A1,1,0,0,0,61.339,48.953ZM49,29a2,2,0,1,1,2,2A2,2,0,0,1,49,29Zm-2,8a4,4,0,0,1,8,0v3.564c-.136-.054-.273-.1-.41-.145-.105-.038-.21-.077-.315-.112a10.376,10.376,0,0,0-1.05-.286,1,1,0,0,0-.962.326L51.27,41.5c-.09,0-.179-.006-.27-.006s-.18,0-.27.006l-.331-.384-.661-.768a1,1,0,0,0-.437-.294,1.018,1.018,0,0,0-.526-.032l-.008,0a10.263,10.263,0,0,0-1.044.285c-.1.033-.2.072-.308.109-.138.05-.277.092-.415.147ZM59.987,51.457l-1.283.566a1,1,0,0,0-.572.693,7.407,7.407,0,0,1-.376,1.208,1,1,0,0,0,.059.885l.711,1.227q-.242.375-.521.729l-1.339-.307a.994.994,0,0,0-.885.225,7.4,7.4,0,0,1-1,.739,1,1,0,0,0-.469.759l-.131,1.427a8.51,8.51,0,0,1-.806.274l-.917-1.064a1,1,0,0,0-.841-.343,7.5,7.5,0,0,1-1.236,0,1,1,0,0,0-.841.343l-.917,1.064a8.415,8.415,0,0,1-.806-.274l-.13-1.427a1,1,0,0,0-.471-.76,7.319,7.319,0,0,1-1-.738.994.994,0,0,0-.885-.225L44,56.765c-.187-.236-.362-.48-.522-.729l.711-1.227a1,1,0,0,0,.059-.884,7.482,7.482,0,0,1-.376-1.209,1,1,0,0,0-.572-.693l-1.283-.566C42,51.306,42,51.153,42,51s0-.306.013-.457l1.283-.566a1,1,0,0,0,.572-.693,7.407,7.407,0,0,1,.376-1.208,1,1,0,0,0-.059-.885l-.711-1.227q.242-.375.521-.729l1.339.307a1,1,0,0,0,.885-.225c.111-.1.247-.178.366-.27.008-.006.017-.008.024-.014l.1-.08c.143-.106.275-.219.428-.317.026-.018.05-.04.078-.057a1,1,0,0,0,.469-.759l.131-1.428a8.415,8.415,0,0,1,.806-.274l.916,1.064a.984.984,0,0,0,.8.342c.015,0,.029,0,.044,0h0a7.241,7.241,0,0,1,1.232,0h0c.006,0,.012,0,.018,0a.983.983,0,0,0,.823-.343l.918-1.064a8.492,8.492,0,0,1,.8.274l.131,1.427a1,1,0,0,0,.469.76c.017.01.031.024.048.035.165.1.307.227.461.341l.1.078c.006,0,.014.006.02.011.121.093.257.174.37.273a1,1,0,0,0,.885.225L58,45.235c.187.236.362.48.522.729l-.711,1.227a1,1,0,0,0-.059.884,7.482,7.482,0,0,1,.376,1.209,1,1,0,0,0,.572.693l1.283.566c.009.151.013.3.013.457S60,51.306,59.987,51.457Z"/><path d="M13,56a5,5,0,1,0-5-5A5.006,5.006,0,0,0,13,56Zm0-8a3,3,0,1,1-3,3A3,3,0,0,1,13,48Z"/><path d="M2.661,53.047l1.381.609q.081.289.174.56l-.768,1.326a1,1,0,0,0-.008.989,11.231,11.231,0,0,0,1.439,2.012,1,1,0,0,0,.968.308L7.3,58.518q.215.168.44.325l.141,1.54a1,1,0,0,0,.576.817,10.823,10.823,0,0,0,2.319.779,1,1,0,0,0,.962-.326L12.73,60.5c.179.008.361.008.54,0l.993,1.152A1,1,0,0,0,15.02,62a1.019,1.019,0,0,0,.205-.021,10.841,10.841,0,0,0,2.319-.779,1,1,0,0,0,.575-.816l.141-1.541q.226-.158.441-.325l1.452.333a1,1,0,0,0,.968-.308,11.2,11.2,0,0,0,1.439-2.011,1,1,0,0,0-.008-.989l-.768-1.326c.062-.181.12-.367.174-.561l1.381-.609a1,1,0,0,0,.59-.807,10.864,10.864,0,0,0,0-2.48,1,1,0,0,0-.59-.807l-1.381-.609q-.081-.289-.174-.56l.768-1.326a1,1,0,0,0,.008-.989,11.231,11.231,0,0,0-1.439-2.012,1,1,0,0,0-.968-.308L19,43.413V37a6,6,0,0,0-3.107-5.253,4,4,0,1,0-5.786,0A6,6,0,0,0,7,37v6.413l-1.153-.264a1,1,0,0,0-.968.308A11.2,11.2,0,0,0,3.44,45.468a1,1,0,0,0,.008.989l.768,1.326c-.062.181-.12.367-.174.561l-1.381.609a1,1,0,0,0-.59.807,10.864,10.864,0,0,0,0,2.48A1,1,0,0,0,2.661,53.047ZM11,29a2,2,0,1,1,2,2A2,2,0,0,1,11,29ZM9,37a4,4,0,0,1,8,0v3.564c-.136-.054-.273-.1-.41-.145-.105-.038-.21-.077-.315-.112a10.376,10.376,0,0,0-1.05-.286,1,1,0,0,0-.962.326L13.27,41.5c-.09,0-.179-.006-.27-.006s-.18,0-.27.006l-.331-.384-.661-.768a1.014,1.014,0,0,0-.963-.326l-.008,0a10.263,10.263,0,0,0-1.044.285c-.1.033-.205.072-.308.109-.138.05-.277.092-.415.147ZM4.013,50.543,5.3,49.977a1,1,0,0,0,.572-.693,7.407,7.407,0,0,1,.376-1.208,1,1,0,0,0-.059-.885l-.711-1.227q.241-.375.521-.729l1.339.307a1,1,0,0,0,.885-.225c.111-.1.247-.178.366-.27.008-.006.017-.008.024-.014l.1-.08c.143-.106.275-.219.428-.317.026-.018.05-.04.078-.057a1,1,0,0,0,.469-.759l.131-1.428a8.415,8.415,0,0,1,.806-.274l.916,1.064a.981.981,0,0,0,.805.342.232.232,0,0,0,.037,0h0a7.241,7.241,0,0,1,1.232,0h0c.007,0,.013,0,.02,0a.989.989,0,0,0,.218-.007.874.874,0,0,0,.188-.052c.012,0,.025-.005.036-.01a.938.938,0,0,0,.164-.091c.013-.009.028-.014.041-.023s.022-.022.034-.031a.952.952,0,0,0,.14-.129l.918-1.064a8.492,8.492,0,0,1,.8.274l.131,1.427a1,1,0,0,0,.469.76c.017.01.031.024.048.035.165.1.307.227.461.341l.1.078c.006,0,.014.006.02.011.121.093.257.174.37.273a1,1,0,0,0,.885.225L20,45.235c.187.236.362.48.522.729l-.711,1.227a1,1,0,0,0-.059.884,7.482,7.482,0,0,1,.376,1.209,1,1,0,0,0,.572.693l1.283.566c.009.151.013.3.013.457s0,.306-.013.457l-1.283.566a1,1,0,0,0-.572.693,7.407,7.407,0,0,1-.376,1.208,1,1,0,0,0,.059.885l.711,1.227q-.242.375-.521.729l-1.339-.307a.993.993,0,0,0-.885.225,7.4,7.4,0,0,1-1,.739,1,1,0,0,0-.469.759l-.131,1.427a8.51,8.51,0,0,1-.806.274l-.917-1.064a1,1,0,0,0-.841-.343,7.5,7.5,0,0,1-1.236,0,1,1,0,0,0-.841.343l-.917,1.064a8.415,8.415,0,0,1-.806-.274l-.13-1.427a1,1,0,0,0-.471-.76,7.319,7.319,0,0,1-1-.738,1,1,0,0,0-.885-.225L6,56.765c-.187-.236-.362-.48-.522-.729l.711-1.227a1,1,0,0,0,.059-.884,7.482,7.482,0,0,1-.376-1.209,1,1,0,0,0-.572-.693l-1.283-.566C4,51.306,4,51.153,4,51S4,50.694,4.013,50.543Z"/><path d="M22.269,11.964l-.779-1.842A27.033,27.033,0,0,0,7.663,23.294l1.8.868A25.027,25.027,0,0,1,22.269,11.964Z"/><path d="M24.565,58.876l-.593,1.91a27.15,27.15,0,0,0,16.516-.147l-.628-1.9A25.255,25.255,0,0,1,24.565,58.876Z"/><path d="M54.659,24.423l1.812-.846A26.965,26.965,0,0,0,42.24,10.01l-.759,1.85A24.97,24.97,0,0,1,54.659,24.423Z"/></svg>