<?xml version="1.0" encoding="iso-8859-1"?>
<!-- Generator: Adobe Illustrator 16.0.0, SVG Export Plug-In . SVG Version: 6.00 Build 0)  -->
<!DOCTYPE svg PUBLIC "-//W3C//DTD SVG 1.1//EN" "http://www.w3.org/Graphics/SVG/1.1/DTD/svg11.dtd">
<svg version="1.1" xmlns="http://www.w3.org/2000/svg" xmlns:xlink="http://www.w3.org/1999/xlink" x="0px" y="0px" width="512px"
	 height="512px" viewBox="0 0 512 512" style="enable-background:new 0 0 512 512;" xml:space="preserve">
<g id="_x36_61_x2C__conversion_x2C_difference_x2C_options_x2C_structure_x2C_transition">
	<g>
		<g>
			<g>
				<g>
					<path style="fill:#010101;" d="M272.014,119.297h-26.656c-1.657,0-3-1.343-3-3V69.606l-16.093-0.091
						c-1.153-0.007-2.201-0.674-2.694-1.716s-0.346-2.276,0.38-3.172l32.621-40.271c0.573-0.708,1.428-1.102,2.35-1.112
						c0.911,0.006,1.771,0.425,2.336,1.141l32.188,40.761c0.715,0.905,0.848,2.139,0.342,3.175c-0.503,1.031-1.55,1.684-2.696,1.684
						c-0.006,0-0.012,0-0.017,0l-16.06-0.091v46.383C275.014,117.954,273.671,119.297,272.014,119.297z M248.357,113.297h20.656
						v-46.4c0-0.799,0.318-1.564,0.885-2.127c0.563-0.559,1.322-0.873,2.115-0.873c0.006,0,0.012,0,0.017,0l12.84,0.073
						l-25.998-32.923L232.543,63.55l12.831,0.073c1.65,0.009,2.983,1.35,2.983,3V113.297z"/>
				</g>
				<g>
					<path style="fill:#010101;" d="M338.209,156.578c-0.768,0-1.535-0.293-2.121-0.878l-18.859-18.857
						c-0.563-0.563-0.879-1.326-0.879-2.122c0-0.795,0.316-1.559,0.879-2.121l33.026-33.026l-11.3-11.438
						c-0.811-0.82-1.079-2.033-0.691-3.119c0.389-1.086,1.365-1.853,2.512-1.973l51.534-5.408c0.919-0.097,1.808,0.227,2.448,0.875
						s0.951,1.553,0.845,2.458l-6.072,51.603c-0.135,1.145-0.914,2.112-2.004,2.486c-1.089,0.376-2.298,0.092-3.109-0.729
						l-11.277-11.413L340.329,155.7C339.744,156.286,338.977,156.578,338.209,156.578z M323.593,134.721l14.617,14.616
						l32.823-32.796c0.563-0.563,1.325-0.878,2.12-0.878c0.003,0,0.007,0,0.01,0c0.799,0.002,1.563,0.323,2.124,0.892l9.014,9.121
						l4.904-41.682l-41.596,4.365l9.009,9.119c1.16,1.174,1.154,3.063-0.013,4.229L323.593,134.721z"/>
				</g>
				<g>
					<path style="fill:#010101;" d="M407.964,248.832c-0.448,0-0.897-0.1-1.315-0.304c-1.036-0.506-1.691-1.561-1.685-2.713
						l0.091-16.057h-46.398c-1.657,0-3-1.343-3-3V200.1c0-1.657,1.343-3,3-3h46.705l0.09-16.093
						c0.007-1.153,0.674-2.201,1.716-2.695s2.276-0.347,3.172,0.38l40.272,32.609c0.709,0.574,1.118,1.438,1.112,2.35
						s-0.425,1.771-1.141,2.336l-40.76,32.199C409.283,248.613,408.626,248.832,407.964,248.832z M361.656,223.758h46.416
						c0.799,0,1.564,0.318,2.127,0.885c0.563,0.566,0.878,1.333,0.873,2.132l-0.073,12.836l32.922-26.007l-32.505-26.319
						l-0.071,12.832c-0.009,1.65-1.35,2.983-3,2.983h-46.688V223.758z"/>
				</g>
				<g>
					<path style="fill:#010101;" d="M111.758,251.686c-0.675,0-1.344-0.228-1.889-0.669l-40.258-32.608
						c-0.708-0.574-1.117-1.438-1.112-2.35c0.005-0.911,0.425-1.771,1.14-2.335l40.761-32.2c0.904-0.715,2.139-0.848,3.175-0.342
						c1.036,0.506,1.691,1.561,1.685,2.713l-0.091,16.059h46.398c1.657,0,3,1.343,3,3v26.657c0,1.657-1.343,3-3,3h-46.706
						l-0.104,16.095c-0.007,1.153-0.675,2.2-1.717,2.692C112.632,251.591,112.194,251.686,111.758,251.686z M76.302,216.106
						l32.496,26.321l0.083-12.837c0.011-1.649,1.351-2.98,3-2.98h46.687v-20.657h-46.415c-0.799,0-1.564-0.318-2.127-0.885
						s-0.877-1.333-0.873-2.132l0.073-12.838L76.302,216.106z"/>
				</g>
				<g>
					<path style="fill:#010101;" d="M179.992,158.617c-0.795,0-1.559-0.316-2.121-0.879l-33.028-33.028l-11.437,11.302
						c-0.82,0.811-2.03,1.082-3.119,0.691c-1.086-0.388-1.853-1.365-1.973-2.512l-5.408-51.548
						c-0.095-0.907,0.227-1.808,0.876-2.448s1.552-0.951,2.459-0.845l51.588,6.085c1.145,0.135,2.111,0.914,2.485,2.004
						c0.375,1.09,0.092,2.299-0.728,3.109l-11.413,11.278l32.798,32.811c1.171,1.172,1.171,3.071,0,4.242l-18.857,18.857
						C181.551,158.301,180.788,158.617,179.992,158.617z M144.855,117.48c0.768,0,1.536,0.293,2.121,0.879l33.016,33.015
						l14.615-14.615l-32.811-32.824c-0.565-0.565-0.881-1.332-0.878-2.13c0.002-0.798,0.323-1.563,0.891-2.125l9.124-9.016
						l-41.669-4.915l4.365,41.606l9.118-9.01C143.331,117.769,144.094,117.48,144.855,117.48z"/>
				</g>
				<g>
					<path style="fill:#010101;" d="M260.113,296.631c-45.092,0-81.777-36.685-81.777-81.775c0-45.091,36.685-81.775,81.777-81.775
						c45.091,0,81.775,36.684,81.775,81.775C341.889,259.946,305.204,296.631,260.113,296.631z M260.113,139.08
						c-41.784,0-75.777,33.993-75.777,75.775s33.994,75.775,75.777,75.775c41.782,0,75.775-33.993,75.775-75.775
						S301.896,139.08,260.113,139.08z"/>
				</g>
				<g>
					<path style="fill:#010101;" d="M333.779,197.938c-22.434,0-43.36-8.896-58.925-25.049c-1.104-1.146-1.122-2.954-0.04-4.121
						c7.045-7.602,12.373-16.439,15.837-26.267c0.281-0.799,0.888-1.442,1.669-1.77c0.779-0.328,1.663-0.311,2.433,0.05
						c22.069,10.333,38.282,29.774,44.482,53.338c0.229,0.867,0.057,1.791-0.469,2.518c-0.524,0.728-1.347,1.182-2.241,1.239
						C335.572,197.938,334.661,197.938,333.779,197.938z M281.141,170.694c13.855,13.393,31.89,20.879,51.212,21.23
						c-6.081-19.127-19.41-34.985-37.229-44.268C291.756,156.106,287.066,163.833,281.141,170.694z"/>
				</g>
				<g>
					<path style="fill:#010101;" d="M219.135,199.16c-12.094,0-23.75-2.592-34.644-7.703c-1.394-0.654-2.066-2.258-1.556-3.711
						c11.495-32.697,42.51-54.666,77.178-54.666c12.096,0,23.751,2.591,34.642,7.702c1.395,0.654,2.066,2.259,1.556,3.712
						C284.803,177.191,253.788,199.16,219.135,199.16z M189.558,187.152c9.361,3.988,19.297,6.008,29.577,6.008
						c31.191,0,59.199-19.205,70.553-48.073c-9.358-3.987-19.294-6.007-29.574-6.007C228.91,139.08,200.9,158.285,189.558,187.152z"
						/>
				</g>
				<g>
					<path style="fill:#010101;" d="M406.455,451.222H110.903c-1.657,0-3-1.343-3-3v-84.755c0-1.193,0.707-2.273,1.801-2.75
						l98.23-42.825c1.11-0.484,2.404-0.254,3.278,0.588l45.739,43.993l49.256-44.066c0.873-0.782,2.121-0.984,3.199-0.515
						l98.246,42.825c1.094,0.477,1.801,1.557,1.801,2.75v84.755C409.455,449.879,408.112,451.222,406.455,451.222z M113.903,445.222
						h289.552v-79.79l-94.681-41.271L258.879,368.8c-1.169,1.048-2.949,1.015-4.08-0.073l-46.302-44.535l-94.594,41.24V445.222z"/>
				</g>
				<g>
					<path style="fill:#010101;" d="M311.116,379.564h-104.86c-0.822,0-1.609-0.338-2.175-0.934
						c-0.566-0.597-0.863-1.399-0.821-2.221l2.878-55.923c0.085-1.653,1.483-2.939,3.15-2.842c1.655,0.085,2.927,1.496,2.842,3.15
						l-2.716,52.769h98.598l-1.796-52.413c-0.057-1.655,1.239-3.044,2.896-3.101c1.66-0.039,3.044,1.239,3.101,2.896l1.902,55.516
						c0.028,0.813-0.275,1.603-0.841,2.188S311.93,379.564,311.116,379.564z"/>
				</g>
				<g>
					<path style="fill:#010101;" d="M258.128,368.396h-2.419c-0.775,0-1.521-0.3-2.08-0.838l-33.477-32.2
						c-0.588-0.565-0.92-1.347-0.92-2.162v-49.293c0-1.061,0.56-2.042,1.472-2.582c0.913-0.539,2.042-0.558,2.972-0.048
						c11.117,6.104,23.717,9.33,36.437,9.33c11.961,0,23.456-2.735,34.166-8.131c0.93-0.468,2.035-0.421,2.923,0.125
						c0.887,0.547,1.427,1.514,1.427,2.555v46.713c0,0.854-0.364,1.667-1,2.236l-37.501,33.531
						C259.577,368.125,258.865,368.396,258.128,368.396z M256.917,362.396h0.065l35.646-31.873V289.87
						c-10.298,4.471-21.214,6.733-32.516,6.733c-12.059,0-24.017-2.687-34.881-7.807v43.122L256.917,362.396z"/>
				</g>
				<g>
					<path style="fill:#010101;" d="M329.337,469.971H113.811c-1.657,0-3-1.343-3-3s1.343-3,3-3h215.526c1.657,0,3,1.343,3,3
						S330.994,469.971,329.337,469.971z"/>
				</g>
				<g>
					<path style="fill:#010101;" d="M400.26,489.236H223.441c-1.657,0-3-1.343-3-3s1.343-3,3-3H400.26c1.657,0,3,1.343,3,3
						S401.917,489.236,400.26,489.236z"/>
				</g>
				<g>
					<path style="fill:#010101;" d="M440.464,489.236h-22.106c-1.657,0-3-1.343-3-3s1.343-3,3-3h22.106c1.657,0,3,1.343,3,3
						S442.121,489.236,440.464,489.236z"/>
				</g>
				<g>
					<path style="fill:#010101;" d="M147.532,488.666H63.757c-1.657,0-3-1.343-3-3s1.343-3,3-3h83.775c1.657,0,3,1.343,3,3
						S149.189,488.666,147.532,488.666z"/>
				</g>
				<g>
					<path style="fill:#010101;" d="M349.975,451.222H167.396c-1.657,0-3-1.343-3-3V398.9c0-1.657,1.343-3,3-3s3,1.343,3,3v46.321
						h176.578V398.9c0-1.657,1.343-3,3-3s3,1.343,3,3v49.321C352.975,449.879,351.632,451.222,349.975,451.222z"/>
				</g>
				<g>
					<path style="fill:#010101;" d="M89.816,444.265c-1.657,0-3-1.343-3-3v-94.836c0-1.172,0.682-2.236,1.747-2.726l84.197-38.722
						c1.504-0.69,3.287-0.033,3.979,1.472c0.692,1.506,0.033,3.287-1.472,3.979l-82.451,37.919v92.913
						C92.816,442.922,91.473,444.265,89.816,444.265z"/>
				</g>
			</g>
		</g>
	</g>
</g>
<g id="Layer_1">
</g>
</svg>
