<?xml version="1.0" encoding="UTF-8" standalone="no"?> <svg id="Layer_1" data-name="Layer 1" xmlns="http://www.w3.org/2000/svg" viewBox="0 0 64 64"><path d="M62,1H2A1,1,0,0,0,1,2V28a1,1,0,0,0,1,1H42V41.358l-.441-.5a1.011,1.011,0,0,0-.121-.115,3.7,3.7,0,0,0-5.154,5.244L41.118,53.2a.988.988,0,0,0,.124.15,9.083,9.083,0,0,0,2.145,1.6l0,8.055h2l0-8.682a1,1,0,0,0-.605-.919A6.9,6.9,0,0,1,42.724,52l-4.808-7.173a.866.866,0,0,0-.073-.1,1.713,1.713,0,0,1-.408-1.106,1.689,1.689,0,0,1,2.688-1.373l2.129,2.409A1,1,0,0,0,44,44V25a1,1,0,0,1,2,0V40h2V34a1,1,0,0,1,2,0v6h2l0-4a1,1,0,0,1,2,0l0,4h2l0-2a1,1,0,0,1,1-1,1,1,0,0,1,1,1l-.017,8.461A7.139,7.139,0,0,1,54.5,52.779a1,1,0,0,0-.5.867V63h2V54.2a9.16,9.16,0,0,0,3.982-7.742L60,38a2.988,2.988,0,0,0-4.113-2.783,2.976,2.976,0,0,0-4-2A2.951,2.951,0,0,0,48,31.183V29H62a1,1,0,0,0,1-1V2A1,1,0,0,0,62,1ZM61,27H48V25a3,3,0,0,0-6,0v2H3V3H61Z"/><path d="M15,25A10,10,0,1,0,5,15,10.011,10.011,0,0,0,15,25ZM15,7a8,8,0,1,1-8,8A8.009,8.009,0,0,1,15,7Z"/><path d="M15.75,18h-1.5A1.162,1.162,0,0,1,13,17H11a3.1,3.1,0,0,0,3,2.977V21h2V19.977A3.1,3.1,0,0,0,19,17a3.136,3.136,0,0,0-3.25-3h-1.5A1.162,1.162,0,0,1,13,13a1.162,1.162,0,0,1,1.25-1h1.5A1.148,1.148,0,0,1,17,13h2a3.1,3.1,0,0,0-3-2.977V9H14v1.023A3.1,3.1,0,0,0,11,13a3.136,3.136,0,0,0,3.25,3h1.5A1.148,1.148,0,0,1,17,17,1.148,1.148,0,0,1,15.75,18Z"/><path d="M11,63a1,1,0,0,0,1-1V51a1,1,0,0,0-1-1H5a1,1,0,0,0-1,1V62a1,1,0,0,0,1,1ZM6,52h4v9H6Z"/><path d="M17,63h6a1,1,0,0,0,1-1V45h2a1,1,0,0,0,.8-1.6l-6-8a1.036,1.036,0,0,0-1.6,0l-6,8A1,1,0,0,0,14,45h2V62A1,1,0,0,0,17,63Zm3-25.333L24,43H23a1,1,0,0,0-1,1V61H18V44a1,1,0,0,0-1-1H16Z"/><rect x="44" y="17" width="2" height="3"/><rect x="48.803" y="19.697" width="3" height="2" transform="translate(0.099 41.632) rotate(-45)"/><rect x="38.697" y="19.197" width="2" height="3" transform="translate(-3.005 34.142) rotate(-45.013)"/></svg>