<?xml version="1.0" encoding="UTF-8" standalone="no"?> <svg xmlns="http://www.w3.org/2000/svg" viewBox="0 0 64 64"><g id="Storage_media-data-technology-manage" data-name="Storage media-data-technology-manage"><path d="M60,2H52a2,2,0,0,0-2,2v6H45a3,3,0,0,0-3,3V24h2V13a1,1,0,0,1,1-1h5v6a2,2,0,0,0,2,2h8a2,2,0,0,0,2-2V4A2,2,0,0,0,60,2ZM52,18V4h8V18Z"/><path d="M50,32a6.991,6.991,0,0,0-9.386-6.577,8.989,8.989,0,0,0-17.1-.4A7,7,0,1,0,23,39H43A7.008,7.008,0,0,0,50,32ZM18,32a5.006,5.006,0,0,1,5-5,5.123,5.123,0,0,1,1.027.106A1.008,1.008,0,0,0,25.2,26.36a6.99,6.99,0,0,1,13.718.646,1,1,0,0,0,1.507.715A5,5,0,1,1,43,37H23A5.006,5.006,0,0,1,18,32Z"/><path d="M3,12H7v2H5v2H9v2a3,3,0,0,0,3,3h7a1,1,0,0,1,1,1v2h2V22a3,3,0,0,0-3-3H12a1,1,0,0,1-1-1V16h4V14H13V12h4a1,1,0,0,0,1-1V3a1,1,0,0,0-1-1H3A1,1,0,0,0,2,3v8A1,1,0,0,0,3,12Zm8,2H9V12h2ZM4,4H16v6H4Z"/><path d="M56.707,43.293A1,1,0,0,0,56,43H52a1,1,0,0,0-.707.293l-2,2A1,1,0,0,0,49,46V58a1,1,0,0,0,1,1h8a1,1,0,0,0,1-1V46a1,1,0,0,0-.293-.707ZM57,57H51V46.414L52.414,45h3.172L57,46.414Z"/><rect x="52" y="47" width="4" height="2"/><rect x="53" y="15" width="6" height="2"/><path d="M59,40H49a3,3,0,0,0-3,3v9H43a1,1,0,0,1-1-1V40H40V51a3,3,0,0,0,3,3h3v5a3,3,0,0,0,3,3H59a3,3,0,0,0,3-3V43A3,3,0,0,0,59,40Zm1,19a1,1,0,0,1-1,1H49a1,1,0,0,1-1-1V43a1,1,0,0,1,1-1H59a1,1,0,0,1,1,1Z"/><circle cx="54" cy="54" r="2"/><path d="M20,51a1,1,0,0,1-1,1H16V47c0-2.072-3.516-3-7-3s-7,.928-7,3V59c0,2.072,3.516,3,7,3s7-.928,7-3V54h3a3,3,0,0,0,3-3V40H20Zm-6,3.905C13.738,55.246,12.027,56,9,56s-4.738-.754-5-1.095V53.2A13.945,13.945,0,0,0,9,54a13.945,13.945,0,0,0,5-.8ZM4,49.2A13.945,13.945,0,0,0,9,50a13.945,13.945,0,0,0,5-.8v1.708C13.738,51.246,12.027,52,9,52s-4.738-.754-5-1.095ZM9,46c2.764,0,4.439.63,4.909,1-.47.37-2.145,1-4.909,1s-4.439-.63-4.909-1C4.561,46.63,6.236,46,9,46ZM9,60c-2.989,0-4.706-.737-5-1.085V57.2A13.945,13.945,0,0,0,9,58a13.945,13.945,0,0,0,5-.8v1.718C13.706,59.263,11.989,60,9,60Z"/></g></svg>