<?xml version="1.0" encoding="UTF-8" standalone="no"?> <svg width="64" height="64" viewBox="0 0 64 64" fill="none" xmlns="http://www.w3.org/2000/svg">
<path d="M56 42H54V36H55V34H43V36H44V42H38V35H36V42H30V35H28V42H18V38C18 37.7348 17.8946 37.4804 17.7071 37.2929C17.5196 37.1054 17.2652 37 17 37H4V36C4 35.7348 4.10536 35.4804 4.29289 35.2929C4.48043 35.1054 4.73478 35 5 35H10C10.7956 35 11.5587 34.6839 12.1213 34.1213C12.6839 33.5587 13 32.7956 13 32C13 31.2044 12.6839 30.4413 12.1213 29.8787C11.5587 29.3161 10.7956 29 10 29H7C6.73478 29 6.48043 28.8946 6.29289 28.7071C6.10536 28.5196 6 28.2652 6 28V27H7C7.79565 27 8.55871 26.6839 9.12132 26.1213C9.68393 25.5587 10 24.7956 10 24V21.965L13.244 24.326C13.5369 25.2211 14.1453 25.9791 14.9557 26.459C15.7661 26.9388 16.7233 27.1076 17.649 26.934L24 29.659V31C24 31.2652 24.1054 31.5196 24.2929 31.7071C24.4804 31.8946 24.7348 32 25 32H27C27.2652 31.9999 27.5195 31.8946 27.707 31.707L29.707 29.707L28.293 28.293L26.586 30H26V24H26.586L28.293 25.707L29.707 24.293L27.707 22.293C27.5195 22.1054 27.2652 22.0001 27 22H25C24.7348 22 24.4804 22.1054 24.2929 22.2929C24.1054 22.4804 24 22.7348 24 23V24.294L20.959 22.594C20.8605 21.6113 20.4013 20.7001 19.6701 20.0362C18.9389 19.3724 17.9876 19.0032 17 19C16.6967 19.0021 16.3947 19.0393 16.1 19.111L10 13.558V10C10 9.20435 9.68393 8.44129 9.12132 7.87868C8.55871 7.31607 7.79565 7 7 7H3C2.73478 7 2.48043 7.10536 2.29289 7.29289C2.10536 7.48043 2 7.73478 2 8V26C2 26.2652 2.10536 26.5196 2.29289 26.7071C2.48043 26.8946 2.73478 27 3 27H4V28C4 28.7956 4.31607 29.5587 4.87868 30.1213C5.44129 30.6839 6.20435 31 7 31H10C10.2652 31 10.5196 31.1054 10.7071 31.2929C10.8946 31.4804 11 31.7348 11 32C11 32.2652 10.8946 32.5196 10.7071 32.7071C10.5196 32.8946 10.2652 33 10 33H5C4.20435 33 3.44129 33.3161 2.87868 33.8787C2.31607 34.4413 2 35.2044 2 36V61C2 61.2652 2.10536 61.5196 2.29289 61.7071C2.48043 61.8946 2.73478 62 3 62H17C17.2652 62 17.5196 61.8946 17.7071 61.7071C17.8946 61.5196 18 61.2652 18 61V54H52V57H51C50.8354 57 50.6734 57.0406 50.5282 57.1182C50.3831 57.1958 50.2593 57.3081 50.168 57.445L48.168 60.445C48.0675 60.5956 48.0098 60.7707 48.001 60.9515C47.9922 61.1323 48.0327 61.3121 48.1181 61.4718C48.2035 61.6314 48.3307 61.7648 48.486 61.8579C48.6413 61.9509 48.819 62 49 62H57C57.181 62 57.3587 61.9509 57.514 61.8579C57.6693 61.7648 57.7965 61.6314 57.8819 61.4718C57.9673 61.3121 58.0078 61.1323 57.999 60.9515C57.9902 60.7707 57.9325 60.5956 57.832 60.445L55.832 57.445C55.7407 57.3081 55.6169 57.1958 55.4718 57.1182C55.3266 57.0406 55.1646 57 55 57H54V54H56C57.5913 54 59.1174 53.3679 60.2426 52.2426C61.3679 51.1174 62 49.5913 62 48C62 46.4087 61.3679 44.8826 60.2426 43.7574C59.1174 42.6321 57.5913 42 56 42V42ZM7 25H4V20.444C4.60369 20.8078 5.29517 21 6 21C6.70483 21 7.39631 20.8078 8 20.444V24C8 24.2652 7.89464 24.5196 7.70711 24.7071C7.51957 24.8946 7.26522 25 7 25ZM4 17C4 16.6044 4.1173 16.2178 4.33706 15.8889C4.55682 15.56 4.86918 15.3036 5.23463 15.1522C5.60009 15.0009 6.00222 14.9613 6.39018 15.0384C6.77814 15.1156 7.13451 15.3061 7.41421 15.5858C7.69392 15.8655 7.8844 16.2219 7.96157 16.6098C8.03874 16.9978 7.99913 17.3999 7.84776 17.7654C7.69638 18.1308 7.44004 18.4432 7.11114 18.6629C6.78224 18.8827 6.39556 19 6 19C5.46957 19 4.96086 18.7893 4.58579 18.4142C4.21071 18.0391 4 17.5304 4 17V17ZM24 27.483L19.909 25.728C20.1956 25.4207 20.4318 25.07 20.609 24.689L24 26.586V27.483ZM19 23C19 23.3956 18.8827 23.7822 18.6629 24.1111C18.4432 24.44 18.1308 24.6964 17.7654 24.8478C17.3999 24.9991 16.9978 25.0387 16.6098 24.9616C16.2219 24.8844 15.8655 24.6939 15.5858 24.4142C15.3061 24.1345 15.1156 23.7781 15.0384 23.3902C14.9613 23.0022 15.0009 22.6001 15.1522 22.2346C15.3036 21.8692 15.56 21.5568 15.8889 21.3371C16.2178 21.1173 16.6044 21 17 21C17.5304 21 18.0391 21.2107 18.4142 21.5858C18.7893 21.9609 19 22.4696 19 23ZM14.238 20.12C13.7528 20.5893 13.3949 21.1743 13.198 21.82L10 19.491V16.263L14.238 20.12ZM7 9C7.26522 9 7.51957 9.10536 7.70711 9.29289C7.89464 9.48043 8 9.73478 8 10V13.556C7.39631 13.1922 6.70483 13 6 13C5.29517 13 4.60369 13.1922 4 13.556V9H7ZM16 60H4V39H16V60ZM55.131 60H50.869L51.535 59H54.465L55.131 60ZM46 36H52V42H46V36ZM56 52H18V44H56C57.0609 44 58.0783 44.4214 58.8284 45.1716C59.5786 45.9217 60 46.9391 60 48C60 49.0609 59.5786 50.0783 58.8284 50.8284C58.0783 51.5786 57.0609 52 56 52Z" fill="black"/>
<path d="M29 48C29 47.2089 28.7654 46.4355 28.3259 45.7777C27.8864 45.1199 27.2616 44.6072 26.5307 44.3045C25.7998 44.0017 24.9956 43.9225 24.2196 44.0769C23.4437 44.2312 22.731 44.6122 22.1716 45.1716C21.6122 45.731 21.2312 46.4437 21.0769 47.2196C20.9225 47.9956 21.0017 48.7998 21.3045 49.5307C21.6072 50.2616 22.1199 50.8864 22.7777 51.3259C23.4355 51.7654 24.2089 52 25 52C26.0609 52 27.0783 51.5786 27.8284 50.8284C28.5786 50.0783 29 49.0609 29 48ZM25 50C24.6044 50 24.2178 49.8827 23.8889 49.6629C23.56 49.4432 23.3036 49.1308 23.1522 48.7654C23.0009 48.3999 22.9613 47.9978 23.0384 47.6098C23.1156 47.2219 23.3061 46.8655 23.5858 46.5858C23.8655 46.3061 24.2219 46.1156 24.6098 46.0384C24.9978 45.9613 25.3999 46.0009 25.7654 46.1522C26.1308 46.3036 26.4432 46.56 26.6629 46.8889C26.8827 47.2178 27 47.6044 27 48C27 48.5304 26.7893 49.0391 26.4142 49.4142C26.0391 49.7893 25.5304 50 25 50Z" fill="black"/>
<path d="M57 48C57 47.2089 56.7654 46.4355 56.3259 45.7777C55.8864 45.1199 55.2616 44.6072 54.5307 44.3045C53.7998 44.0017 52.9956 43.9225 52.2196 44.0769C51.4437 44.2312 50.731 44.6122 50.1716 45.1716C49.6122 45.731 49.2312 46.4437 49.0769 47.2196C48.9225 47.9956 49.0017 48.7998 49.3045 49.5307C49.6072 50.2616 50.1199 50.8864 50.7777 51.3259C51.4355 51.7654 52.2089 52 53 52C54.0609 52 55.0783 51.5786 55.8284 50.8284C56.5786 50.0783 57 49.0609 57 48ZM53 50C52.6044 50 52.2178 49.8827 51.8889 49.6629C51.56 49.4432 51.3036 49.1308 51.1522 48.7654C51.0009 48.3999 50.9613 47.9978 51.0384 47.6098C51.1156 47.2219 51.3061 46.8655 51.5858 46.5858C51.8655 46.3061 52.2219 46.1156 52.6098 46.0384C52.9978 45.9613 53.3999 46.0009 53.7654 46.1522C54.1308 46.3036 54.4432 46.56 54.6629 46.8889C54.8827 47.2178 55 47.6044 55 48C55 48.5304 54.7893 49.0391 54.4142 49.4142C54.0391 49.7893 53.5304 50 53 50Z" fill="black"/>
<path d="M43 48C43 47.2089 42.7654 46.4355 42.3259 45.7777C41.8864 45.1199 41.2616 44.6072 40.5307 44.3045C39.7998 44.0017 38.9956 43.9225 38.2196 44.0769C37.4437 44.2312 36.731 44.6122 36.1716 45.1716C35.6122 45.731 35.2312 46.4437 35.0769 47.2196C34.9225 47.9956 35.0017 48.7998 35.3045 49.5307C35.6072 50.2616 36.1199 50.8864 36.7777 51.3259C37.4355 51.7654 38.2089 52 39 52C40.0609 52 41.0783 51.5786 41.8284 50.8284C42.5786 50.0783 43 49.0609 43 48ZM39 50C38.6044 50 38.2178 49.8827 37.8889 49.6629C37.56 49.4432 37.3036 49.1308 37.1522 48.7654C37.0009 48.3999 36.9613 47.9978 37.0384 47.6098C37.1156 47.2219 37.3061 46.8655 37.5858 46.5858C37.8655 46.3061 38.2219 46.1156 38.6098 46.0384C38.9978 45.9613 39.3999 46.0009 39.7654 46.1522C40.1308 46.3036 40.4432 46.56 40.6629 46.8889C40.8827 47.2178 41 47.6044 41 48C41 48.5304 40.7893 49.0391 40.4142 49.4142C40.0391 49.7893 39.5304 50 39 50Z" fill="black"/>
<path d="M26 47H24V49H26V47Z" fill="black"/>
<path d="M40 47H38V49H40V47Z" fill="black"/>
<path d="M54 47H52V49H54V47Z" fill="black"/>
<path d="M39 26H27V28H39V26Z" fill="black"/>
<path d="M6 49H14C14.2652 49 14.5196 48.8946 14.7071 48.7071C14.8946 48.5196 15 48.2652 15 48V42C15 41.7348 14.8946 41.4804 14.7071 41.2929C14.5196 41.1054 14.2652 41 14 41H6C5.73478 41 5.48043 41.1054 5.29289 41.2929C5.10536 41.4804 5 41.7348 5 42V48C5 48.2652 5.10536 48.5196 5.29289 48.7071C5.48043 48.8946 5.73478 49 6 49ZM7 43H13V47H7V43Z" fill="black"/>
<path d="M23.6236 16.1999C24.5177 14.9974 25.0006 13.5388 25.0006 12.0404C25.0006 10.5419 24.5177 9.08333 23.6236 7.88086L22.0156 9.07086C22.6552 9.92861 23.0007 10.9699 23.0007 12.0399C23.0007 13.1098 22.6552 14.1511 22.0156 15.0089L23.6236 16.1999Z" fill="black"/>
<path d="M24.9805 6.36161C26.2863 7.96486 26.9993 9.96936 26.9993 12.0371C26.9993 14.1049 26.2863 16.1094 24.9805 17.7126L26.5325 18.9756C28.1285 17.0156 28.9999 14.5652 28.9999 12.0376C28.9999 9.50998 28.1285 7.05964 26.5325 5.09961L24.9805 6.36161Z" fill="black"/>
<path d="M27.9199 20.4275L29.4459 21.7205C31.7405 19.0157 33 15.584 33 12.037C33 8.49005 31.7405 5.05833 29.4459 2.35352L27.9199 3.64552C29.9084 5.98922 30.9999 8.96292 30.9999 12.0365C30.9999 15.1101 29.9084 18.0838 27.9199 20.4275V20.4275Z" fill="black"/>
<path d="M60 3C60 2.73478 59.8946 2.48043 59.7071 2.29289C59.5196 2.10536 59.2652 2 59 2H41C40.7348 2 40.4804 2.10536 40.2929 2.29289C40.1054 2.48043 40 2.73478 40 3V14H38V16H62V14H60V3ZM42 4H58V14H42V4Z" fill="black"/>
<path d="M9 51H7V53H9V51Z" fill="black"/>
<path d="M9 55H7V57H9V55Z" fill="black"/>
<path d="M13 51H11V53H13V51Z" fill="black"/>
<path d="M13 55H11V57H13V55Z" fill="black"/>
<path d="M54.293 5.29297L50.693 8.89297L47.243 8.02997C47.0754 7.98802 46.8998 7.99019 46.7333 8.03628C46.5668 8.08237 46.4151 8.17081 46.293 8.29297L44.293 10.293L45.707 11.707L47.307 10.107L50.757 10.97C50.9245 11.0119 51.1001 11.0097 51.2666 10.9637C51.4331 10.9176 51.5848 10.8291 51.707 10.707L55.707 6.70697L54.293 5.29297Z" fill="black"/>
</svg>
