<?xml version="1.0" encoding="utf-8"?>
<!-- Generator: Adobe Illustrator 22.0.1, SVG Export Plug-In . SVG Version: 6.00 Build 0)  -->
<svg version="1.1" id="Layer_1" xmlns="http://www.w3.org/2000/svg" xmlns:xlink="http://www.w3.org/1999/xlink" x="0px" y="0px"
	 viewBox="0 0 53 53" style="enable-background:new 0 0 53 53;" xml:space="preserve">
<g>
	<g>
		<g>
			<g>
				<g>
					<g>
						<path d="M39.5991478,49.4748802c-0.0899658,0.3800049-0.3099976,0.710022-0.6400146,0.9299927h-0.0099487
							c-0.2400513,0.1400146-0.5100098,0.2200317-0.7700195,0.2200317c-0.5,0-0.960022-0.25-1.2200317-0.6699829
							l-0.039978-0.0599976c0.0900269-0.1300049,0.1400146-0.2700195,0.1799927-0.4200439
							c0.0700073-0.3699951,0-0.7600098-0.2000122-1.0700073l-2.7399902-4.3199463
							c-0.75-1.1800537-1.9799805-1.9700317-3.3599854-2.1600342l-4.2700195-0.5999756v-4.3300171h2.5v4.3300171
							l4.2700195,0.5999756c1.3800049,0.1900024,2.6099854,0.9799805,3.3599854,2.1600342l2.7399902,4.3199463
							C39.5991478,48.7148705,39.6691551,49.1048851,39.5991478,49.4748802z"/>
						<path d="M38.1787109,51.125c-0.6787109,0-1.2939453-0.3388672-1.6445313-0.9072266
							c-0.1054688-0.1689453-0.1396484-0.4443359-0.0263672-0.6074219c0.0439453-0.0634766,0.0761719-0.1425781,0.1083984-0.2646484
							c0.0390625-0.2128906-0.0078125-0.4697266-0.1367188-0.6689453l-2.7421875-4.3242188
							c-0.6728516-1.0566406-1.7685547-1.7617188-3.0068359-1.9326172l-4.2705078-0.5996094
							c-0.2470703-0.0341797-0.4306641-0.2460938-0.4306641-0.4951172v-4.3300781c0-0.2763672,0.2236328-0.5,0.5-0.5h2.5
							c0.2763672,0,0.5,0.2236328,0.5,0.5v3.8955078l3.8388672,0.5390625
							c1.5292969,0.2109375,2.8828125,1.0810547,3.7128906,2.3867188l2.7402344,4.3212891
							c0.2646484,0.4072266,0.3632813,0.9296875,0.2695313,1.4287109c-0.0009766,0.0087891-0.0029297,0.0166016-0.0048828,0.0244141
							c-0.1220703,0.5087891-0.4228516,0.9453125-0.8486328,1.2304688c-0.0302734,0.0195313-0.0625,0.0361328-0.0966797,0.0498047
							C38.8339844,51.0371094,38.5029297,51.125,38.1787109,51.125z M37.5068359,49.8378906
							c0.3183594,0.3232422,0.7675781,0.3818359,1.1914063,0.1347656c0.0087891-0.0048828,0.0185547-0.0097656,0.0273438-0.0146484
							c0.1913872-0.1435547,0.3242188-0.3447266,0.3847656-0.5878906c0.0429688-0.2460938-0.0039063-0.4980469-0.1308594-0.6933594
							l-2.7421875-4.3242188c-0.6601563-1.0371094-1.7275391-1.7353516-2.9375-1.921875
							c0.5009766,0.3759766,0.9365234,0.8427734,1.28125,1.3857422l2.7402344,4.3212891
							c0.2646484,0.4072266,0.3632813,0.9296875,0.2695313,1.4287109
							C37.5683594,49.6552734,37.5419731,49.7460938,37.5068359,49.8378906z M39.5996094,49.4746094h0.0097656H39.5996094z
							 M27.0292969,40.890625l1.5,0.2109375v-3.6064453h-1.5V40.890625z"/>
					</g>
				</g>
			</g>
		</g>
		<g>
			<g>
				<path d="M49.9191551,35.5448875c0,0.7999878-0.6599731,1.4500122-1.460022,1.4500122h-2.8399658
					c0.7999878,0,1.4599609-0.6500244,1.4599609-1.4500122c0-0.8099976-0.6599731-1.4599609-1.4599609-1.4599609h2.8399658
					C49.259182,34.0849266,49.9191551,34.73489,49.9191551,35.5448875z"/>
				<path d="M48.4589844,37.4951172h-2.8398438c-0.2763672,0-0.5-0.2236328-0.5-0.5s0.2236328-0.5,0.5-0.5
					c0.5292969,0,0.9599609-0.4257813,0.9599609-0.9501953c0-0.5292969-0.4306641-0.9599609-0.9599609-0.9599609
					c-0.2763672,0-0.5-0.2236328-0.5-0.5s0.2236328-0.5,0.5-0.5h2.8398438c1.0810547,0,1.9599609,0.8789063,1.9599609,1.9599609
					C50.4189453,36.6201172,49.5400391,37.4951172,48.4589844,37.4951172z M47.3300781,36.4951172h1.1289063
					c0.5292969,0,0.9599609-0.4257813,0.9599609-0.9501953c0-0.5292969-0.4306641-0.9599609-0.9599609-0.9599609h-1.1318359
					c0.1601563,0.2841797,0.2519531,0.6113281,0.2519531,0.9599609
					C47.5791016,35.8896484,47.4882813,36.2138672,47.3300781,36.4951172z"/>
			</g>
			<g>
				<path d="M49.9191551,3.8349273c0,0.7999876-0.6599731,1.4599607-1.460022,1.4599607h-2.8399658
					c0.7999878,0,1.4599609-0.6599731,1.4599609-1.4599607c0-0.8099976-0.6599731-1.460022-1.4599609-1.460022h2.8399658
					C49.259182,2.3749053,49.9191551,3.0249298,49.9191551,3.8349273z"/>
				<path d="M48.4589844,5.7949219h-2.8398438c-0.2763672,0-0.5-0.2236328-0.5-0.5s0.2236328-0.5,0.5-0.5
					c0.5205078,0,0.9599609-0.4394531,0.9599609-0.9599609c0-0.5292969-0.4306641-0.9599609-0.9599609-0.9599609
					c-0.2763672,0-0.5-0.2236328-0.5-0.5s0.2236328-0.5,0.5-0.5h2.8398438c1.0810547,0,1.9599609,0.8789063,1.9599609,1.9599609
					S49.5400391,5.7949219,48.4589844,5.7949219z M47.3271484,4.7949219h1.1318359
					c0.5205078,0,0.9599609-0.4394531,0.9599609-0.9599609c0-0.5292969-0.4306641-0.9599609-0.9599609-0.9599609h-1.1318359
					c0.1601563,0.2841797,0.2519531,0.6113281,0.2519531,0.9599609S47.4873047,4.5107422,47.3271484,4.7949219z"/>
			</g>
		</g>
		<g>
			<rect x="45.2691307" y="5.294888" width="2.8300171" height="28.7900391"/>
			<path d="M48.0996094,34.5849609h-2.8300781c-0.2763672,0-0.5-0.2236328-0.5-0.5V5.2949219c0-0.2763672,0.2236328-0.5,0.5-0.5
				h2.8300781c0.2763672,0,0.5,0.2236328,0.5,0.5v28.7900391C48.5996094,34.3613281,48.3759766,34.5849609,48.0996094,34.5849609z
				 M45.7695313,33.5849609h1.8300781V5.7949219h-1.8300781V33.5849609z"/>
		</g>
		<g>
			<g>
				<g>
					<g>
						<path d="M35.6787109,51.125c-0.6787109,0-1.2939453-0.3388672-1.6445313-0.9072266l-2.7470703-4.3046875
							c-0.2197266-0.34375-0.5673828-0.5712891-0.953125-0.6220703l-3.3046875-0.4619141v4.3457031
							c0,1.0751953-0.875,1.9501953-1.9501953,1.9501953s-1.9501953-0.875-1.9501953-1.9501953v-4.3457031l-3.3007813,0.4609375
							c-0.3964844,0.0517578-0.7470703,0.2783203-0.9667969,0.6230469l-2.7402344,4.3105469
							c-0.5527344,0.8769531-1.7792969,1.1552734-2.6728516,0.6083984c-0.453125-0.2900391-0.7607422-0.7275391-0.8730469-1.2402344
							C12.4638672,49.0839844,12.5576172,48.5625,12.8378906,48.125l2.7285156-4.3076172
							c0.84375-1.3095703,2.2011719-2.1796875,3.7255688-2.3876953l3.8369312-0.5390625v-3.8955078
							c0-0.2763672,0.2236328-0.5,0.5-0.5s0.5,0.2236328,0.5,0.5v4.3300781c0,0.2490234-0.1835938,0.4609375-0.4306641,0.4951172
							l-4.2695313,0.5996094c-1.2363281,0.1689453-2.3359375,0.875-3.0195313,1.9355469l-2.7275391,4.3066406
							c-0.1386719,0.2148438-0.1835938,0.46875-0.1289063,0.7158203c0.0546875,0.2509766,0.2060547,0.4658203,0.4257813,0.6064453
							c0.421875,0.2568359,1.0332031,0.1220703,1.2978516-0.2958984l2.7412109-4.3125
							c0.3798828-0.5957031,0.9912109-0.9873047,1.6767578-1.0771484l3.8652344-0.5390625
							c0.1445313-0.0195313,0.2871094,0.0224609,0.3974609,0.1181641c0.109375,0.0947266,0.171875,0.2324219,0.171875,0.3769531
							v4.9199219c0,0.5244141,0.4257813,0.9501953,0.9501953,0.9501953s0.9501953-0.4257813,0.9501953-0.9501953v-4.9199219
							c0-0.1445313,0.0625-0.2822266,0.171875-0.3769531c0.1103516-0.0957031,0.2558594-0.1347656,0.3974609-0.1181641
							l3.8701172,0.5400391c0.6757813,0.0898438,1.2832031,0.4824219,1.6621094,1.0761719l2.75,4.3105469
							c0.2578125,0.4160156,0.8134766,0.5810547,1.3173828,0.2861328c0.0087891-0.0048828,0.0185547-0.0097656,0.0273438-0.0146484
							c0.1953125-0.1455078,0.328125-0.3515625,0.3876953-0.5996094c0.0419922-0.2255859-0.0048828-0.4824219-0.1337891-0.6816406
							l-2.7421875-4.3242188c-0.6728516-1.0566406-1.7685547-1.7617188-3.0068359-1.9326172l-4.2705078-0.5996094
							c-0.2470703-0.0341797-0.4306641-0.2460938-0.4306641-0.4951172v-4.3300781c0-0.2763672,0.2236328-0.5,0.5-0.5
							s0.5,0.2236328,0.5,0.5v3.8955078l3.8388672,0.5390625c1.5292969,0.2109375,2.8828125,1.0810547,3.7128906,2.3867188
							l2.7402344,4.3212891c0.2646484,0.4072266,0.3632813,0.9296875,0.2695313,1.4287109
							c-0.1269531,0.5332031-0.4277344,0.9697266-0.8535156,1.2548828c-0.0302734,0.0195313-0.0625,0.0361328-0.0966797,0.0498047
							C36.3339844,51.0371094,36.0029297,51.125,35.6787109,51.125z"/>
					</g>
				</g>
			</g>
		</g>
		<g>
			<g>
				<path d="M45.6210938,37.4951172H4.5410156c-1.0810547,0-1.9599609-0.875-1.9599609-1.9501953
					c0-1.0810547,0.8789063-1.9599609,1.9599609-1.9599609h41.0800781c1.0810547,0,1.9599609,0.8789063,1.9599609,1.9599609
					C47.5810547,36.6201172,46.7021484,37.4951172,45.6210938,37.4951172z M4.5410156,34.5849609
					c-0.5380859,0-0.9599609,0.421875-0.9599609,0.9599609c0,0.5244141,0.4306641,0.9501953,0.9599609,0.9501953h41.0800781
					c0.5292969,0,0.9599609-0.4257813,0.9599609-0.9501953c0-0.5292969-0.4306641-0.9599609-0.9599609-0.9599609H4.5410156z"/>
			</g>
			<g>
				<path d="M45.6210938,5.7949219H4.5410156c-1.0810547,0-1.9599609-0.8789063-1.9599609-1.9599609
					S3.4599609,1.875,4.5410156,1.875h41.0800781c1.0810547,0,1.9599609,0.8789063,1.9599609,1.9599609
					S46.7021484,5.7949219,45.6210938,5.7949219z M4.5410156,2.875c-0.5380859,0-0.9599609,0.421875-0.9599609,0.9599609
					c0,0.5292969,0.4306641,0.9599609,0.9599609,0.9599609h41.0800781c0.5205078,0,0.9599609-0.4394531,0.9599609-0.9599609
					c0-0.5292969-0.4306641-0.9599609-0.9599609-0.9599609H4.5410156z"/>
			</g>
		</g>
		<g>
			<path d="M45.2685547,34.5849609h-40.375c-0.2763672,0-0.5-0.2236328-0.5-0.5V5.2949219c0-0.2763672,0.2236328-0.5,0.5-0.5h40.375
				c0.2763672,0,0.5,0.2236328,0.5,0.5v28.7900391C45.7685547,34.3613281,45.5449219,34.5849609,45.2685547,34.5849609z
				 M5.3935547,33.5849609h39.375V5.7949219h-39.375V33.5849609z"/>
		</g>
		<g>
			<path d="M14.546875,30.5849609H8.8935547c-0.2763672,0-0.5-0.2236328-0.5-0.5s0.2236328-0.5,0.5-0.5h5.6533203
				c0.2763672,0,0.5,0.2236328,0.5,0.5S14.8232422,30.5849609,14.546875,30.5849609z"/>
		</g>
		<g>
			<path d="M14.921875,27.5791016H8.8935547c-0.2763672,0-0.5-0.2236328-0.5-0.5s0.2236328-0.5,0.5-0.5h6.0283203
				c0.2763672,0,0.5,0.2236328,0.5,0.5S15.1982422,27.5791016,14.921875,27.5791016z"/>
		</g>
		<g>
			<path d="M18.671875,27.5791016h-1.875c-0.2763672,0-0.5-0.2236328-0.5-0.5s0.2236328-0.5,0.5-0.5h1.875
				c0.2763672,0,0.5,0.2236328,0.5,0.5S18.9482422,27.5791016,18.671875,27.5791016z"/>
		</g>
		<g>
			<path d="M11.171875,24.5722656H8.8935547c-0.2763672,0-0.5-0.2236328-0.5-0.5s0.2236328-0.5,0.5-0.5h2.2783203
				c0.2763672,0,0.5,0.2236328,0.5,0.5S11.4482422,24.5722656,11.171875,24.5722656z"/>
		</g>
		<g>
			<path d="M18.671875,24.5722656h-5.6386719c-0.2763672,0-0.5-0.2236328-0.5-0.5s0.2236328-0.5,0.5-0.5h5.6386719
				c0.2763672,0,0.5,0.2236328,0.5,0.5S18.9482422,24.5722656,18.671875,24.5722656z"/>
		</g>
		<g>
			<path d="M41.2685547,9.7949219h-16.1875c-0.2763672,0-0.5-0.2236328-0.5-0.5s0.2236328-0.5,0.5-0.5h16.1875
				c0.2763672,0,0.5,0.2236328,0.5,0.5S41.5449219,9.7949219,41.2685547,9.7949219z"/>
		</g>
		<g>
			<g>
				<path d="M40.5595703,30.5849609h-1.5302734c-0.6728516,0-1.2197266-0.5429688-1.2197266-1.2099609V18.5351563
					c0-0.6669922,0.546875-1.2099609,1.2197266-1.2099609h1.5302734c0.6669922,0,1.2099609,0.5429688,1.2099609,1.2099609V29.375
					C41.7695313,30.0419922,41.2265625,30.5849609,40.5595703,30.5849609z M39.0292969,18.3251953
					c-0.1210938,0-0.2197266,0.09375-0.2197266,0.2099609V29.375c0,0.1162109,0.0986328,0.2099609,0.2197266,0.2099609h1.5302734
					c0.1142578,0,0.2099609-0.0957031,0.2099609-0.2099609V18.5351563c0-0.1142578-0.0957031-0.2099609-0.2099609-0.2099609
					H39.0292969z"/>
			</g>
			<g>
				<path d="M24.5195313,30.5849609h-1.5302734c-0.6669922,0-1.2099609-0.5429688-1.2099609-1.2099609v-4.5898438
					c0-0.6669922,0.5429688-1.2099609,1.2099609-1.2099609h1.5302734c0.6669922,0,1.2099609,0.5429688,1.2099609,1.2099609V29.375
					C25.7294922,30.0419922,25.1865234,30.5849609,24.5195313,30.5849609z M22.9892578,24.5751953
					c-0.1142578,0-0.2099609,0.0957031-0.2099609,0.2099609V29.375c0,0.1142578,0.0957031,0.2099609,0.2099609,0.2099609h1.5302734
					c0.1142578,0,0.2099609-0.0957031,0.2099609-0.2099609v-4.5898438c0-0.1142578-0.0957031-0.2099609-0.2099609-0.2099609
					H22.9892578z"/>
			</g>
			<g>
				<path d="M35.2089844,30.5849609h-1.5302734c-0.6669922,0-1.2099609-0.5429688-1.2099609-1.2099609v-2.8300781
					c0-0.6728516,0.5429688-1.2197266,1.2099609-1.2197266h1.5302734c0.6669922,0,1.2099609,0.546875,1.2099609,1.2197266V29.375
					C36.4189453,30.0419922,35.8759766,30.5849609,35.2089844,30.5849609z M33.6787109,26.3251953
					c-0.1162109,0-0.2099609,0.0986328-0.2099609,0.2197266V29.375c0,0.1142578,0.0957031,0.2099609,0.2099609,0.2099609h1.5302734
					c0.1142578,0,0.2099609-0.0957031,0.2099609-0.2099609v-2.8300781c0-0.1210938-0.09375-0.2197266-0.2099609-0.2197266
					H33.6787109z"/>
			</g>
			<g>
				<path d="M29.8691406,30.5849609h-1.5302734c-0.6728516,0-1.2197266-0.5429688-1.2197266-1.2099609v-8.2099609
					c0-0.6728516,0.546875-1.2197266,1.2197266-1.2197266h1.5302734c0.6669922,0,1.2099609,0.546875,1.2099609,1.2197266V29.375
					C31.0791016,30.0419922,30.5361328,30.5849609,29.8691406,30.5849609z M28.3388672,20.9453125
					c-0.1230469,0-0.2197266,0.0966797-0.2197266,0.2197266V29.375c0,0.1162109,0.0986328,0.2099609,0.2197266,0.2099609h1.5302734
					c0.1142578,0,0.2099609-0.0957031,0.2099609-0.2099609v-8.2099609c0-0.1210938-0.09375-0.2197266-0.2099609-0.2197266
					H28.3388672z"/>
			</g>
		</g>
		<g>
			<path d="M35.9228516,13.1347656H25.0810547c-0.2763672,0-0.5-0.2236328-0.5-0.5s0.2236328-0.5,0.5-0.5h10.8417969
				c0.2763672,0,0.5,0.2236328,0.5,0.5S36.1992188,13.1347656,35.9228516,13.1347656z"/>
		</g>
	</g>
	<g>
		<g>
			<path d="M11.6308594,21.328125c-0.1005859,0-0.2001953-0.0302734-0.2841797-0.0888672
				c-1.8486328-1.2763672-2.953125-3.3769531-2.953125-5.6181641c0-3.7636719,3.0625-6.8261719,6.8261719-6.8261719
				c0.2763672,0,0.5,0.2236328,0.5,0.5v6.3261719c0,0.1015625-0.03125,0.2001953-0.0878906,0.2841797l-3.5888672,5.2070313
				c-0.0761719,0.1083984-0.1914063,0.1835938-0.3222656,0.2080078
				C11.6914063,21.3251953,11.6611328,21.328125,11.6308594,21.328125z M14.7197266,9.8164063
				c-2.9794922,0.2539063-5.3261719,2.7607422-5.3261719,5.8046875c0,1.7451172,0.7851563,3.390625,2.1220703,4.4931641
				l3.2041016-4.6484375V9.8164063z"/>
		</g>
		<g>
			<path d="M15.2197266,22.4472656c-1.3896484,0-2.7285156-0.4179688-3.8730469-1.2080078
				c-0.2265625-0.15625-0.2841797-0.4677734-0.1279297-0.6953125l3.5888672-5.2070313
				c0.0957031-0.1376953,0.2568359-0.2070313,0.4238281-0.2158203c0.1689453,0.0039063,0.3242188,0.0927734,0.4130859,0.2363281
				l3.3349609,5.3681641c0.1455078,0.234375,0.0742188,0.5419922-0.1601563,0.6884766
				C17.7333984,22.0898438,16.4892578,22.4472656,15.2197266,22.4472656z M12.3378906,20.6835938
				c1.6650391,0.9511719,3.7910156,1.0097656,5.5175781,0.1269531l-2.6572266-4.2773438L12.3378906,20.6835938z"/>
		</g>
		<g>
			<path d="M21.5458984,16.1210938h-6.3261719c-0.2763672,0-0.5-0.2236328-0.5-0.5V9.2949219c0-0.2763672,0.2236328-0.5,0.5-0.5
				c3.7636719,0,6.8261719,3.0625,6.8261719,6.8261719C22.0458984,15.8974609,21.8222656,16.1210938,21.5458984,16.1210938z
				 M15.7197266,15.1210938h5.3046875c-0.2402344-2.8144531-2.4902344-5.0644531-5.3046875-5.3046875V15.1210938z"/>
		</g>
		<g>
			<path d="M18.5546875,21.4892578c-0.0380859,0-0.0761719-0.0039063-0.1132813-0.0126953
				c-0.1298828-0.0302734-0.2412109-0.1103516-0.3115234-0.2236328l-3.3349609-5.3681641
				c-0.0957031-0.1542969-0.1005859-0.3476563-0.0117188-0.5068359c0.0878906-0.1582031,0.2548828-0.2568359,0.4365234-0.2568359
				h6.3261719c0.2763672,0,0.5,0.2236328,0.5,0.5c0,2.3701172-1.2060547,4.5351563-3.2275391,5.7929688
				C18.7392578,21.4638672,18.6474609,21.4892578,18.5546875,21.4892578z M16.1191406,16.1210938l2.5849609,4.1611328
				c1.3417969-0.9990234,2.1796875-2.5019531,2.3203125-4.1611328H16.1191406z"/>
		</g>
	</g>
</g>
</svg>
