<?xml version="1.0" encoding="UTF-8" standalone="no"?> <svg width="512" height="512" viewBox="0 0 512 512" fill="none" xmlns="http://www.w3.org/2000/svg">
<path d="M496 40C495.993 33.637 493.462 27.5368 488.963 23.0375C484.463 18.5382 478.363 16.0073 472 16H352C345.637 16.0073 339.537 18.5382 335.037 23.0375C330.538 27.5368 328.007 33.637 328 40V160C327.996 165.908 330.18 171.608 334.131 176C330.18 180.392 327.996 186.092 328 192V210.215C326.991 209.368 325.97 208.531 324.927 207.716L315.073 220.321C330.831 232.623 342.355 249.536 348.038 268.702C353.722 287.868 353.28 308.33 346.776 327.233C340.272 346.136 328.029 362.537 311.756 374.147C295.482 385.758 275.991 391.999 256 392C251.052 392.001 246.112 391.623 241.222 390.87L238.778 406.683C244.477 407.56 250.234 408 256 408C282.352 408.023 307.86 398.711 328 381.717V472C327.998 474.121 327.154 476.154 325.654 477.654C324.154 479.154 322.121 479.998 320 480H192C189.879 479.998 187.846 479.154 186.346 477.654C184.846 476.154 184.002 474.121 184 472V371.047L189.539 365.274C175.716 352.012 166.176 334.918 162.147 316.19C158.118 297.462 159.785 277.957 166.932 260.183C174.079 242.41 186.38 227.181 202.252 216.456C218.125 205.731 236.844 200 256 200C258.458 200 260.946 200.094 263.396 200.28L264.605 184.325C261.755 184.109 258.859 184 256 184C238.564 184.029 221.375 188.122 205.797 195.954C190.219 203.786 176.681 215.141 166.257 229.117C155.833 243.094 148.81 259.308 145.746 276.473C142.682 293.637 143.66 311.28 148.604 328H40C33.637 328.007 27.5368 330.538 23.0375 335.037C18.5382 339.537 16.0073 345.637 16 352V472C16.0073 478.363 18.5382 484.463 23.0375 488.963C27.5368 493.462 33.637 495.993 40 496H160C165.908 496.004 171.608 493.82 176 489.869C180.392 493.82 186.092 496.004 192 496H320C325.908 496.004 331.608 493.82 336 489.869C340.392 493.82 346.092 496.004 352 496H472C478.363 495.993 484.463 493.462 488.963 488.963C493.462 484.463 495.993 478.363 496 472V352C496.004 346.092 493.82 340.392 489.869 336C493.82 331.608 496.004 325.908 496 320V192C496.004 186.092 493.82 180.392 489.869 176C493.82 171.608 496.004 165.908 496 160V40ZM112 344H136V392H112V344ZM168 472C167.998 474.121 167.154 476.154 165.654 477.654C164.154 479.154 162.121 479.998 160 480H40C37.879 479.998 35.8456 479.154 34.3458 477.654C32.8461 476.154 32.0024 474.121 32 472V352C32.0024 349.879 32.8461 347.846 34.3458 346.346C35.8456 344.846 37.879 344.002 40 344H96V400C96.0001 402.122 96.843 404.156 98.3433 405.657C99.8435 407.157 101.878 408 104 408H144C146.122 408 148.156 407.157 149.657 405.657C151.157 404.156 152 402.122 152 400V344H154.727C158.331 351.583 162.784 358.732 168 365.31V472ZM424 32H448V80H424V32ZM480 472C479.998 474.121 479.154 476.154 477.654 477.654C476.154 479.154 474.121 479.998 472 480H352C349.879 479.998 347.846 479.154 346.346 477.654C344.846 476.154 344.002 474.121 344 472V365.207C349.168 358.65 353.588 351.537 357.179 344H408V400C408 402.122 408.843 404.156 410.343 405.657C411.844 407.157 413.878 408 416 408H456C458.122 408 460.156 407.157 461.657 405.657C463.157 404.156 464 402.122 464 400V344H472C474.121 344.002 476.154 344.846 477.654 346.346C479.154 347.846 479.998 349.879 480 352V472ZM424 392V344H448V392H424ZM480 320C479.998 322.121 479.154 324.154 477.654 325.654C476.154 327.154 474.121 327.998 472 328H363.334C368.459 310.795 369.378 292.612 366.013 274.978C362.649 257.345 355.099 240.777 344 226.668V192C344.002 189.879 344.846 187.846 346.346 186.346C347.846 184.846 349.879 184.002 352 184H408V240C408 242.122 408.843 244.156 410.343 245.657C411.844 247.157 413.878 248 416 248H456C458.122 248 460.156 247.157 461.657 245.657C463.157 244.156 464 242.122 464 240V184H472C474.121 184.002 476.154 184.846 477.654 186.346C479.154 187.846 479.998 189.879 480 192V320ZM424 232V184H448V232H424ZM480 160C479.998 162.121 479.154 164.154 477.654 165.654C476.154 167.154 474.121 167.998 472 168H352C349.879 167.998 347.846 167.154 346.346 165.654C344.846 164.154 344.002 162.121 344 160V40C344.002 37.879 344.846 35.8456 346.346 34.3458C347.846 32.8461 349.879 32.0024 352 32H408V88C408 90.1217 408.843 92.1565 410.343 93.6567C411.844 95.157 413.878 95.9999 416 96H456C458.122 95.9999 460.156 95.157 461.657 93.6567C463.157 92.1565 464 90.1217 464 88V32H472C474.121 32.0024 476.154 32.8461 477.654 34.3458C479.154 35.8456 479.998 37.879 480 40V160Z" fill="black"/>
<path d="M50.343 245.657C51.8436 247.157 53.8785 248 56.0002 248C58.122 248 60.1569 247.157 61.6575 245.657L140 167.313L166.343 193.657C167.844 195.157 169.879 196 172 196C174.122 196 176.157 195.157 177.657 193.657L272 99.3135L298.343 125.657C299.462 126.776 300.887 127.538 302.439 127.846C303.991 128.155 305.6 127.996 307.061 127.391C308.523 126.785 309.773 125.76 310.652 124.444C311.531 123.129 312 121.582 312 120V24C312 21.8783 311.157 19.8435 309.657 18.3433C308.157 16.843 306.122 16.0001 304 16H208C206.418 16.0002 204.871 16.4695 203.556 17.3486C202.24 18.2277 201.215 19.4771 200.609 20.9388C200.004 22.4006 199.845 24.0091 200.154 25.5609C200.463 27.1128 201.224 28.5383 202.343 29.6572L228.687 56L172 112.687L145.657 86.3428C144.157 84.843 142.122 84.0005 140 84.0005C137.879 84.0005 135.844 84.843 134.343 86.3428L18.343 202.343C16.8428 203.843 16 205.878 16 208C16 210.122 16.8428 212.157 18.343 213.657L50.343 245.657ZM140 103.313L166.343 129.657C167.844 131.157 169.879 132 172 132C174.122 132 176.157 131.157 177.657 129.657L245.657 61.6572C247.158 60.1568 248 58.1218 248 56C248 53.8782 247.158 51.8432 245.657 50.3428L227.314 32H296V100.687L277.657 82.3428C276.157 80.843 274.122 80.0005 272 80.0005C269.879 80.0005 267.844 80.843 266.343 82.3428L172 176.687L145.657 150.343C144.157 148.843 142.122 148 140 148C137.879 148 135.844 148.843 134.343 150.343L56.0002 228.687L35.3137 208L140 103.313Z" fill="black"/>
<path d="M319.299 246.083L305.916 232.701C304.646 231.431 302.984 230.625 301.2 230.414C299.416 230.202 297.612 230.598 296.08 231.537L283.642 239.159L276.628 236.252L273.242 222.135C272.823 220.387 271.828 218.831 270.416 217.718C269.005 216.605 267.26 216 265.463 216H246.537C244.74 216 242.995 216.605 241.584 217.718C240.172 218.831 239.177 220.387 238.758 222.135L235.372 236.252L228.358 239.159L215.92 231.537C214.388 230.599 212.584 230.203 210.8 230.414C209.015 230.625 207.354 231.431 206.083 232.701L192.701 246.084C191.431 247.355 190.625 249.016 190.414 250.8C190.203 252.584 190.598 254.388 191.537 255.92L199.159 268.358L196.252 275.372L182.135 278.758C180.387 279.177 178.831 280.172 177.718 281.584C176.605 282.995 176 284.74 176 286.537V305.463C176 307.26 176.605 309.005 177.718 310.416C178.831 311.828 180.387 312.823 182.135 313.242L196.252 316.628L199.159 323.642L191.537 336.08C190.598 337.612 190.203 339.416 190.414 341.2C190.625 342.985 191.431 344.646 192.701 345.917L206.084 359.299C207.355 360.569 209.016 361.375 210.8 361.586C212.584 361.797 214.388 361.402 215.92 360.463L228.358 352.841L235.372 355.748L238.758 369.865C239.177 371.613 240.172 373.169 241.584 374.282C242.995 375.395 244.74 376 246.537 376H265.463C267.26 376 269.005 375.395 270.416 374.282C271.828 373.169 272.823 371.613 273.242 369.865L276.628 355.748L283.642 352.841L296.08 360.463C297.612 361.402 299.416 361.797 301.2 361.586C302.985 361.375 304.646 360.569 305.917 359.299L319.299 345.916C320.569 344.645 321.375 342.984 321.586 341.2C321.797 339.416 321.402 337.612 320.463 336.08L312.841 323.642L315.748 316.628L329.865 313.242C331.613 312.823 333.169 311.828 334.282 310.416C335.395 309.005 336 307.26 336 305.463V286.537C336 284.74 335.395 282.995 334.282 281.584C333.169 280.172 331.613 279.177 329.865 278.758L315.748 275.372L312.841 268.358L320.463 255.92C321.402 254.388 321.797 252.584 321.586 250.8C321.375 249.015 320.569 247.354 319.299 246.083V246.083ZM320 292.846V299.154L308.053 302.02C306.825 302.314 305.684 302.894 304.724 303.714C303.763 304.534 303.011 305.57 302.527 306.736L296.499 321.283C296.016 322.45 295.815 323.714 295.914 324.973C296.013 326.231 296.409 327.449 297.068 328.525L303.525 339.062L299.062 343.525L288.525 337.068C287.449 336.408 286.231 336.013 284.973 335.914C283.714 335.815 282.449 336.015 281.283 336.499L266.736 342.527C265.57 343.011 264.534 343.763 263.714 344.724C262.894 345.684 262.314 346.825 262.019 348.053L259.154 360H252.846L249.98 348.053C249.686 346.825 249.106 345.684 248.286 344.724C247.466 343.763 246.43 343.011 245.264 342.527L230.717 336.499C229.55 336.016 228.286 335.815 227.027 335.914C225.769 336.013 224.551 336.409 223.475 337.068L212.938 343.525L208.475 339.062L214.932 328.525C215.591 327.449 215.987 326.231 216.086 324.973C216.185 323.714 215.984 322.45 215.501 321.283L209.473 306.736C208.989 305.57 208.237 304.534 207.276 303.714C206.316 302.894 205.175 302.314 203.947 302.019L192 299.154V292.846L203.947 289.98C205.175 289.686 206.316 289.106 207.276 288.286C208.237 287.466 208.989 286.43 209.473 285.264L215.501 270.717C215.984 269.55 216.185 268.286 216.086 267.027C215.987 265.769 215.591 264.551 214.932 263.475L208.475 252.938L212.938 248.475L223.475 254.932C224.551 255.591 225.769 255.986 227.027 256.085C228.286 256.184 229.55 255.984 230.717 255.501L245.264 249.473C246.43 248.989 247.466 248.237 248.286 247.276C249.106 246.316 249.686 245.175 249.981 243.947L252.846 232H259.154L262.02 243.947C262.314 245.175 262.894 246.316 263.714 247.276C264.534 248.237 265.57 248.989 266.736 249.473L281.283 255.501C282.45 255.984 283.714 256.185 284.973 256.086C286.231 255.987 287.449 255.591 288.525 254.932L299.062 248.475L303.525 252.938L297.068 263.475C296.409 264.551 296.013 265.769 295.914 267.027C295.815 268.286 296.016 269.55 296.499 270.717L302.527 285.264C303.011 286.43 303.763 287.466 304.724 288.286C305.684 289.106 306.825 289.686 308.053 289.981L320 292.846Z" fill="black"/>
<path d="M256 264C249.671 264 243.484 265.877 238.222 269.393C232.959 272.909 228.858 277.907 226.436 283.754C224.014 289.601 223.38 296.035 224.615 302.243C225.85 308.45 228.897 314.152 233.373 318.627C237.848 323.103 243.55 326.15 249.757 327.385C255.965 328.62 262.399 327.986 268.246 325.564C274.093 323.142 279.091 319.041 282.607 313.778C286.123 308.516 288 302.329 288 296C287.99 287.516 284.616 279.382 278.617 273.383C272.618 267.384 264.484 264.01 256 264V264ZM256 312C252.836 312 249.742 311.062 247.111 309.304C244.48 307.545 242.429 305.047 241.218 302.123C240.007 299.199 239.69 295.982 240.307 292.879C240.925 289.775 242.449 286.924 244.686 284.686C246.924 282.449 249.775 280.925 252.879 280.307C255.982 279.69 259.199 280.007 262.123 281.218C265.047 282.429 267.545 284.48 269.304 287.111C271.062 289.742 272 292.835 272 296C271.995 300.242 270.308 304.309 267.308 307.308C264.309 310.308 260.242 311.995 256 312Z" fill="black"/>
<path d="M40 80C46.363 80.0073 52.4632 82.5382 56.9625 87.0375C61.4618 91.5368 63.9927 97.637 64 104C64 106.122 64.8429 108.157 66.3431 109.657C67.8434 111.157 69.8783 112 72 112C74.1217 112 76.1566 111.157 77.6569 109.657C79.1571 108.157 80 106.122 80 104C80.0073 97.637 82.5382 91.5368 87.0375 87.0375C91.5368 82.5382 97.637 80.0073 104 80C106.122 80 108.157 79.1571 109.657 77.6569C111.157 76.1566 112 74.1217 112 72C112 69.8783 111.157 67.8434 109.657 66.3431C108.157 64.8429 106.122 64 104 64C97.637 63.9927 91.5368 61.4618 87.0375 56.9625C82.5382 52.4632 80.0073 46.363 80 40C80 37.8783 79.1571 35.8434 77.6569 34.3431C76.1566 32.8429 74.1217 32 72 32C69.8783 32 67.8434 32.8429 66.3431 34.3431C64.8429 35.8434 64 37.8783 64 40C63.9927 46.363 61.4618 52.4632 56.9625 56.9625C52.4632 61.4618 46.363 63.9927 40 64C37.8783 64 35.8434 64.8429 34.3431 66.3431C32.8429 67.8434 32 69.8783 32 72C32 74.1217 32.8429 76.1566 34.3431 77.6569C35.8434 79.1571 37.8783 80 40 80ZM72 63.9746C74.2833 67.0148 76.9852 69.7167 80.0254 72C76.9852 74.2833 74.2833 76.9852 72 80.0254C69.7167 76.9852 67.0148 74.2833 63.9746 72C67.0148 69.7167 69.7167 67.0148 72 63.9746V63.9746Z" fill="black"/>
<path d="M272 128C267.253 128 262.613 129.408 258.666 132.045C254.72 134.682 251.643 138.43 249.827 142.816C248.01 147.201 247.535 152.027 248.461 156.682C249.387 161.338 251.673 165.614 255.029 168.971C258.386 172.327 262.662 174.613 267.318 175.539C271.973 176.465 276.799 175.99 281.184 174.173C285.57 172.357 289.318 169.28 291.955 165.334C294.592 161.387 296 156.747 296 152C295.993 145.637 293.462 139.537 288.963 135.037C284.463 130.538 278.363 128.007 272 128V128ZM272 160C270.418 160 268.871 159.531 267.555 158.652C266.24 157.773 265.214 156.523 264.609 155.061C264.003 153.6 263.845 151.991 264.154 150.439C264.462 148.887 265.224 147.462 266.343 146.343C267.462 145.224 268.887 144.462 270.439 144.154C271.991 143.845 273.6 144.003 275.061 144.609C276.523 145.214 277.773 146.24 278.652 147.555C279.531 148.871 280 150.418 280 152C279.998 154.121 279.154 156.154 277.654 157.654C276.154 159.154 274.121 159.998 272 160V160Z" fill="black"/>
<path d="M96 248C96 245.878 95.1571 243.843 93.6569 242.343C92.1566 240.843 90.1217 240 88 240C85.8783 240 83.8434 240.843 82.3431 242.343C80.8429 243.843 80 245.878 80 248C79.9927 254.363 77.4618 260.463 72.9625 264.963C68.4632 269.462 62.363 271.993 56 272C53.8783 272 51.8434 272.843 50.3431 274.343C48.8429 275.843 48 277.878 48 280C48 282.122 48.8429 284.157 50.3431 285.657C51.8434 287.157 53.8783 288 56 288C62.363 288.007 68.4632 290.538 72.9625 295.037C77.4618 299.537 79.9927 305.637 80 312C80 314.122 80.8429 316.157 82.3431 317.657C83.8434 319.157 85.8783 320 88 320C90.1217 320 92.1566 319.157 93.6569 317.657C95.1571 316.157 96 314.122 96 312C96.0073 305.637 98.5382 299.537 103.037 295.037C107.537 290.538 113.637 288.007 120 288C122.122 288 124.157 287.157 125.657 285.657C127.157 284.157 128 282.122 128 280C128 277.878 127.157 275.843 125.657 274.343C124.157 272.843 122.122 272 120 272C113.637 271.993 107.537 269.462 103.037 264.963C98.5382 260.463 96.0073 254.363 96 248V248ZM88 288.025C85.7167 284.985 83.0148 282.283 79.9746 280C83.0148 277.717 85.7167 275.015 88 271.975C90.2833 275.015 92.9852 277.717 96.0254 280C92.9852 282.283 90.2833 284.985 88 288.025V288.025Z" fill="black"/>
<path d="M204.302 395.378C209.836 398.261 215.602 400.676 221.54 402.597L226.46 387.372C221.376 385.727 216.438 383.659 211.698 381.19L204.302 395.378Z" fill="black"/>
<path d="M278.161 202.569C283.225 203.766 288.182 205.375 292.983 207.381L299.155 192.619C293.546 190.276 287.755 188.396 281.839 186.997L278.161 202.569Z" fill="black"/>
</svg>
