<?xml version="1.0" encoding="iso-8859-1"?>
<!-- Generator: Adobe Illustrator 23.1.1, SVG Export Plug-In . SVG Version: 6.00 Build 0)  -->
<svg version="1.1" id="Layer_1_1_" xmlns="http://www.w3.org/2000/svg" xmlns:xlink="http://www.w3.org/1999/xlink" x="0px" y="0px"
	 viewBox="0 0 64 64" style="enable-background:new 0 0 64 64;" xml:space="preserve">
<path d="M3,62h12c0.553,0,1-0.447,1-1v-6c0-2.154-1.377-3.977-3.29-4.679C13.503,49.435,14,48.279,14,47
	c0-0.101-0.002-0.202-0.008-0.251C13.857,44.086,11.665,42,9,42s-4.857,2.086-4.988,4.697C4.002,46.798,4,46.899,4,47
	c0,1.279,0.497,2.435,1.29,3.321C3.377,51.023,2,52.846,2,55v6C2,61.553,2.447,62,3,62z M9,50c-1.331,0-2.45-0.877-2.841-2.08
	c1.678-1.149,4.003-1.149,5.681,0C11.45,49.123,10.331,50,9,50z M9,44c1.095,0,2.046,0.595,2.571,1.496C10.759,45.173,9.889,45,9,45
	c-0.893,0-1.767,0.175-2.583,0.501C6.938,44.605,7.896,44,9,44z M4,55c0-1.654,1.346-3,3-3h4c1.654,0,3,1.346,3,3v5H4V55z"/>
<path d="M24,55v6c0,0.553,0.447,1,1,1h12c0.553,0,1-0.447,1-1v-6c0-2.154-1.377-3.977-3.29-4.679C35.503,49.435,36,48.279,36,47
	c0-0.101-0.002-0.202-0.008-0.251C35.857,44.086,33.665,42,31,42s-4.857,2.086-4.988,4.697C26.002,46.798,26,46.899,26,47
	c0,1.279,0.497,2.435,1.29,3.321C25.377,51.023,24,52.846,24,55z M31,50c-1.331,0-2.45-0.877-2.841-2.08
	c1.678-1.149,4.003-1.149,5.681,0C33.45,49.123,32.331,50,31,50z M31,44c1.095,0,2.046,0.595,2.571,1.496
	C32.759,45.173,31.889,45,31,45c-0.893,0-1.767,0.175-2.583,0.501C28.938,44.605,29.896,44,31,44z M26,55c0-1.654,1.346-3,3-3h4
	c1.654,0,3,1.346,3,3v5H26V55z"/>
<path d="M58.288,47.189C59.345,46.107,60,44.629,60,43c0-0.118-0.002-0.237-0.01-0.3C59.829,39.504,57.198,37,54,37
	s-5.829,2.504-5.985,5.645C48.002,42.763,48,42.882,48,43c0,1.629,0.655,3.107,1.712,4.189C47.582,47.761,46,49.691,46,52v9
	c0,0.553,0.447,1,1,1h14c0.553,0,1-0.447,1-1v-9C62,49.691,60.418,47.761,58.288,47.189z M50.106,43.885
	C51.044,42.702,52.47,42,54,42s2.956,0.702,3.894,1.885C57.489,45.665,55.901,47,54,47S50.511,45.665,50.106,43.885z M54,39
	c1.408,0,2.639,0.736,3.353,1.86C56.34,40.307,55.193,40,54,40c-1.198,0-2.35,0.31-3.366,0.868C51.344,39.747,52.582,39,54,39z
	 M60,60H48v-8c0-1.654,1.346-3,3-3h6c1.654,0,3,1.346,3,3V60z"/>
<path d="M54.151,12.359l-4.31-0.659l-1.937-4.125C47.74,7.224,47.388,7,47,7s-0.74,0.224-0.905,0.575L44.158,11.7l-4.31,0.659
	c-0.37,0.057-0.678,0.315-0.797,0.671s-0.029,0.747,0.232,1.016l3.147,3.226l-0.745,4.567c-0.062,0.378,0.099,0.758,0.411,0.979
	c0.312,0.22,0.726,0.244,1.06,0.058L47,20.751l3.843,2.124C50.993,22.959,51.16,23,51.326,23c0.202,0,0.404-0.062,0.576-0.183
	c0.312-0.221,0.473-0.601,0.411-0.979l-0.745-4.567l3.147-3.226c0.262-0.269,0.352-0.66,0.232-1.016S54.521,12.416,54.151,12.359z
	 M49.784,16.236c-0.222,0.227-0.322,0.546-0.271,0.859l0.495,3.033l-2.524-1.396c-0.15-0.083-0.316-0.125-0.483-0.125
	s-0.333,0.042-0.483,0.125l-2.524,1.396l0.495-3.033c0.051-0.313-0.05-0.633-0.271-0.859l-2.141-2.194l2.913-0.445
	c0.329-0.05,0.612-0.262,0.754-0.563L47,10.354l1.258,2.68c0.142,0.302,0.425,0.514,0.754,0.563l2.913,0.445L49.784,16.236z"/>
<path d="M27.65,9.241c-0.296-0.255-0.713-0.312-1.068-0.149C26.228,9.255,26,9.609,26,10v2H15c-0.553,0-1,0.447-1,1v6
	c0,0.553,0.447,1,1,1h11v2c0,0.391,0.228,0.745,0.582,0.908C26.716,22.97,26.858,23,27,23c0.234,0,0.466-0.082,0.65-0.241l7-6
	C34.872,16.569,35,16.292,35,16s-0.128-0.569-0.35-0.759L27.65,9.241z M28,19.826V19c0-0.553-0.447-1-1-1H16v-4h11
	c0.553,0,1-0.447,1-1v-0.826L32.464,16L28,19.826z"/>
<rect x="18" y="56" width="4" height="2"/>
<rect x="40" y="56" width="4" height="2"/>
<path d="M59,2H10C8.346,2,7,3.346,7,5v21c0,1.654,1.346,3,3,3h36.531l4.7,5.641C51.425,34.871,51.708,35,52,35
	c0.087,0,0.175-0.012,0.262-0.035c0.377-0.102,0.66-0.415,0.725-0.801L53.847,29H59c1.654,0,3-1.346,3-3V5C62,3.346,60.654,2,59,2z
	 M60,26c0,0.552-0.448,1-1,1h-6c-0.489,0-0.906,0.354-0.986,0.836l-0.642,3.849l-3.604-4.325C47.578,27.132,47.297,27,47,27H10
	c-0.552,0-1-0.448-1-1V5c0-0.552,0.448-1,1-1h49c0.552,0,1,0.448,1,1V26z"/>
</svg>
