<?xml version="1.0" encoding="UTF-8" standalone="no"?> <svg width="64" height="64" viewBox="0 0 64 64" fill="none" xmlns="http://www.w3.org/2000/svg">
<path d="M17 21H15V23H17V21Z" fill="black"/>
<path d="M23 21H21V23H23V21Z" fill="black"/>
<path d="M62.6 37.49C62.6711 37.0604 62.6479 36.6205 62.5319 36.2008C62.4159 35.781 62.2099 35.3916 61.9282 35.0595C61.6465 34.7274 61.296 34.4606 60.9008 34.2777C60.5057 34.0947 60.0754 34 59.64 34H43.54C42.5937 33.9984 41.6777 34.3336 40.9558 34.9455C40.234 35.5574 39.7534 36.4062 39.6 37.34L37.82 48H33.7L30.81 40.05C30.4844 39.1693 29.987 38.3622 29.3467 37.6755C28.7063 36.9888 27.9358 36.4362 27.08 36.05L21 33.35V32.47C22.753 31.8516 24.2712 30.7051 25.3457 29.1883C26.4202 27.6714 26.9982 25.8589 27 24V11C27 10.7348 26.8946 10.4804 26.7071 10.2929C26.5196 10.1054 26.2652 10 26 10H14C12.6739 10 11.4021 10.5268 10.4645 11.4645C9.52678 12.4021 9 13.6739 9 15V19.05C8.14981 19.1695 7.37375 19.599 6.82088 20.2558C6.268 20.9127 5.97729 21.7506 6.00457 22.6087C6.03185 23.4669 6.3752 24.2846 6.96868 24.905C7.56217 25.5254 8.36393 25.9047 9.22 25.97C9.73654 28.2192 11.0875 30.1885 13 31.48V33.3L7.93 35.15C6.19291 35.7782 4.69162 36.9265 3.63052 38.4385C2.56942 39.9505 2.00008 41.7528 2 43.6V49C2.00303 50.0862 2.36516 51.141 3.03 52H3C2.73478 52 2.48043 52.1054 2.29289 52.2929C2.10536 52.4804 2 52.7348 2 53V57C2 57.2652 2.10536 57.5196 2.29289 57.7071C2.48043 57.8946 2.73478 58 3 58H5V61C5 61.2652 5.10536 61.5196 5.29289 61.7071C5.48043 61.8946 5.73478 62 6 62H58C58.2652 62 58.5196 61.8946 58.7071 61.7071C58.8946 61.5196 59 61.2652 59 61V58H61C61.2652 58 61.5196 57.8946 61.7071 57.7071C61.8946 57.5196 62 57.2652 62 57V53C62 52.7348 61.8946 52.4804 61.7071 52.2929C61.5196 52.1054 61.2652 52 61 52H60.13C60.1943 51.8361 60.238 51.6647 60.26 51.49L62.6 37.49ZM9 23.91C8.70772 23.8076 8.45448 23.6169 8.27531 23.3643C8.09614 23.1117 7.9999 22.8097 7.9999 22.5C7.9999 22.1903 8.09614 21.8883 8.27531 21.6357C8.45448 21.3831 8.70772 21.1924 9 21.09V23.91ZM41.57 37.67C41.6459 37.2027 41.886 36.7779 42.2471 36.4718C42.6082 36.1657 43.0666 35.9984 43.54 36H43.82L41.15 52H39.18L41.57 37.67ZM37.49 50L37.15 52H30C29.7348 52 29.4804 51.8946 29.2929 51.7071C29.1054 51.5196 29 51.2652 29 51V50H37.49ZM11 15C11.0024 14.2051 11.3192 13.4434 11.8813 12.8813C12.4434 12.3192 13.2051 12.0024 14 12H25V15.21C24.41 15.3 23.87 15.41 23.35 15.51C21.9216 15.8277 20.4633 15.9919 19 16C18.095 16.0502 17.1902 15.8999 16.35 15.56C15.2845 15.142 14.1435 14.9512 13 15C12.7348 15 12.4804 15.1054 12.2929 15.2929C12.1054 15.4804 12 15.7348 12 16V18C12 18.2652 11.8946 18.5196 11.7071 18.7071C11.5196 18.8946 11.2652 19 11 19V15ZM11 24V21C11.7949 20.9976 12.5566 20.6808 13.1187 20.1187C13.6808 19.5566 13.9976 18.7949 14 18V17.04C14.5681 17.0824 15.1255 17.2176 15.65 17.44C16.7155 17.858 17.8565 18.0488 19 18C20.591 17.9923 22.1767 17.8146 23.73 17.47C24.14 17.39 24.56 17.31 25 17.23V24C25 25.8565 24.2625 27.637 22.9497 28.9497C21.637 30.2625 19.8565 31 18 31C16.1435 31 14.363 30.2625 13.0503 28.9497C11.7375 27.637 11 25.8565 11 24ZM19 32.94V34C19 34.5304 18.7893 35.0391 18.4142 35.4142C18.0391 35.7893 17.5304 36 17 36C16.4696 36 15.9609 35.7893 15.5858 35.4142C15.2107 35.0391 15 34.5304 15 34V32.47C15.9616 32.8196 16.9768 32.999 18 33C18.3342 33.0002 18.6682 32.9802 19 32.94ZM4 43.6C4.00019 42.1639 4.44284 40.7627 5.26771 39.5872C6.09258 38.4116 7.25961 37.5187 8.61 37.03L13.25 35.34C13.521 36.1106 14.0226 36.7792 14.6867 37.2549C15.3508 37.7307 16.1451 37.9905 16.962 37.9993C17.7788 38.008 18.5786 37.7652 19.2527 37.3037C19.9268 36.8423 20.4425 36.1846 20.73 35.42L26.26 37.88C26.8743 38.153 27.4273 38.547 27.886 39.0383C28.3447 39.5297 28.6998 40.1084 28.93 40.74L31.57 48H28.08L25.93 42.63C25.8516 42.4429 25.7195 42.2832 25.5504 42.1711C25.3814 42.059 25.1829 41.9994 24.98 42C24.7148 42 24.4604 42.1054 24.2729 42.2929C24.0854 42.4804 23.98 42.7348 23.98 43V52H20C19.9973 51.1207 19.7618 50.2577 19.3174 49.4989C18.8731 48.7401 18.2356 48.1125 17.47 47.68L16.99 43.88L15.01 44.12L15.37 47.04C15.25 47.03 15.13 47 15 47H9V42H7V48C7 48.2652 7.10536 48.5196 7.29289 48.7071C7.48043 48.8946 7.73478 49 8 49H13V52H7C6.20508 51.9976 5.4434 51.6808 4.8813 51.1187C4.31921 50.5566 4.00237 49.7949 4 49V43.6ZM27.18 52H25.98V48.14L27 50.69V51C27.0027 51.3411 27.0636 51.6793 27.18 52ZM18 52H15V49C15.7949 49.0024 16.5566 49.3192 17.1187 49.8813C17.6808 50.4434 17.9976 51.2051 18 52ZM57 60H7V58H57V60ZM60 56H4V54H60V56ZM58.29 51.16C58.2543 51.3942 58.1358 51.6078 57.9559 51.7619C57.7761 51.9161 57.5469 52.0005 57.31 52H43.18L45.85 36H59.64C59.7851 35.9996 59.9286 36.0307 60.0604 36.0913C60.1922 36.1519 60.3093 36.2405 60.4035 36.3508C60.4977 36.4612 60.5668 36.5907 60.6059 36.7305C60.645 36.8702 60.6532 37.0168 60.63 37.16L58.29 51.16Z" fill="black"/>
<path d="M52 41C51.4067 41 50.8266 41.1759 50.3333 41.5056C49.8399 41.8352 49.4554 42.3038 49.2284 42.852C49.0013 43.4001 48.9419 44.0033 49.0576 44.5853C49.1734 45.1672 49.4591 45.7018 49.8787 46.1213C50.2982 46.5409 50.8328 46.8266 51.4147 46.9424C51.9967 47.0581 52.5999 46.9987 53.148 46.7716C53.6962 46.5446 54.1648 46.1601 54.4944 45.6667C54.8241 45.1734 55 44.5933 55 44C55 43.2044 54.6839 42.4413 54.1213 41.8787C53.5587 41.3161 52.7957 41 52 41ZM52 45C51.8022 45 51.6089 44.9414 51.4444 44.8315C51.28 44.7216 51.1518 44.5654 51.0761 44.3827C51.0004 44.2 50.9806 43.9989 51.0192 43.8049C51.0578 43.6109 51.153 43.4327 51.2929 43.2929C51.4327 43.153 51.6109 43.0578 51.8049 43.0192C51.9989 42.9806 52.2 43.0004 52.3827 43.0761C52.5654 43.1518 52.7216 43.28 52.8315 43.4444C52.9414 43.6089 53 43.8022 53 44C53 44.2652 52.8946 44.5196 52.7071 44.7071C52.5196 44.8946 52.2652 45 52 45Z" fill="black"/>
<path d="M47 28C49.1756 28 51.3023 27.3549 53.1113 26.1462C54.9202 24.9375 56.3301 23.2195 57.1627 21.2095C57.9952 19.1995 58.2131 16.9878 57.7886 14.854C57.3642 12.7202 56.3166 10.7602 54.7782 9.22183C53.2398 7.68345 51.2798 6.6358 49.146 6.21137C47.0122 5.78693 44.8005 6.00477 42.7905 6.83733C40.7805 7.66989 39.0625 9.07979 37.8538 10.8887C36.6451 12.6977 36 14.8244 36 17C36.0034 19.9163 37.1635 22.7122 39.2256 24.7744C41.2878 26.8365 44.0837 27.9966 47 28ZM38.059 16C38.2476 14.3124 38.9121 12.7133 39.975 11.389L41.343 12.757L42.757 11.343L41.389 9.97501C42.7133 8.91213 44.3124 8.24763 46 8.05901V10H48V8.05901C49.6876 8.24763 51.2867 8.91213 52.611 9.97501L51.243 11.343L52.657 12.757L54.025 11.389C55.0879 12.7133 55.7524 14.3124 55.941 16H54V18H55.941C55.7524 19.6876 55.0879 21.2867 54.025 22.611L52.657 21.243L51.243 22.657L52.611 24.025C51.2867 25.0879 49.6876 25.7524 48 25.941V24H46V25.941C44.3124 25.7524 42.7133 25.0879 41.389 24.025L42.757 22.657L41.343 21.243L39.975 22.611C38.9121 21.2867 38.2476 19.6876 38.059 18H40V16H38.059Z" fill="black"/>
<path d="M47.707 17.707C47.8945 17.5195 47.9999 17.2652 48 17V12H46V16.586L44.293 18.293L45.707 19.707L47.707 17.707Z" fill="black"/>
<path d="M47 32C49.9667 32 52.8668 31.1203 55.3336 29.472C57.8003 27.8238 59.7229 25.4811 60.8582 22.7403C61.9935 19.9994 62.2906 16.9834 61.7118 14.0737C61.133 11.1639 59.7044 8.49119 57.6066 6.3934C55.5088 4.29562 52.8361 2.86701 49.9264 2.28823C47.0166 1.70945 44.0006 2.0065 41.2598 3.14181C38.5189 4.27713 36.1762 6.19972 34.528 8.66645C32.8797 11.1332 32 14.0333 32 17C32.0045 20.9769 33.5863 24.7896 36.3984 27.6016C39.2104 30.4137 43.0231 31.9955 47 32ZM47 4.00001C49.5712 4.00001 52.0846 4.76244 54.2224 6.1909C56.3603 7.61936 58.0265 9.64968 59.0104 12.0251C59.9944 14.4006 60.2518 17.0144 59.7502 19.5362C59.2486 22.0579 58.0105 24.3743 56.1924 26.1924C54.3743 28.0105 52.0579 29.2486 49.5362 29.7502C47.0144 30.2518 44.4006 29.9944 42.0251 29.0104C39.6497 28.0265 37.6194 26.3603 36.1909 24.2224C34.7624 22.0846 34 19.5712 34 17C34.004 13.5534 35.3749 10.2491 37.812 7.812C40.2491 5.37489 43.5534 4.00398 47 4.00001Z" fill="black"/>
</svg>
