<?xml version="1.0" encoding="UTF-8" standalone="no"?> <svg id="Layer_1" data-name="Layer 1" xmlns="http://www.w3.org/2000/svg" viewBox="0 0 128 128"><defs><style>.cls-1{fill:#1d75b8;}.cls-2{fill:#2d3e50;}</style></defs><title>v</title><path class="cls-1" d="M99.356,64.34408l-24.94212,5.47V98.33345a18.418,18.418,0,0,0,4.98451,12.62464A78.24173,78.24173,0,0,0,99.356,126.2682a78.07152,78.07152,0,0,0,19.9576-15.31011A18.37234,18.37234,0,0,0,124.298,98.33345V69.81407Z"/><path class="cls-2" d="M30.3334,24.40882a11.439,11.439,0,0,0,22.46017,0l1.75033-8.99966A12.05328,12.05328,0,0,0,42.60124,1.7318H40.52573A12.05322,12.05322,0,0,0,28.58307,15.40915Z"/><path class="cls-2" d="M77.39249,58.45281l.94687.12069a3.65333,3.65333,0,0,0,.77983,0L97.686,56.51255A5.39727,5.39727,0,0,0,96.9155,45.753l-17.48994.38065-12.969-3.94545a4.36817,4.36817,0,0,0-1.476-.59415c-.38994-.08352-.86341-.17639-1.40181-.28778l-1.931-.58486-.67767-.20421h-.00929a8.15882,8.15882,0,0,0-1.3554-.27849c-.20421-.02788-.40847-.03717-.622-.04646-.85406-.1114-1.71747-.22279-2.58082-.3249-1.9495-.38989-3.63909-.69626-4.38175-.79836a2.54143,2.54143,0,0,0-1.00263.07423l-.2692-.09281-.20426.20421H50.5355L41.772,48.02749l-.20426-.20421v-.065l-.03711.02782-.03717-.02782v.065l-.20421.20421-.919-.92834L37.548,44.2863l-5.23581-5.23586-.26926.09281a2.60241,2.60241,0,0,0-1.01186-.07423c-1.90315.25991-9.99826,1.91238-12.95039,2.52506a4.27909,4.27909,0,0,0-2.09806,1.06762l-.16709.16709a7.47911,7.47911,0,0,0-1.10473,1.541L7.56256,57.59869l-.90046,1.66177L4.64755,62.98312l-.3249.60339A5.32789,5.32789,0,0,0,4.267,68.4696l.04641.09281L14.03313,87.807a5.03994,5.03994,0,0,0,1.10473,1.44821,4.96947,4.96947,0,0,0,5.23581.90046,5.17121,5.17121,0,0,0,.70555-.3806v16.16241a20.3307,20.3307,0,1,0,40.66138,0V55.35212l14.04582,2.785ZM21.302,79.554l-.22279-.52916L17.26374,69.9364l-1.28112-3.06357L21.302,59.81745Z"/></svg>