<?xml version="1.0" encoding="UTF-8" standalone="no"?> <svg width="512" height="512" viewBox="0 0 512 512" fill="none" xmlns="http://www.w3.org/2000/svg">
<path d="M136 360V320C136 288.174 148.643 257.651 171.147 235.147C193.651 212.643 224.174 200 256 200H256C287.826 200 318.349 212.643 340.853 235.147C363.357 257.651 376 288.174 376 320V360H488V328C488 199.87 384.13 96 256 96H256C127.87 96 24 199.87 24 328V360H136Z" fill="#269DC2"/>
<path d="M256 168C295.765 168 328 135.765 328 96C328 56.2355 295.765 24 256 24C216.235 24 184 56.2355 184 96C184 135.765 216.235 168 256 168Z" fill="#8BB276"/>
<path d="M193.352 283.971L179.461 276.03C187.114 262.672 198.155 251.568 211.469 243.837C224.783 236.107 239.9 232.024 255.296 232H256.704C268.375 231.962 279.934 234.282 290.686 238.822C301.438 243.362 311.161 250.029 319.272 258.421L307.806 269.579C301.181 262.725 293.24 257.28 284.458 253.572C275.677 249.864 266.236 247.969 256.704 248H255.296C242.72 248.021 230.371 251.357 219.496 257.672C208.621 263.987 199.603 273.058 193.352 283.971V283.971Z" fill="#62B8D3"/>
<path d="M184 319.295H168C167.993 310.605 169.284 301.962 171.83 293.652L187.125 298.347C185.047 305.135 183.994 312.196 184 319.295V319.295Z" fill="#62B8D3"/>
<path d="M136 392H104V472H136V392Z" fill="#008CB7"/>
<path d="M88.0005 408L76.6867 396.686C75.201 395.201 73.4372 394.022 71.496 393.218C69.5547 392.414 67.4742 392 65.373 392H46.125C42.2253 392 38.4598 393.424 35.5362 396.005C32.6126 398.586 30.7323 402.146 30.2486 406.015L26.2486 438.015C25.9672 440.267 26.1677 442.552 26.8369 444.72C27.5062 446.887 28.6287 448.888 30.1301 450.589C31.6316 452.29 33.4775 453.652 35.5455 454.585C37.6135 455.517 39.8563 456 42.125 456H56.0005L51.5781 464.844C50.3584 467.284 49.7825 469.995 49.9051 472.719C50.0277 475.444 50.8448 478.092 52.2786 480.412C53.7125 482.732 55.7155 484.647 58.0976 485.975C60.4797 487.303 63.1618 488 65.8891 488H72.0005L88.0005 456H104V408H88.0005Z" fill="#FFCBB1"/>
<path d="M432 392L416 424H384L408 448L400 488L432 464L464 488L456 448L480 424H448L432 392Z" fill="#F4AA8E"/>
<path d="M310.284 48.7305L248.637 115.516L230.4 91.2005L217.6 100.8L241.6 132.8C242.304 133.739 243.205 134.511 244.241 135.062C245.277 135.613 246.421 135.93 247.593 135.99C247.729 135.997 247.865 136 248.001 136C249.105 136 250.198 135.771 251.209 135.328C252.221 134.885 253.13 134.238 253.879 133.427L319.594 62.2352C317.014 57.3943 313.891 52.8634 310.284 48.7305V48.7305Z" fill="#CCDCC2"/>
<path d="M97.7163 158.402C93.8167 162.043 90.0454 165.815 86.4023 169.716L162.042 245.356C165.37 241.173 168.972 237.215 172.824 233.51L97.7163 158.402Z" fill="#00779C"/>
<path d="M414.283 158.402L339.176 233.51C343.028 237.215 346.63 241.173 349.957 245.356L425.597 169.716C421.956 165.817 418.185 162.045 414.283 158.402Z" fill="#00779C"/>
<path d="M317.139 367.116L488 139.194L462.396 120L438.403 152.005L406.398 128.013L387.203 153.617L419.209 177.61L400.015 203.214L380.811 188.818L361.617 214.423L380.82 228.818L291.534 347.922C288.122 352.425 283.588 355.954 278.385 358.156C273.181 360.357 267.491 361.155 261.883 360.468C247.886 358.836 233.742 361.869 221.645 369.097C209.548 376.326 200.175 387.344 194.98 400.444C189.785 413.543 189.059 427.991 192.914 441.545C196.769 455.099 204.99 467.002 216.301 475.407C227.612 483.812 241.381 488.248 255.471 488.028C269.561 487.808 283.185 482.944 294.228 474.19C305.271 465.437 313.117 453.283 316.547 439.615C319.977 425.947 318.8 411.529 313.199 398.598C311.029 393.468 310.25 387.855 310.942 382.328C311.634 376.801 313.771 371.554 317.139 367.116ZM280.068 443.241C276.272 448.305 271.059 452.13 265.09 454.231C259.12 456.333 252.661 456.617 246.529 455.047C240.398 453.478 234.87 450.126 230.644 445.414C226.417 440.703 223.683 434.844 222.787 428.579C221.89 422.314 222.872 415.924 225.607 410.216C228.343 404.509 232.709 399.741 238.154 396.515C243.6 393.289 249.879 391.751 256.199 392.094C262.518 392.437 268.594 394.646 273.659 398.442C277.021 400.963 279.854 404.121 281.996 407.737C284.138 411.352 285.546 415.354 286.142 419.514C286.737 423.674 286.507 427.911 285.465 431.982C284.423 436.053 282.589 439.879 280.068 443.241V443.241Z" fill="#9CBD8A"/>
</svg>
