<?xml version="1.0" encoding="utf-8"?>
<!-- Generator: Adobe Illustrator 23.0.2, SVG Export Plug-In . SVG Version: 6.00 Build 0)  -->
<svg version="1.1" id="Layer_1" xmlns="http://www.w3.org/2000/svg" xmlns:xlink="http://www.w3.org/1999/xlink" x="0px" y="0px"
	 viewBox="0 0 282.6509 237.5225" enable-background="new 0 0 282.6509 237.5225" xml:space="preserve">
<g>
	<path d="M96.9048,19.1368c1.3535-4.1172,5.1699-6.8819,9.498-6.8819c1.0606,0,2.1114,0.169,3.127,0.502
		c0.708,0.2334,1.3828,0.4648,2.0674,0.6963c-3.6602-7.4688-11.335-12.6143-20.2139-12.6143c-12.4277,0-22.5,10.0742-22.5,22.5
		c0,12.4277,10.0723,22.5,22.5,22.5c8.3828,0,15.6914-4.5879,19.5615-11.3877c-2.2441-0.8486-4.7734-1.7461-7.6611-2.6904
		C98.0435,30.0381,95.1841,24.375,96.9048,19.1368z"/>
	<path d="M139.7388,90.5928h2h7.8105c2.1885-2.5703,4.5762-4.8945,7.1211-6.9795c8.6172-7.0732,18.9307-11.4238,27.0635-13.8838
		c1.7188-0.5224,3.3291-0.958,4.8096-1.3261v43.9716c6.7168,0.8125,15.5449,1.5508,25.5293,1.5508
		c9.6601,0,19.6552-0.751,28.5625-1.1953v-5.9922c-1.3106,0.9883-2.6807,1.9912-4.1172,3.0117
		c-1.7012,1.2071-3.6953,1.8428-5.7715,1.8428c-3.2422,0-6.2969-1.5781-8.1699-4.2207c-1.5449-2.1836-2.1465-4.834-1.6953-7.4678
		c0.4492-2.6338,1.9004-4.9345,4.0781-6.4765c8.6025-6.0596,13.2422-10.666,15.6758-13.5694V69.2266
		c1.9941,0.8574,3.6963,1.9668,4.5175,2.8408c0.8331,0.9473,0.8526,1.1416,0.8995,1.7901v0.0009
		c0.0048,0.5635-0.1973,1.9434-1.71,4.3496l0,0c-2.3486,3.7793-7.96,9.6192-18.2246,16.8536
		c-3.6074,2.5507-4.4629,7.5449-1.9102,11.1523c1.5606,2.2021,4.0293,3.3779,6.5371,3.3779c1.5977,0,3.2129-0.4765,4.6172-1.4707
		c11.208-7.9658,18.252-14.7168,22.4883-21.3418c0.0078-0.0107,0.0166-0.0195,0.0235-0.0312
		c1.2929-2.0459,2.3154-4.1279,3.0273-6.2324c0.7441-2.1983,1.1494-4.4219,1.1504-6.6582c0.0498-5.4903-2.6104-10.2452-5.71-13.2315
		c-4.7002-4.5557-10.2138-6.6133-14.6103-8.0049c-2.7354-0.8291-5.0703-1.3134-6.5176-1.5722
		c-0.7285-0.2276-1.5029-0.3506-2.3066-0.3506h-1.7891l-12.6504,21.0605l-3.0352-11.7011l5.7803-9.3594h-15.25l5.7803,9.3594
		l-3.0332,11.7011l-12.6504-21.0605h-1.7871c-0.6768,0-1.3301,0.0957-1.9561,0.2597c-3.5976,0.5098-13.6923,2.2461-25.4423,7.1192
		c-7.2081,3-15.0518,7.1953-22.337,13.1523c-7.2763,5.9492-13.9902,13.7168-18.6269,23.6387
		c-1.8721,4.002-0.1455,8.7656,3.8574,10.6377c1.0957,0.5117,2.249,0.7539,3.3838,0.7539c1.6465,0.001,3.2461-0.5254,4.5879-1.4639
		V92.5938V90.5928z M225.9068,74.7588h11.5v3.5h-11.5V74.7588z M215.5884,70.5088c1.5176,0,2.75,1.2315,2.75,2.75
		c0,1.5186-1.2324,2.75-2.75,2.75c-1.5195,0-2.75-1.2314-2.75-2.75C212.8384,71.7403,214.0689,70.5088,215.5884,70.5088z
		 M215.5884,80.2588c1.5176,0,2.75,1.2315,2.75,2.75c0,1.5186-1.2324,2.75-2.75,2.75c-1.5195,0-2.75-1.2314-2.75-2.75
		C212.8384,81.4903,214.0689,80.2588,215.5884,80.2588z"/>
	<path d="M188.5435,114.3897v6.8086h54.0918v-6.4668c-8.8477,0.4443-18.8369,1.1924-28.5625,1.1943
		C204.1079,115.9239,195.2944,115.1983,188.5435,114.3897z"/>
	<rect y="125.3575" width="52.8364" height="8.6669"/>
	<rect x="110.9282" y="125.3575" width="171.7227" height="8.6669"/>
	<polygon points="130.2778,159.4297 134.9097,159.4297 134.9097,183.5205 142.7417,183.5205 142.7417,159.4297 147.3921,159.4297 
		147.3921,153.4024 130.2778,153.4024 	"/>
	<polygon points="157.0103,170.8702 161.9028,170.8702 161.9028,165.1407 157.0103,165.1407 157.0103,159.4297 162.2378,159.4297 
		162.2378,153.4024 149.1782,153.4024 149.1782,183.5205 162.7583,183.5205 162.7583,177.4932 157.0103,177.4932 	"/>
	<path d="M174.3091,164.3067c-1.2158-0.7188-1.9541-1.333-2.2129-1.8418c-0.2725-0.5088-0.4082-1.2656-0.4082-2.2705
		c0-0.7823,0.1211-1.3653,0.3623-1.75c0.2422-0.3848,0.5986-0.5772,1.0703-0.5772c0.4336,0,0.7442,0.1426,0.9297,0.4278
		c0.1865,0.2851,0.2793,0.9482,0.2793,1.9902v2.2324h7.2734v-1.1904c0-2.3936-0.2324-4.0899-0.6972-5.0879
		c-0.4649-0.9981-1.4141-1.8262-2.8467-2.4834c-1.4316-0.6572-3.165-0.9863-5.1992-0.9863c-1.8604,0-3.4483,0.3007-4.7627,0.9023
		c-1.3145,0.6016-2.2666,1.4356-2.8555,2.502c-0.5889,1.0673-0.8838,2.7539-0.8838,5.0605c0,1.5996,0.208,2.9141,0.624,3.9434
		c0.4151,1.0293,0.9395,1.8359,1.5713,2.4189c0.6329,0.583,1.9229,1.5186,3.8702,2.8086c1.9462,1.2774,3.1679,2.1895,3.664,2.7344
		c0.4844,0.5459,0.7256,1.706,0.7256,3.4795c0,0.8056-0.1269,1.4131-0.3809,1.8222c-0.2548,0.4102-0.6416,0.6143-1.163,0.6143
		c-0.5205,0-0.8838-0.1611-1.0879-0.4834c-0.2051-0.3223-0.3076-1.0479-0.3076-2.1768v-3.665h-7.2735v1.9727
		c0,2.2568,0.2295,3.999,0.6885,5.2265c0.459,1.2285,1.4287,2.2393,2.9111,3.0332c1.4824,0.793,3.2715,1.1905,5.3672,1.1905
		c1.9102,0,3.584-0.3448,5.0225-1.0332c1.4384-0.6875,2.4092-1.5401,2.9121-2.5577c0.5019-1.0166,0.7529-2.5976,0.7529-4.7441
		c0-2.9512-0.4531-5.0908-1.3584-6.418C179.9907,168.0743,177.7954,166.376,174.3091,164.3067z"/>
	<polygon points="183.3706,159.4297 188.0025,159.4297 188.0025,183.5205 195.8345,183.5205 195.8345,159.4297 200.4849,159.4297 
		200.4849,153.4024 183.3706,153.4024 	"/>
	<rect x="202.271" y="153.4024" width="7.832" height="30.1181"/>
	<polygon points="224.1851,166.9639 219.7954,153.4024 213.2466,153.4024 213.2466,183.5205 219.7954,183.5205 219.7954,169.8291 
		223.8687,183.5205 230.7339,183.5205 230.7339,153.4024 224.1851,153.4024 	"/>
	<path d="M248.2017,154.1836c-1.5127-0.9424-3.417-1.414-5.711-1.414c-2.332,0-4.2324,0.5429-5.7021,1.6279
		c-1.4688,1.085-2.3594,2.2793-2.669,3.581c-0.3105,1.3018-0.4648,3.3926-0.4648,6.2696v8.9482c0,2.0713,0.0742,3.624,0.2227,4.6592
		c0.1494,1.0361,0.5214,2.0254,1.1171,2.9678c0.5957,0.9424,1.4678,1.7334,2.6163,2.372c1.1474,0.6387,2.3789,0.9581,3.6953,0.9581
		c1.1045,0,2.0634-0.2325,2.8759-0.6983c0.8125-0.4648,1.4864-1.1621,2.0196-2.0928l0.7246,2.1582h4.9219v-16.166h-9.1709v4.5762
		h1.581v3.5723c0,1.4013-0.1025,2.3437-0.3076,2.8271c-0.2041,0.4834-0.5918,0.7256-1.1621,0.7256
		c-0.5205,0-0.8682-0.2139-1.042-0.6416c-0.1738-0.4277-0.2607-1.3174-0.2607-2.6699v-14.4541c0-1.5381,0.0869-2.4932,0.2607-2.8653
		c0.1738-0.372,0.502-0.5576,0.9863-0.5576c0.5576,0,0.9112,0.2168,1.0606,0.6504c0.1484,0.4346,0.2226,1.5137,0.2226,3.2373v2.7344
		h7.8321v-1.3018c0-2.4677-0.2295-4.3496-0.6885-5.6465C250.7007,156.2452,249.7153,155.126,248.2017,154.1836z"/>
	<path d="M215.5884,45c5.4414,0,10.4316-1.9316,14.3232-5.1474c0.125-0.1035,0.2452-0.2129,0.3692-0.3194
		c4.7783-4.1259,7.8076-10.2236,7.8076-17.0332c0-12.4267-10.0742-22.5-22.5-22.5s-22.5,10.0733-22.5,22.5
		c0,6.8086,3.0283,12.9063,7.8066,17.0323c0.1221,0.1054,0.2422,0.2138,0.3662,0.3164C205.1528,43.0664,210.145,45,215.5884,45z"/>
	<path d="M243.7554,113.9854l0.0332,0.6875c3.2978-0.1563,6.4209-0.2656,9.2881-0.2637c6.7431-0.0205,12.0976,0.6377,14.7978,2.3643
		l1.0635-1.6963c-3.457-2.127-8.9922-2.6504-15.8613-2.6699c-2.917,0.0019-6.0703,0.1093-9.3848,0.2675v0.002
		c0.001,0,0.001,0,0.002,0L243.7554,113.9854z"/>
	<path d="M187.4487,114.2598l0.1495-1.1914l0.0986-0.792h-0.001c-2.5693-0.3213-4.789-0.6484-6.6211-0.9434v2.0274
		c1.792,0.2842,3.9336,0.5957,6.374,0.9004V114.2598z"/>
	<path d="M141.7407,118.5928h1.5411v1.666h5.5v-1.666h23.25v1.666h5.5v-1.666h1.5429v-26h-37.334v19.416h-3.75v3.5h3.75V118.5928z
		 M175.9068,97.0928v1.333h-31.5v-1.333H175.9068z"/>
	<path d="M108.9282,65.6485c3.5254-0.7725,8.0586-1.8867,12.709-3.3692c4.9395-1.5927,9.9824-3.5283,14.4063-6.3008
		c2.2109-1.4082,4.3144-3.0322,6.1289-5.2919c1.791-2.2129,3.3222-5.3799,3.3125-9.0079c0.0137-3.3642-1.3262-6.54-3.1934-8.997
		c-2.8476-3.7295-6.7617-6.5215-12.125-9.4004c-5.373-2.8447-12.2851-5.669-21.2637-8.624
		c-4.1972-1.3799-8.7187,0.9052-10.0976,5.1025c-1.3789,4.1982,0.9043,8.7197,5.1016,10.0996
		c11.1914,3.6611,18.4531,7.0537,22.2988,9.6358c1.2051,0.7949,2.0605,1.5039,2.6094,2.0341
		c-1.0606,0.836-3.0313,2.0293-5.4258,3.0498c-4.6211,2.042-10.709,3.7715-15.5098,4.8994c-2.4062,0.5684-4.5,1.001-5.9785,1.2842
		c-0.6035,0.1172-1.0996,0.2071-1.4746,0.2754H62.565c-0.4844,0-0.9571,0.0498-1.4161,0.1358
		c-0.4609,0.0507-0.9238,0.1162-1.4277,0.1982c-3.7031,0.6592-9.1387,2.1846-14.5049,6c-2.6533,1.916-5.2705,4.4727-7.2431,7.8535
		c-1.9776,3.3643-3.1963,7.5498-3.1817,12.0801c0.0088,5.957,1.9531,12.3271,5.9024,19.2686
		c3.2343,5.6679,7.8281,11.791,14.1425,18.5917v109.9932c0,6.8301,5.5372,12.3633,12.3633,12.3633
		c6.8281,0,12.3653-5.5332,12.3653-12.3633v-90.2715h4.6347v90.2715c0,6.8301,5.5371,12.3633,12.3633,12.3633
		c6.8281,0,12.3652-5.5332,12.3652-12.3633V65.6485z M54.5991,88.6573c-3.0009-5.2657-3.8154-8.9903-3.8076-11.3516
		c0.0264-2.0811,0.5078-3.2783,1.291-4.4756c0.6172-0.9424,1.5938-1.8506,2.7539-2.6523v18.8857
		C54.7583,88.9287,54.6743,88.7901,54.5991,88.6573z"/>
</g>
</svg>
