<?xml version="1.0" encoding="iso-8859-1"?>
<!-- Generator: Adobe Illustrator 23.1.1, SVG Export Plug-In . SVG Version: 6.00 Build 0)  -->
<svg version="1.1" id="_x31_-outline-expand" xmlns="http://www.w3.org/2000/svg" xmlns:xlink="http://www.w3.org/1999/xlink"
	 x="0px" y="0px" viewBox="0 0 64 64" style="enable-background:new 0 0 64 64;" xml:space="preserve">
<path d="M49,26h13v-2H50V14c0-0.553-0.447-1-1-1c-1.958,0-3.728,0.81-5,2.111V7c0-2.757-2.243-5-5-5H13c-2.757,0-5,2.243-5,5v17.556
	C7.409,24.212,6.732,24,6,24c-2.206,0-4,1.794-4,4c0,1.201,0.542,2.266,1.382,3C2.542,31.734,2,32.799,2,34s0.542,2.266,1.382,3
	C2.542,37.734,2,38.799,2,40s0.542,2.266,1.382,3C2.542,43.734,2,44.799,2,46c0,2.206,1.794,4,4,4c0.732,0,1.409-0.212,2-0.556V57
	c0,2.757,2.243,5,5,5h26c2.757,0,5-2.243,5-5v-7h18v-2H44V20c0-2.415,1.721-4.435,4-4.899V25C48,25.553,48.447,26,49,26z M13,4h26
	c1.654,0,3,1.346,3,3v1H10V7C10,5.346,11.346,4,13,4z M4,28c0-1.103,0.897-2,2-2s2,0.897,2,2s-0.897,2-2,2S4,29.103,4,28z M4,34
	c0-1.103,0.897-2,2-2s2,0.897,2,2s-0.897,2-2,2S4,35.103,4,34z M4,40c0-1.103,0.897-2,2-2s2,0.897,2,2s-0.897,2-2,2S4,41.103,4,40z
	 M6,48c-1.103,0-2-0.897-2-2s0.897-2,2-2s2,0.897,2,2S7.103,48,6,48z M39,60H13c-1.654,0-3-1.346-3-3v-1h32v1
	C42,58.654,40.654,60,39,60z M42,54H10V10h32v10V54z"/>
<path d="M13,24h10c0.553,0,1-0.447,1-1v-8c0-0.553-0.447-1-1-1H13c-0.553,0-1,0.447-1,1v8C12,23.553,12.447,24,13,24z M14,16h8v6h-8
	V16z"/>
<path d="M39,27H29c-0.553,0-1,0.447-1,1v8c0,0.553,0.447,1,1,1h10c0.553,0,1-0.447,1-1v-8C40,27.447,39.553,27,39,27z M38,35h-8v-6
	h8V35z"/>
<rect x="26" y="14" width="14" height="2"/>
<rect x="26" y="18" width="14" height="2"/>
<rect x="26" y="22" width="10" height="2"/>
<path d="M23,40H13c-0.553,0-1,0.447-1,1v8c0,0.553,0.447,1,1,1h10c0.553,0,1-0.447,1-1v-8C24,40.447,23.553,40,23,40z M22,48h-8v-6
	h8V48z"/>
<rect x="26" y="40" width="14" height="2"/>
<rect x="26" y="44" width="14" height="2"/>
<rect x="26" y="48" width="2" height="2"/>
<rect x="12" y="27" width="14" height="2"/>
<rect x="12" y="31" width="14" height="2"/>
<rect x="12" y="35" width="14" height="2"/>
<rect x="38" y="22" width="2" height="2"/>
<rect x="30" y="48" width="2" height="2"/>
<rect x="34" y="48" width="2" height="2"/>
<rect x="38" y="48" width="2" height="2"/>
</svg>
