<?xml version="1.0" encoding="UTF-8" standalone="no"?> <svg xmlns="http://www.w3.org/2000/svg" viewBox="0 0 512 512"><defs><style>.cls-1{fill:#c1c1c1;}.cls-2{fill:#e5e1dc;}.cls-3{fill:#1c3b54;}.cls-4{fill:#afafaf;}.cls-5{fill:#336baf;}.cls-6{fill:#57b584;}</style></defs><title>HypothesisTesting-statisticalanalysis-testing-testingsplit-questionnaire</title><g id="FLAT"><path class="cls-1" d="M32,440a8,8,0,0,0-8,8v16a24,24,0,0,0,24,24H416a24,24,0,0,1-24-24V448a8,8,0,0,0-8-8Z"/><path class="cls-2" d="M464,24H88A16,16,0,0,0,72,40V440H384a8,8,0,0,1,8,8v16a24,24,0,0,0,24,24h0a24,24,0,0,0,24-24V48a24,24,0,0,1,24-24Z"/><path class="cls-3" d="M304,496V432a8,8,0,0,0-8-8H280a24,24,0,0,1-24-24V360H229.59612a8,8,0,0,1-6.99326-11.88514L256,288v-.00011A111.99989,111.99989,0,0,1,367.99989,176H376A112,112,0,0,1,488,288v.00017a135.19556,135.19556,0,0,1-39.59786,95.59769l-15.02956,15.02956A32,32,0,0,0,424,421.25483V496"/><path class="cls-4" d="M464,24a23.99994,23.99994,0,0,0-24,24v56h40a8.00009,8.00009,0,0,0,8-8V48A23.99994,23.99994,0,0,0,464,24Z"/><rect class="cls-1" x="176" y="56" width="160" height="16"/><polygon class="cls-5" points="120 227.313 98.343 205.657 109.657 194.343 120 204.687 154.343 170.343 165.657 181.657 120 227.313"/><rect class="cls-1" x="184" y="192" width="72" height="16"/><polygon class="cls-5" points="120 299.313 98.343 277.657 109.657 266.343 120 276.687 154.343 242.343 165.657 253.657 120 299.313"/><rect class="cls-1" x="184" y="264" width="48" height="16"/><polygon class="cls-5" points="120 371.313 98.343 349.657 109.657 338.343 120 348.687 154.343 314.343 165.657 325.657 120 371.313"/><rect class="cls-1" x="184" y="336" width="16" height="16"/><polygon class="cls-5" points="120 155.313 98.343 133.657 109.657 122.343 120 132.687 154.343 98.343 165.657 109.657 120 155.313"/><rect class="cls-1" x="184" y="120" width="224" height="16"/><rect class="cls-6" x="360" y="368" width="16" height="16"/><path class="cls-6" d="M376,352H360V332.91992a23.23278,23.23278,0,0,1,16.84961-22.15722,32.00733,32.00733,0,0,0-6.563-62.6836A32.00429,32.00429,0,0,0,336,280H320a48.1716,48.1716,0,0,1,15.25391-35.0957,47.6099,47.6099,0,0,1,36.1333-12.78711,48.00734,48.00734,0,0,1,9.876,94.0249A7.07446,7.07446,0,0,0,376,332.91992Z"/></g></svg>