<?xml version="1.0" encoding="UTF-8"?>
<!DOCTYPE svg PUBLIC "-//W3C//DTD SVG 1.1//EN" "http://www.w3.org/Graphics/SVG/1.1/DTD/svg11.dtd">
<!-- Creator: CorelDRAW -->
<svg xmlns="http://www.w3.org/2000/svg" xml:space="preserve" width="1.70666in" height="1.70666in" style="shape-rendering:geometricPrecision; text-rendering:geometricPrecision; image-rendering:optimizeQuality; fill-rule:evenodd; clip-rule:evenodd"
viewBox="0 0 1.70666 1.70666"
 xmlns:xlink="http://www.w3.org/1999/xlink">
 <defs>
  <style type="text/css">
   <![CDATA[
    .fil1 {fill:#47D5C5}
    .fil0 {fill:#5A45CE}
    .fil2 {fill:#A948D6}
   ]]>
  </style>
 </defs>
 <g id="Layer_x0020_1">
  <metadata id="CorelCorpID_0Corel-Layer"/>
  <path class="fil0" d="M0.607433 1.12094c-0.00554724,0 -0.0110906,-0.00211417 -0.0153189,-0.00634252 -0.00846457,-0.00846063 -0.00846457,-0.0221772 0,-0.0306378l0.271319 -0.271323c0.00846457,-0.00846063 0.0221772,-0.00846063 0.0306417,0 0.00845669,0.00846457 0.00845669,0.0221772 0,0.0306378l-0.271323 0.271327c-0.00423228,0.00422441 -0.00977165,0.00633858 -0.0153189,0.00633858z"/>
  <path class="fil1" d="M0.838874 0.816839c-0.00126378,-0.00146063 -0.00250394,-0.00293307 -0.00374803,-0.00440551 0.00124409,0.00147244 0.00248425,0.00294488 0.00374803,0.00440551zm-0.00789764 -0.00936614c-0.0012874,-0.00156693 -0.00255512,-0.00314567 -0.00382283,-0.00472441 0.00126772,0.00157874 0.00253543,0.00315748 0.00382283,0.00472441zm-0.00766142 -0.00955512c-0.00125197,-0.00160236 -0.00248031,-0.0032126 -0.0037126,-0.00482677 0.00122835,0.00161417 0.00246063,0.00322441 0.0037126,0.00482677zm-0.00751969 -0.00987795c-0.00114567,-0.00154724 -0.00227165,-0.00310236 -0.00340157,-0.00465748 0.00112598,0.00155906 0.00225591,0.00311024 0.00340157,0.00465748zm-0.0140157 -0.0199134c-0.00111024,-0.00166142 -0.00220472,-0.00333071 -0.00329134,-0.00500394 0.00108661,0.00166929 0.0021811,0.00334252 0.00329134,0.00500394zm-0.00651575 -0.0100276c-0.00108268,-0.00171654 -0.00216142,-0.00343307 -0.00322047,-0.00515748l0.00322047 0.00515748zm-0.0125591 -0.0209921c-0.000917323,-0.00162598 -0.00183071,-0.00325197 -0.00272835,-0.00488583 0.000897638,0.00163386 0.00181102,0.00325984 0.00272835,0.00488583zm-0.0112441 -0.0210945c-0.000846457,-0.00168898 -0.00168898,-0.00337402 -0.00251575,-0.00506693 0.000822835,0.00169291 0.00166929,0.00337795 0.00251575,0.00506693zm-0.00520472 -0.010685c-0.000807087,-0.00172047 -0.00161811,-0.00343701 -0.00240945,-0.00516142 0.000791339,0.00172441 0.00160236,0.00344094 0.00240945,0.00516142zm-0.00497638 -0.0108858c-0.000767717,-0.00174016 -0.00153937,-0.00347638 -0.0022874,-0.00522047 0.000748031,0.00174409 0.00151969,0.00348425 0.0022874,0.00522047zm-0.00462598 -0.0107992c-0.000755906,-0.00182283 -0.00150787,-0.00364173 -0.00224016,-0.00547244 0.000732283,0.00182677 0.00148425,0.00364961 0.00224016,0.00547244zm-0.00434252 -0.0108543c-0.000728346,-0.00188976 -0.00146457,-0.00377559 -0.00216929,-0.00566929 0.000704724,0.0018937 0.00144094,0.00377953 0.00216929,0.00566929zm-0.00418898 -0.0112323c-0.000661417,-0.00183858 -0.00132283,-0.00366929 -0.00196063,-0.00551181 0.000633858,0.00184252 0.00130315,0.00367323 0.00196063,0.00551181zm-0.00393701 -0.0114094c-0.00057874,-0.00175197 -0.00116929,-0.00350394 -0.00173228,-0.00526378 0.000562992,0.00175591 0.00115354,0.00350787 0.00173228,0.00526378zm-0.00349606 -0.0109764c-0.000586614,-0.0019252 -0.0011811,-0.00384252 -0.00174803,-0.00577559 0.000566929,0.00193307 0.00116142,0.00385039 0.00174803,0.00577559zm-0.00324803 -0.0110945c-0.000547244,-0.00195276 -0.0011063,-0.00390551 -0.00162992,-0.00586614 0.000523622,0.00196063 0.00108268,0.00391339 0.00162992,0.00586614zm-0.00322047 -0.0120709c-0.000433071,-0.00172047 -0.00088189,-0.00343701 -0.00129921,-0.00516142 0.000417323,0.00172441 0.000866142,0.00344094 0.00129921,0.00516142zm-0.00269291 -0.0111929c-0.00042126,-0.00184252 -0.000862205,-0.00367717 -0.00125984,-0.00552362 0.000397638,0.00184252 0.000838583,0.0036811 0.00125984,0.00552362zm-0.00235433 -0.0108622c-0.000429134,-0.00208268 -0.000870079,-0.00415748 -0.00126772,-0.00624803 0.000397638,0.00208661 0.000838583,0.00416535 0.00126772,0.00624803zm-0.00227165 -0.0118031c-0.000350394,-0.00194882 -0.000720472,-0.00388976 -0.00104724,-0.00583858 0.000326772,0.00194882 0.00069685,0.0038937 0.00104724,0.00583858zm-0.00218898 -0.0131457c-0.000216535,-0.00141732 -0.000452756,-0.00283465 -0.00065748,-0.00425591 0.000204724,0.00142126 0.000440945,0.00283465 0.00065748,0.00425591zm-0.00441339 -0.0391654c-0.000122047,-0.00170472 -0.000208661,-0.00341339 -0.000311024,-0.00511811 0.000106299,0.00170866 0.000185039,0.00341339 0.000311024,0.00511811zm-0.000700787 -0.0116811c-9.84252e-005,-0.00205118 -0.00015748,-0.0041063 -0.000232283,-0.00615748 7.48031e-005,0.00205118 0.000133858,0.0041063 0.000232283,0.00615748zm-0.000425197 -0.0115669c-5.11811e-005,-0.00210236 -6.69291e-005,-0.00420866 -9.44882e-005,-0.00631102 2.75591e-005,0.00210236 4.33071e-005,0.00420866 9.44882e-005,0.00631102zm-0.000161417 -0.0117756c-3.93701e-006,-0.00206299 3.14961e-005,-0.00412205 5.51181e-005,-0.00618504 -2.3622e-005,0.00206299 -5.90551e-005,0.00412205 -5.51181e-005,0.00618504zm0.000122047 -0.0116496c4.33071e-005,-0.00194094 0.00011811,-0.00388189 0.000185039,-0.00582283 -6.69291e-005,0.00194094 -0.000141732,0.00388189 -0.000185039,0.00582283zm0.000401575 -0.011878c7.87402e-005,-0.00170472 0.000181102,-0.00340551 0.000279528,-0.0051063 -9.84252e-005,0.00170079 -0.000200787,0.00340551 -0.000279528,0.0051063zm0.000673228 -0.0117165c0.000125984,-0.00180315 0.000279528,-0.00360236 0.000425197,-0.00540551 -0.000145669,0.00179921 -0.000299213,0.00360236 -0.000425197,0.00540551zm0.000940945 -0.0115472c0.000181102,-0.00192126 0.000385827,-0.00383858 0.000582677,-0.00575984 -0.000200787,0.00192126 -0.000405512,0.00383858 -0.000582677,0.00575984zm0.0012126 -0.0116102c0.000232283,-0.00199213 0.000492126,-0.00398031 0.000748031,-0.00597244 -0.000255906,0.00199213 -0.000515748,0.00398031 -0.000748031,0.00597244zm0.00148425 -0.0115551c0.000283465,-0.00201969 0.000590551,-0.00403543 0.000901575,-0.00605118 -0.000311024,0.00201969 -0.00061811,0.0040315 -0.000901575,0.00605118zm0.00177953 -0.0116575c0.000314961,-0.00190945 0.000653543,-0.00382283 0.000988189,-0.00572835 -0.000334646,0.00190945 -0.000673228,0.00381496 -0.000988189,0.00572835zm0.00204331 -0.0115827c0.000370079,-0.00196063 0.00076378,-0.00391732 0.00116142,-0.00587402 -0.000397638,0.00195669 -0.000791339,0.00391339 -0.00116142,0.00587402zm0.00229921 -0.0114213c0.000413386,-0.00192913 0.00084252,-0.00385433 0.00127953,-0.00577953 -0.000437008,0.0019252 -0.000866142,0.00385039 -0.00127953,0.00577953zm0.00263386 -0.0116378c0.000448819,-0.00187402 0.000913386,-0.00374409 0.00138189,-0.00561417 -0.000472441,0.00187008 -0.000937008,0.00374016 -0.00138189,0.00561417zm0.00282283 -0.0112283c0.000515748,-0.00196063 0.00104724,-0.00391732 0.00159055,-0.00587402 -0.00053937,0.00195669 -0.0010748,0.00391339 -0.00159055,0.00587402zm0.00659449 -0.0227795c0.00057874,-0.00183465 0.00117323,-0.00367323 0.00177559,-0.00550394 -0.000602362,0.00183465 -0.00119685,0.00366929 -0.00177559,0.00550394zm0.00368504 -0.0112047c0.000633858,-0.00185039 0.00127559,-0.00370079 0.00193307,-0.00554331 -0.00065748,0.00184252 -0.00129921,0.00369291 -0.00193307,0.00554331zm0.00395669 -0.011122c0.000685039,-0.00185433 0.00138189,-0.00370472 0.00209055,-0.00555118 -0.000708661,0.00184646 -0.00140551,0.00369685 -0.00209055,0.00555118zm0.00427953 -0.0111575c0.000692913,-0.00174803 0.0013937,-0.00349606 0.00211024,-0.00524016 -0.000716535,0.00174409 -0.00141732,0.00349213 -0.00211024,0.00524016zm0.00454724 -0.0110591c0.000748031,-0.00175591 0.0015,-0.00350394 0.00226772,-0.00525197 -0.000767717,0.00174409 -0.00151969,0.00349606 -0.00226772,0.00525197zm0.00475591 -0.0108031c0.000791339,-0.00173622 0.00157874,-0.00347638 0.0023937,-0.00520866 -0.000814961,0.00172835 -0.00160236,0.0034685 -0.0023937,0.00520866zm0.00518898 -0.0110472c0.000787402,-0.00162205 0.0015748,-0.00324803 0.00237795,-0.0048622l-0.00237795 0.0048622zm0.00529921 -0.0106024c0.000858268,-0.00166929 0.00171654,-0.00333465 0.00259449,-0.00499606 -0.000877953,0.00165748 -0.00173228,0.00332677 -0.00259449,0.00499606zm0.0056063 -0.0105669c0.000901575,-0.00165354 0.00179921,-0.00330709 0.00272441,-0.00494882 -0.00092126,0.00164173 -0.00182283,0.00329528 -0.00272441,0.00494882zm0.00592126 -0.0105236c0.000940945,-0.00162205 0.00187402,-0.00324409 0.00283071,-0.00485827 -0.00096063,0.00161024 -0.00188976,0.00323622 -0.00283071,0.00485827zm0.00605906 -0.0101811c0.00104724,-0.0017126 0.00208661,-0.0034252 0.00315748,-0.00512598 -0.00107087,0.00170079 -0.00211024,0.00341339 -0.00315748,0.00512598zm0.00641339 -0.0102047c0.00107087,-0.00165748 0.00212992,-0.00331496 0.00322441,-0.00496063 -0.00109055,0.00164567 -0.00215354,0.00330315 -0.00322441,0.00496063zm0.00711417 -0.0106969c0.000964567,-0.00140945 0.00191339,-0.00282677 0.00289764,-0.00423228 -0.000984252,0.00140157 -0.00193307,0.00282283 -0.00289764,0.00423228zm0.00687795 -0.00979921c0.00108268,-0.00150394 0.00214961,-0.00301181 0.00325197,-0.00450787 -0.00110236,0.00149606 -0.00216929,0.00300394 -0.00325197,0.00450787zm0.0069685 -0.00943701c0.00122441,-0.00161811 0.00243307,-0.00324409 0.0036811,-0.00485039 -0.00124409,0.0016063 -0.00245669,0.00323228 -0.0036811,0.00485039zm0.00784252 -0.0100866c0.00115354,-0.00144488 0.0022874,-0.00289764 0.00345669,-0.00433071 -0.00116929,0.00143307 -0.00230315,0.00288583 -0.00345669,0.00433071zm0.00846457 -0.010315c0.000964567,-0.00114173 0.00190551,-0.00229528 0.00288189,-0.00342913 -0.000976378,0.0011378 -0.00191732,0.0022874 -0.00288189,0.00342913zm0.017248 -0.0193937c0.000811024,-0.000866142 0.00160236,-0.00174409 0.00242126,-0.0026063 -0.000818898,0.000862205 -0.00161024,0.00174016 -0.00242126,0.0026063zm0.360453 0.609811c-0.0500039,0 -0.0955709,-0.0210472 -0.129657,-0.0554291l-0.0774528 -0.0387323 -0.0296693 0.0296732c-0.00846457,0.00846063 -0.0221811,0.00846457 -0.0306378,0 -0.00846457,-0.00846063 -0.00846457,-0.0221772 -3.93701e-006,-0.0306378l0.0407126 -0.0407165c0.00659449,-0.00659449 0.0166654,-0.00823228 0.0250118,-0.00406299l0.0257835 0.0128937c-0.00615748,-0.0157874 -0.0105748,-0.0325669 -0.0129882,-0.0500512l-0.0380827 -0.0190433 -0.0296693 0.0296693c-0.00422835,0.00423622 -0.00977559,0.00635039 -0.0153189,0.00635039 -0.00553937,0 -0.0110866,-0.00211417 -0.0153189,-0.00634646 -0.00846063,-0.00846457 -0.00846063,-0.0221772 0,-0.0306378l0.0407126 -0.0407126c0.00659449,-0.00659055 0.0166654,-0.00823228 0.0250079,-0.00405906l0.0312559 0.0156299c0.0018622,-0.0234606 0.00731496,-0.0458228 0.015752,-0.0664291 -0.0137441,-0.00880709 -0.027,-0.0173661 -0.0359685,-0.0231732l-0.0372638 0.0223583c-0.0102559,0.00615748 -0.0235709,0.00283465 -0.0297283,-0.00742913 -0.00615748,-0.0102598 -0.00283071,-0.0235709 0.00742913,-0.0297244l0.0488583 -0.029315c0.0071063,-0.00425984 0.0160118,-0.00410236 0.0229606,0.000413386 0.00026378,0.000169291 0.0211378,0.0137441 0.0441732,0.0285157 0.0147165,-0.0218504 0.033248,-0.0404724 0.0545157,-0.054685 0.00199213,-0.0306693 0.0159331,-0.0578346 0.0368228,-0.0761063 -0.0131693,-0.0227165 -0.0289055,-0.0495394 -0.0291063,-0.049878 -0.00605512,-0.0103228 -0.00259843,-0.0235945 0.00772047,-0.0296496 0.0103189,-0.00605906 0.0235945,-0.00259843 0.0296496,0.00772047 0.000208661,0.000346457 0.0164646,0.0280669 0.0298307,0.051126 0.0078937,-0.00217323 0.0161614,-0.00333465 0.0246732,-0.00333465 0.00850787,0 0.0167677,0.00116142 0.0246614,0.00333465 0.0133661,-0.023063 0.029622,-0.0507756 0.0298268,-0.051122 0.00605512,-0.0103228 0.0193386,-0.0137756 0.0296496,-0.00772441 0.0103228,0.00605512 0.0137795,0.0193268 0.00772441,0.0296496 -0.000200787,0.000338583 -0.0159291,0.0271575 -0.0291024,0.049874 0.0208937,0.0182677 0.0348386,0.0454409 0.0368307,0.0761142 0.0212638,0.0142126 0.0397953,0.0328307 0.0545118,0.0546772 0.0230315,-0.0147756 0.0439094,-0.0283425 0.0441693,-0.0285157 0.00694882,-0.00451181 0.0158504,-0.00467323 0.0229606,-0.000413386l0.0488583 0.029315c0.0102598,0.00615748 0.0135827,0.0194646 0.00742913,0.0297244 -0.00615748,0.0102638 -0.0194567,0.0135906 -0.0297283,0.00742913l-0.0372638 -0.0223583c-0.0089685,0.00580709 -0.0222244,0.0143622 -0.0359685,0.0231693 0.00844094,0.0206063 0.0138937,0.0429685 0.0157559,0.0664331l0.031248 -0.015626c0.00834252,-0.00417323 0.0184094,-0.00253543 0.0250079,0.00406299l0.0407126 0.0407126c0.00846063,0.00846063 0.00846063,0.0221772 0,0.0306378 -0.00422835,0.00422835 -0.00977559,0.00634252 -0.015315,0.00634252 -0.00554331,0 -0.0110906,-0.00211417 -0.0153228,-0.00634646l-0.0296693 -0.0296693 -0.0380748 0.0190354c-0.00241339,0.0174882 -0.00683465,0.0342677 -0.0129921,0.0500591l0.0257913 -0.0128937c0.00834646,-0.00416929 0.0184173,-0.0025315 0.0250118,0.00405906l0.0407126 0.0407205c0.00845669,0.00846063 0.00845669,0.0221772 -3.93701e-006,0.0306378 -0.00845669,0.00846457 -0.0221772,0.00846063 -0.0306378,0l-0.0296693 -0.0296732 -0.0774724 0.0387402c-0.0340827,0.034374 -0.0796496,0.0554173 -0.129646,0.0554173zm0 -0.635102c-0.0969488,0 -0.188094,0.037752 -0.25665,0.106307 -0.141512,0.141516 -0.141512,0.37178 0,0.513299 0.0685551,0.0685512 0.159701,0.106303 0.25665,0.106303 0.0969488,0 0.188098,-0.037752 0.256646,-0.106303 0.141516,-0.14152 0.141516,-0.371783 0,-0.513299 -0.0685512,-0.0685551 -0.159697,-0.106307 -0.256646,-0.106307zm-0.0493386 0.225886c0.00718898,-0.00209843 0.0145472,-0.00373622 0.0220394,-0.00491339l0.000775591 -0.00011811 0.000771654 -0.00011811 0.00310236 -0.000429134 0.000779528 -0.000102362 0.000775591 -9.44882e-005 0.00288976 -0.000326772 0.000220472 -2.3622e-005 0.000779528 -7.48031e-005 0.00148031 -0.000141732 0.0016378 -0.000141732 0.000783465 -5.90551e-005c0.00104331,-7.87402e-005 0.00207874,-0.000153543 0.00312205,-0.000212598l0.000366142 -2.3622e-005 0.000417323 -1.9685e-005c0.00130315,-7.08661e-005 0.0026063,-0.000125984 0.00391339,-0.000165354l0.000562992 -1.9685e-005 0.000220472 -3.93701e-006c0.00156299,-3.93701e-005 0.00313386,-6.29921e-005 0.00470079,-6.29921e-005 0.00156693,0 0.00313386,1.9685e-005 0.00470079,6.29921e-005l0.000220472 3.93701e-006 0.000562992 1.9685e-005c0.00134646,4.33071e-005 0.00269291,9.84252e-005 0.00403543,0.000173228l0.000948819 5.51181e-005 0.00316929 0.000220472 0.00200787 0.000165354 0.000779528 7.48031e-005 0.000779528 7.48031e-005 0.000779528 7.87402e-005 0.00311024 0.000346457 0.000779528 9.84252e-005 0.000775591 9.84252e-005c0.00757087,0.000980315 0.0150118,0.00244488 0.0222874,0.0043622l0.000759843 0.000200787c0.00117717,0.000314961 0.00235433,0.000641732 0.00352362,0.000980315l0.000255906 7.48031e-005c-0.00572441,-0.0117795 -0.0145945,-0.0213071 -0.025311,-0.0271063l-3.93701e-006 -3.93701e-006 -0.000161417 -8.26772e-005 -0.000161417 -8.66142e-005 -0.000161417 -8.66142e-005c-0.00720472,-0.00379921 -0.0152283,-0.00592913 -0.0236772,-0.00592913 -0.0212677,0 -0.0398307,0.0134567 -0.0494724,0.0332953l0.000133858 -3.93701e-005zm0.0493386 0.0362756c-0.0814449,0 -0.147705,0.0739331 -0.147705,0.164807 0,0.090874 0.0662638,0.164807 0.147705,0.164807 0.0766929,0 0.139909,-0.0655551 0.147031,-0.149079l3.54331e-005 -0.000523622 4.72441e-005 -0.000519685c0.000385827,-0.00484252 0.000590551,-0.00973622 0.000590551,-0.014685 0,-0.090874 -0.0662598,-0.164807 -0.147705,-0.164807z"/>
  <path class="fil2" d="M0.161008 1.70658c-0.043126,0 -0.0835709,-0.0166929 -0.113882,-0.0470039 -0.0627953,-0.0627913 -0.0627953,-0.164969 0,-0.22776l0.34787 -0.347866c0.0303071,-0.0303071 0.070752,-0.047 0.113878,-0.047 0.0426299,0 0.0826339,0.016311 0.112827,0.0459567 0.000771654,0.000669291 0.0015,0.00140157 0.00217323,0.00217323 0.0616654,0.0628858 0.0612913,0.164213 -0.00112598,0.226626l-0.347858 0.347874c-0.030315,0.0303071 -0.0707559,0.047 -0.113882,0.047z"/>
  <path class="fil0" d="M1.2127 0.0877205c0.108528,0 0.210551,0.0422638 0.287287,0.119 0.158406,0.158409 0.158406,0.416161 0,0.574575 -0.0767362,0.0767362 -0.178764,0.119 -0.287287,0.119 -0.108524,0 -0.210551,-0.0422638 -0.287291,-0.118996 -0.158406,-0.158413 -0.158406,-0.416165 0,-0.574579 0.0767402,-0.0767362 0.178772,-0.119 0.287291,-0.119zm-0.349264 0.0570276c-0.187441,0.187453 -0.192437,0.489323 -0.0149882,0.682874 0.00485827,0.00529921 0.00985433,0.0105197 0.0149882,0.0156535 0.00512598,0.00512205 0.0103425,0.010122 0.0156457,0.0149921 0.0912953,0.0837835 0.208933,0.129669 0.333618,0.129669 0.131933,0 0.255969,-0.051374 0.349264,-0.144661 0.0932913,-0.0932913 0.144665,-0.217331 0.144665,-0.349264 0,-0.131933 -0.051374,-0.255972 -0.144665,-0.349264 -0.0932913,-0.0932913 -0.217331,-0.144669 -0.349264,-0.144669 -0.131933,0 -0.255972,0.051378 -0.349264,0.144669z"/>
 </g>
</svg>
