<?xml version="1.0" encoding="UTF-8"?>
<!DOCTYPE svg PUBLIC "-//W3C//DTD SVG 1.1//EN" "http://www.w3.org/Graphics/SVG/1.1/DTD/svg11.dtd">
<!-- Creator: CorelDRAW -->
<svg xmlns="http://www.w3.org/2000/svg" xml:space="preserve" width="1.99999in" height="1.99999in" version="1.1" style="shape-rendering:geometricPrecision; text-rendering:geometricPrecision; image-rendering:optimizeQuality; fill-rule:evenodd; clip-rule:evenodd"
viewBox="0 0 2000 2000"
 xmlns:xlink="http://www.w3.org/1999/xlink">
 <defs>
  <style type="text/css">
   <![CDATA[
    .fil0 {fill:none}
    .fil1 {fill:black}
   ]]>
  </style>
 </defs>
 <rect class="fil0" width="2000" height="2000"/>
 <g id="Layer_x0020_1">
  <metadata id="CorelCorpID_0Corel-Layer"/>
  <path class="fil1" d="M1133 1774l-266 0c-44,0 -77,-34 -77,-77l0 -176c-54,-23 -99,-49 -136,-78l-154 87c-37,22 -82,10 -104,-30l-133 -226c-21,-36 -10,-86 26,-107l155 -88c-6,-62 -7,-96 0,-158l-155 -88c-57,-33 -31,-107 -26,-107l133 -226c22,-40 67,-52 104,-30l154 87c37,-29 82,-55 136,-78l0 -176c0,-43 33,-77 77,-77l266 0c43,0 77,34 77,77l0 176c54,23 99,49 136,78l154 -87c37,-22 82,-10 104,30l133 226c20,36 10,86 -27,107l-154 88c6,63 6,96 0,158l155 88c57,32 31,107 26,107l-133 226c-22,40 -66,51 -103,30l-154 -88c-38,30 -82,56 -136,79l0 176c-1,43 -35,77 -78,77zm-133 -368c226,0 406,-180 406,-406 0,-226 -180,-406 -406,-406 -226,0 -406,180 -406,406 0,226 180,406 406,406z"/>
  <path class="fil1" d="M1000 803c-15,0 -27,-12 -27,-27l0 -190c0,-35 54,-35 54,0l0 190c0,15 -12,27 -27,27z"/>
  <path class="fil1" d="M1000 933c-51,0 -93,-42 -93,-93 0,-51 41,-90 93,-90 52,0 93,39 93,90 0,51 -42,93 -93,93z"/>
  <path class="fil1" d="M1103 1160c-14,0 -26,-12 -26,-27l0 -76c0,-47 36,-84 83,-84l254 0c35,0 35,54 0,54l-254 0c-65,0 4,133 -57,133z"/>
  <path class="fil1" d="M1103 1294c-51,0 -93,-42 -93,-94 0,-51 42,-93 93,-93 49,0 91,42 91,93 0,51 -42,94 -91,94z"/>
  <path class="fil1" d="M740 960l-150 0c-35,0 -35,-53 0,-53l150 0c35,0 35,53 0,53z"/>
  <path class="fil1" d="M806 1027c-51,0 -93,-42 -93,-94 0,-51 42,-93 93,-93 49,0 91,43 91,93 0,51 -42,94 -91,94z"/>
  <path class="fil1" d="M853 1317l-150 0c-35,0 -35,-53 0,-53l150 0c60,0 -6,-127 54,-127 14,0 26,12 26,26l0 74c0,45 -35,80 -80,80z"/>
  <path class="fil1" d="M907 1067c-41,0 -47,70 0,70 50,0 44,-70 0,-70z"/>
  <path class="fil1" d="M907 1190c-48,0 -87,-39 -87,-87 0,-48 40,-90 87,-90 48,0 90,42 90,90 0,47 -42,87 -90,87z"/>
  <path class="fil1" d="M1324 443c-20,0 -34,-22 -23,-40l80 -137c17,-30 63,-4 46,27l-80 136c-5,9 -14,14 -23,14z"/>
  <path class="fil1" d="M1827 1017l-160 0c-35,0 -35,-54 0,-54l160 0c36,0 36,54 0,54z"/>
  <path class="fil1" d="M1424 1737c-9,0 -18,-4 -23,-13l-80 -137c-18,-30 28,-57 46,-26l80 136c10,19 -4,40 -23,40z"/>
  <path class="fil1" d="M596 1747c-20,0 -33,-22 -23,-40l80 -136c18,-31 64,-4 46,26l-80 137c-5,9 -14,13 -23,13z"/>
  <path class="fil1" d="M333 1037l-160 0c-36,0 -36,-54 0,-54l160 0c35,0 35,54 0,54z"/>
  <path class="fil1" d="M656 453c-9,0 -18,-5 -23,-14l-80 -136c-17,-31 29,-57 46,-27l80 137c11,18 -3,40 -23,40z"/>
 </g>
</svg>
