<?xml version="1.0" encoding="UTF-8" standalone="no"?> <svg id="Layer_1" data-name="Layer 1" xmlns="http://www.w3.org/2000/svg" viewBox="0 0 64 64"><path d="M9.976,26.83l-.524.289A.845.845,0,0,0,9.121,28.3l1.45,2.4a.927.927,0,0,0,1.235.316l.53-.292a.959.959,0,0,1,1.029.084,7.685,7.685,0,0,0,1.692.939.89.89,0,0,1,.589.81v.579a.885.885,0,0,0,.9.864h2.9a.885.885,0,0,0,.9-.864v-.579a.89.89,0,0,1,.589-.81,7.685,7.685,0,0,0,1.692-.939.959.959,0,0,1,1.029-.084l.53.292a.927.927,0,0,0,1.235-.316l1.45-2.4a.845.845,0,0,0-.331-1.181l-.524-.289a.836.836,0,0,1-.445-.841,6.924,6.924,0,0,0,0-1.978.836.836,0,0,1,.445-.841l.524-.289a.845.845,0,0,0,.331-1.181l-1.45-2.4a.927.927,0,0,0-1.235-.316l-.53.292a.959.959,0,0,1-1.029-.084,7.685,7.685,0,0,0-1.692-.939.89.89,0,0,1-.589-.81v-.579a.885.885,0,0,0-.9-.864h-2.9a.885.885,0,0,0-.9.864v.579a.89.89,0,0,1-.589.81,7.685,7.685,0,0,0-1.692.939.959.959,0,0,1-1.029.084l-.53-.292a.927.927,0,0,0-1.235.316l-1.45,2.4a.845.845,0,0,0,.331,1.181l.524.289a.836.836,0,0,1,.445.841,6.924,6.924,0,0,0,0,1.978A.836.836,0,0,1,9.976,26.83ZM18,21.5A3.5,3.5,0,1,1,14.5,25,3.5,3.5,0,0,1,18,21.5Z"/><path d="M38.867,22.627l-.465.257a.75.75,0,0,0-.294,1.049L39.4,26.067a.825.825,0,0,0,1.1.281l.471-.26a.852.852,0,0,1,.915.075,6.884,6.884,0,0,0,1.5.835.788.788,0,0,1,.524.719v.515a.786.786,0,0,0,.8.768h2.578a.786.786,0,0,0,.8-.768v-.515A.788.788,0,0,1,48.616,27a6.884,6.884,0,0,0,1.5-.835.852.852,0,0,1,.915-.075l.471.26a.825.825,0,0,0,1.1-.281l1.288-2.134a.75.75,0,0,0-.294-1.049l-.465-.257a.742.742,0,0,1-.4-.748,6.164,6.164,0,0,0,0-1.758.742.742,0,0,1,.4-.748l.465-.257a.75.75,0,0,0,.294-1.049L52.6,15.933a.825.825,0,0,0-1.1-.281l-.471.26a.852.852,0,0,1-.915-.075,6.884,6.884,0,0,0-1.5-.835.788.788,0,0,1-.524-.719v-.515a.786.786,0,0,0-.8-.768H44.711a.786.786,0,0,0-.8.768v.515a.788.788,0,0,1-.524.719,6.884,6.884,0,0,0-1.5.835.852.852,0,0,1-.915.075l-.471-.26a.825.825,0,0,0-1.1.281l-1.288,2.134a.75.75,0,0,0,.294,1.049l.465.257a.742.742,0,0,1,.4.748,6.164,6.164,0,0,0,0,1.758A.742.742,0,0,1,38.867,22.627ZM46,18a3,3,0,1,1-3,3A3,3,0,0,1,46,18Z"/><path d="M32.112,13.261l3.347,2.152,1.082-1.683-4-2.571a1,1,0,0,0-1.222.108l-4.307,4,1.361,1.466Z"/><rect x="3.215" y="35" width="5.878" height="2" transform="translate(-22.854 13.809) rotate(-42.883)"/><path d="M53.789,12.614l5.5-7.068.366,3.188,1.987-.228-.646-5.62a1,1,0,0,0-1.107-.88l-5.62.646.228,1.987,3.256-.374-5.539,7.121Z"/><path d="M17,53a3,3,0,0,0-3-3H6a3,3,0,0,0-3,3v9H17Z"/><circle cx="10" cy="46" r="4"/><path d="M25,53v9H39V53a3,3,0,0,0-3-3H28A3,3,0,0,0,25,53Z"/><circle cx="32" cy="46" r="4"/><path d="M61,53a3,3,0,0,0-3-3H50a3,3,0,0,0-3,3v9H61Z"/><circle cx="54" cy="46" r="4"/></svg>