<?xml version="1.0" encoding="UTF-8"?>
<!DOCTYPE svg PUBLIC "-//W3C//DTD SVG 1.1//EN" "http://www.w3.org/Graphics/SVG/1.1/DTD/svg11.dtd">
<!-- Creator: CorelDRAW -->
<svg xmlns="http://www.w3.org/2000/svg" xml:space="preserve" width="7.11111in" height="7.11111in" version="1.1" style="shape-rendering:geometricPrecision; text-rendering:geometricPrecision; image-rendering:optimizeQuality; fill-rule:evenodd; clip-rule:evenodd"
viewBox="0 0 7111 7111"
 xmlns:xlink="http://www.w3.org/1999/xlink">
 <defs>
  <style type="text/css">
   <![CDATA[
    .fil0 {fill:black}
   ]]>
  </style>
 </defs>
 <g id="Layer_x0020_1">
  <metadata id="CorelCorpID_0Corel-Layer"/>
  <path class="fil0" d="M3556 6492c-785,0 -1522,-306 -2077,-860 -497,-498 -794,-1142 -850,-1836l243 0c122,1374 1279,2454 2684,2454 867,0 1687,-422 2193,-1129 39,-54 114,-67 168,-28 55,39 67,114 28,169 -266,372 -620,681 -1025,894 -417,220 -889,336 -1364,336zm2683 -3177c-122,-1374 -1279,-2454 -2683,-2454 -868,0 -1688,422 -2194,1129 -39,54 -114,67 -168,28 -55,-39 -67,-114 -28,-169 266,-372 620,-681 1025,-894 417,-219 889,-336 1365,-336 784,0 1521,306 2076,860 497,498 794,1142 850,1836l-243 0z"/>
  <path class="fil0" d="M1359 3676l-1238 0c-46,0 -88,-26 -108,-67 -21,-41 -16,-90 12,-126l612 -812c23,-30 58,-48 96,-48 38,0 73,17 96,47l626 812c28,36 33,86 13,127 -21,41 -63,67 -109,67z"/>
  <path class="fil0" d="M6364 4488c0,0 0,0 0,0 -38,0 -73,-18 -96,-48l-613 -812c-27,-36 -32,-85 -11,-126 20,-41 62,-67 108,-67l1238 0c46,0 88,26 109,67 20,42 15,91 -13,127l-626 812c-23,30 -58,47 -96,47z"/>
  <path class="fil0" d="M3913 5895l-715 0c-58,0 -108,-42 -119,-98l-120 -623c-185,-68 -355,-166 -507,-293l-599 208c-55,19 -115,-4 -144,-54l-358 -620c-29,-50 -18,-114 26,-152l479 -415c-16,-96 -25,-194 -25,-292 0,-99 9,-197 25,-293l-479 -415c-44,-38 -55,-102 -26,-152l358 -620c29,-50 89,-73 144,-54l600 208c151,-127 321,-225 506,-293l120 -622c11,-57 61,-98 119,-98l715 0c58,0 108,41 119,98l120 622c185,68 355,166 507,293l599 -208c55,-19 115,4 144,54l358 620c29,50 18,114 -25,152l-480 415c17,96 25,195 25,293 0,98 -8,196 -25,292l480 415c43,38 54,102 25,152l-358 620c-29,50 -89,73 -144,54l-599 -208c-152,127 -322,225 -507,293l-120 623c-11,56 -61,98 -119,98zm-837 -1948c13,0 26,-5 37,-13 26,-20 31,-58 11,-85l-226 -293 226 -294c20,-26 15,-65 -11,-85 -27,-20 -65,-15 -86,11l-253 331c-17,21 -17,52 0,74l253 330c12,15 30,24 49,24zm959 0c19,0 37,-9 49,-24l254 -330c16,-22 16,-53 0,-74l-254 -331c-21,-26 -59,-31 -85,-11 -27,20 -32,59 -12,85l226 294 -226 293c-20,27 -15,65 12,85 10,8 23,13 36,13zm-609 102c27,0 51,-18 58,-43l259 -866c10,-32 -9,-66 -41,-75 -32,-10 -66,8 -75,40l-259 866c-10,32 9,66 41,76 6,1 11,2 17,2zm130 700c657,0 1193,-536 1193,-1193 0,-658 -536,-1193 -1193,-1193 -658,0 -1193,535 -1193,1193 0,657 535,1193 1193,1193zm0 -2265c590,0 1071,481 1071,1072 0,590 -481,1071 -1071,1071 -591,0 -1072,-481 -1072,-1071 0,-591 481,-1072 1072,-1072z"/>
 </g>
</svg>
