<?xml version="1.0" encoding="UTF-8"?>
<!DOCTYPE svg PUBLIC "-//W3C//DTD SVG 1.1//EN" "http://www.w3.org/Graphics/SVG/1.1/DTD/svg11.dtd">
<!-- Creator: CorelDRAW -->
<svg xmlns="http://www.w3.org/2000/svg" xml:space="preserve" width="1.99999in" height="1.99999in" version="1.1" style="shape-rendering:geometricPrecision; text-rendering:geometricPrecision; image-rendering:optimizeQuality; fill-rule:evenodd; clip-rule:evenodd"
viewBox="0 0 2000 2000"
 xmlns:xlink="http://www.w3.org/1999/xlink">
 <defs>
  <style type="text/css">
   <![CDATA[
    .fil4 {fill:#648BD7}
    .fil5 {fill:#A9CDFD}
    .fil3 {fill:#B5BAC2}
    .fil1 {fill:#E8677D}
    .fil7 {fill:#F0D387}
    .fil2 {fill:#F3B136}
    .fil6 {fill:#FF7779}
    .fil0 {fill:black;fill-rule:nonzero}
   ]]>
  </style>
 </defs>
 <g id="Layer_x0020_1">
  <metadata id="CorelCorpID_0Corel-Layer"/>
  <path class="fil0" d="M1000 227c-38,0 -38,57 0,57l20 -8 0 0c18,-18 6,-49 -20,-49zm40 1247l0 86 175 0c23,0 40,18 40,40l0 213c0,22 -17,40 -40,40l-430 0c-23,0 -40,-18 -40,-40l0 -213c0,-22 17,-40 40,-40l175 0 0 -86 -61 0c-21,0 -38,-16 -40,-37l-25 -212c-47,-18 -90,-43 -128,-74l-198 85c-20,8 -42,0 -52,-19l-29 -51 -52 29 0 365 67 0c22,0 40,18 40,40l0 213c0,22 -18,40 -40,40l-215 0c-22,0 -40,-18 -40,-40l0 -213c0,-22 18,-40 40,-40l68 0 0 -388c0,-16 9,-29 22,-36l70 -39 -30 -53c-10,-18 -6,-40 10,-52l0 0 172 -128 -5 -75c0,-22 17,-40 40,-40l57 0 0 -149c0,-6 -2,-12 -6,-16l0 0c-4,-4 -10,-6 -16,-6l-47 0c-27,68 -121,94 -179,36 -42,-42 -42,-111 0,-153l0 0c59,-59 152,-32 179,37l47 0c27,0 55,11 72,30l0 -1c19,19 30,45 30,73l0 149 25 0 38 0 0 -322 -72 -72c-38,17 -85,12 -120,-22 -42,-43 -42,-112 0,-154l0 0c69,-69 186,-20 186,77 0,15 -3,30 -9,43l83 83c7,7 12,17 12,28l0 339 106 0 0 -392c-39,-16 -69,-53 -69,-101 0,-31 12,-58 32,-77 69,-69 186,-20 186,77 0,30 -12,57 -32,77l0 -1c-11,12 -24,20 -37,25l0 392 106 0 0 -339c0,-11 5,-21 12,-28l83 -83c-6,-13 -9,-28 -9,-43 0,-61 49,-109 109,-109 96,0 145,117 77,186 -35,34 -82,39 -120,22l-72 72 0 322 38 0 25 0 0 -149c0,-28 11,-54 30,-73l0 1c18,-19 44,-30 72,-30l47 0c6,-14 14,-26 25,-37l0 0c20,-20 47,-32 77,-32 30,0 57,12 77,32l0 0c69,68 19,185 -77,185 -49,0 -86,-30 -101,-68l-48 0 -16 6 0 0c-4,4 -6,10 -6,16l0 149 57 0c23,0 40,18 40,40l-5 75 172 128c16,13 20,35 10,52l0 0 -30 53 70 39c13,7 22,20 22,36l0 388 68 0c22,0 40,18 40,40l0 213c0,22 -18,40 -40,40l-215 0c-22,0 -40,-18 -40,-40l0 -213c0,-22 18,-40 40,-40l67 0 0 -365 -52 -29 -31 53c-10,18 -32,24 -50,17l-198 -85c-38,31 -81,56 -128,74l-25 214c-3,20 -20,35 -40,35l0 0 -61 0zm135 166l-350 0 0 133 350 0 0 -133zm558 0l-135 0 0 133 135 0 0 -133zm-1331 0l-135 0 0 133 135 0 0 -133zm58 -1131l-20 8 0 0c-27,27 14,68 41,41 18,-18 5,-49 -21,-49zm1100 8c-11,-11 -29,-11 -41,0l0 0c-26,28 15,67 41,41 12,-11 12,-30 0,-41l0 0 0 0zm-199 -282c-27,-27 -68,14 -41,41 27,27 68,-14 41,-41zm-702 -8l-20 8 0 0c-27,27 14,68 41,41 18,-18 5,-49 -21,-49zm341 866c-154,0 -282,-115 -302,-264l-83 0 7 43 0 0c3,15 -2,31 -15,40l-164 123 66 113 187 -80c36,-16 49,20 111,56 60,35 99,29 103,67l25 203 130 0 25 -203 0 0c6,-49 70,-24 170,-116l0 0c12,-10 28,-14 43,-7l188 80 65 -113 -161 -121c-30,-20 -15,-46 -10,-85l-84 0c-19,149 -147,264 -301,264zm-158 -145c128,128 347,58 379,-119l-442 0c9,46 31,87 63,119z"/>
  <polygon class="fil1" points="1175,1640 825,1640 825,1773 1175,1773 "/>
  <polygon class="fil2" points="402,1773 402,1640 267,1640 267,1773 "/>
  <path class="fil3" d="M1260 1075l0 0zm-751 73l187 -80c36,-16 49,20 111,56 60,35 99,29 103,67l25 203 130 0 25 -203 0 0c6,-49 70,-24 170,-116 12,-10 28,-14 43,-7l188 80 65 -113 -161 -121c-30,-20 -15,-46 -10,-85l-84 0c-19,149 -147,264 -301,264 -154,0 -282,-115 -302,-264l-83 0 7 43 0 0c3,15 -2,31 -15,40l-164 123 66 113z"/>
  <polygon class="fil4" points="1598,1640 1598,1773 1733,1773 1733,1640 "/>
  <path class="fil5" d="M440 517c-27,27 14,68 41,41 18,-18 5,-49 -21,-49l-20 8 0 0z"/>
  <path class="fil6" d="M639 235c-27,27 14,68 41,41 18,-18 5,-49 -21,-49l-20 8 0 0z"/>
  <path class="fil7" d="M1000 227c-38,0 -38,57 0,57l20 -8 0 0c18,-18 6,-49 -20,-49z"/>
  <path class="fil6" d="M1361 235c-27,-27 -68,14 -41,41 27,27 68,-14 41,-41z"/>
  <path class="fil5" d="M1519 517c-26,28 15,67 41,41 12,-11 12,-30 0,-41l0 0 0 0c-11,-11 -29,-11 -41,0l0 0z"/>
 </g>
</svg>
