<?xml version="1.0" encoding="UTF-8" standalone="no"?>
<!-- Created with Inkscape (http://www.inkscape.org/) -->

<svg
   xmlns:dc="http://purl.org/dc/elements/1.1/"
   xmlns:cc="http://creativecommons.org/ns#"
   xmlns:rdf="http://www.w3.org/1999/02/22-rdf-syntax-ns#"
   xmlns:svg="http://www.w3.org/2000/svg"
   xmlns="http://www.w3.org/2000/svg"
   xmlns:sodipodi="http://sodipodi.sourceforge.net/DTD/sodipodi-0.dtd"
   xmlns:inkscape="http://www.inkscape.org/namespaces/inkscape"
   width="32"
   height="32"
   viewBox="0 0 8.4666665 8.4666669"
   version="1.1"
   id="svg8"
   inkscape:version="0.92.4 (5da689c313, 2019-01-14)"
   sodipodi:docname="8. Call Center business, office, call, support, communication.svg">
  <defs
     id="defs2">
    <pattern
       y="0"
       x="0"
       height="6"
       width="6"
       patternUnits="userSpaceOnUse"
       id="EMFhbasepattern" />
    <pattern
       y="0"
       x="0"
       height="6"
       width="6"
       patternUnits="userSpaceOnUse"
       id="EMFhbasepattern-3" />
    <pattern
       y="0"
       x="0"
       height="6"
       width="6"
       patternUnits="userSpaceOnUse"
       id="EMFhbasepattern-2" />
    <pattern
       y="0"
       x="0"
       height="6"
       width="6"
       patternUnits="userSpaceOnUse"
       id="EMFhbasepattern-1" />
    <pattern
       y="0"
       x="0"
       height="6"
       width="6"
       patternUnits="userSpaceOnUse"
       id="EMFhbasepattern-5" />
  </defs>
  <sodipodi:namedview
     id="base"
     pagecolor="#ffffff"
     bordercolor="#666666"
     borderopacity="1.0"
     inkscape:pageopacity="0.0"
     inkscape:pageshadow="2"
     inkscape:zoom="11.313708"
     inkscape:cx="9.0980503"
     inkscape:cy="18.62325"
     inkscape:document-units="px"
     inkscape:current-layer="layer1"
     showgrid="false"
     units="px"
     inkscape:window-width="1280"
     inkscape:window-height="658"
     inkscape:window-x="-8"
     inkscape:window-y="-8"
     inkscape:window-maximized="1"
     showguides="true"
     guidecolor="#af0000"
     guideopacity="0.49803922"
     guidehicolor="#ff4b4b"
     guidehiopacity="0.49803922"
     inkscape:snap-global="false">
    <inkscape:grid
       type="xygrid"
       id="grid815"
       empspacing="1"
       originx="0"
       originy="0"
       spacingx="0"
       spacingy="0"
       snapvisiblegridlinesonly="true"
       visible="true"
       enabled="true"
       dotted="false" />
  </sodipodi:namedview>
  <metadata
     id="metadata5">
    <rdf:RDF>
      <cc:Work
         rdf:about="">
        <dc:format>image/svg+xml</dc:format>
        <dc:type
           rdf:resource="http://purl.org/dc/dcmitype/StillImage" />
        <dc:title></dc:title>
      </cc:Work>
    </rdf:RDF>
  </metadata>
  <g
     inkscape:label="Guides"
     inkscape:groupmode="layer"
     id="layer1"
     transform="translate(0,-288.53332)">
    <path
       style="color:#000000;font-style:normal;font-variant:normal;font-weight:normal;font-stretch:normal;font-size:medium;line-height:normal;font-family:sans-serif;font-variant-ligatures:normal;font-variant-position:normal;font-variant-caps:normal;font-variant-numeric:normal;font-variant-alternates:normal;font-feature-settings:normal;text-indent:0;text-align:start;text-decoration:none;text-decoration-line:none;text-decoration-style:solid;text-decoration-color:#000000;letter-spacing:normal;word-spacing:normal;text-transform:none;writing-mode:lr-tb;direction:ltr;text-orientation:mixed;dominant-baseline:auto;baseline-shift:baseline;text-anchor:start;white-space:normal;shape-padding:0;clip-rule:nonzero;display:inline;overflow:visible;visibility:visible;opacity:1;isolation:auto;mix-blend-mode:normal;color-interpolation:sRGB;color-interpolation-filters:linearRGB;solid-color:#000000;solid-opacity:1;vector-effect:none;fill:#000000;fill-opacity:1;fill-rule:nonzero;stroke:none;stroke-width:0.26458335;stroke-linecap:round;stroke-linejoin:round;stroke-miterlimit:4;stroke-dasharray:none;stroke-dashoffset:0;stroke-opacity:1;paint-order:normal;color-rendering:auto;image-rendering:auto;shape-rendering:auto;text-rendering:auto;enable-background:accumulate"
       d="m 4.2289678,289.06243 c -0.412083,0 -0.824257,0.10841 -1.1933039,0.32519 -0.5292764,0.31093 -0.9073811,0.81309 -1.0816545,1.39014 h -0.023755 c -0.3333957,0 -0.6073417,0.27928 -0.6073417,0.6182 v 0.38878 c 0,0.33891 0.273946,0.6182 0.6073417,0.6182 h 0.3262384 c 0.1601241,0 0.3068104,-0.0654 0.4165082,-0.16985 0.1612769,0.31208 0.4069518,0.56772 0.7094894,0.73894 -0.037524,0.0164 -0.073309,0.0372 -0.1100655,0.0556 -0.018691,0.009 -0.036952,0.0192 -0.05543,0.029 -0.087904,0.0467 -0.1735773,0.0981 -0.2565565,0.1553 -0.00483,0.003 -0.010236,0.006 -0.015047,0.009 -6.405e-4,4.5e-4 -9.486e-4,10e-4 -0.00157,0.002 -0.2623305,0.18367 -0.5001162,0.4146 -0.7023627,0.68019 -0.4981542,0.65417 -0.8020265,1.50896 -0.8021347,2.36089 v 0.20687 h 0.2011293 5.3956023 v -0.20687 c -1.03e-4,-0.85191 -0.3039781,-1.70672 -0.8021348,-2.36089 -0.2022474,-0.26559 -0.439241,-0.49652 -0.7015705,-0.68019 -6.486e-4,-4.5e-4 -9.324e-4,-0.001 -0.00157,-0.002 -0.00461,-0.003 -0.00962,-0.006 -0.01425,-0.009 -0.084634,-0.0584 -0.1723439,-0.11028 -0.2620992,-0.15778 -0.015544,-0.008 -0.031023,-0.0162 -0.046718,-0.0241 -0.038101,-0.0192 -0.075095,-0.041 -0.1140249,-0.0579 0.3003486,-0.17005 0.5450125,-0.42338 0.706322,-0.73249 0.1081945,0.10031 0.2503636,0.16339 0.407006,0.16339 H 6.533245 c 0.3333954,0 0.6105089,-0.27928 0.6105089,-0.6182 v -0.38877 c 0,-0.33892 -0.2771135,-0.61821 -0.6105089,-0.61821 H 6.503946 c -0.1743791,-0.57691 -0.5525033,-1.07928 -1.0816541,-1.39013 -0.3690467,-0.2168 -0.781221,-0.32519 -1.1933039,-0.32519 z m 0,0.41213 c 0.342018,0 0.6839307,0.0903 0.9905926,0.27045 0.404655,0.23772 0.675739,0.62258 0.8322248,1.0561 -0.04615,0.0125 -0.089427,0.0311 -0.1306536,0.0539 -0.1426438,-0.45227 -0.4534167,-0.82436 -0.859939,-1.044 -7.298e-4,-4.1e-4 -0.00165,-4.1e-4 -0.00239,-8.1e-4 -0.071934,-0.0388 -0.1452012,-0.0737 -0.2225072,-0.10219 -0.036822,-0.014 -0.075227,-0.0238 -0.1132327,-0.0354 -0.055934,-0.0163 -0.1106401,-0.0343 -0.1686622,-0.045 -0.086237,-0.0165 -0.1753825,-0.0246 -0.2660585,-0.0274 -0.017239,-5.1e-4 -0.033322,-0.006 -0.050677,-0.006 -0.01683,0 -0.032377,0.005 -0.049095,0.005 -0.092127,0.003 -0.1824932,0.0109 -0.2700173,0.0282 -0.054901,0.0109 -0.1069198,0.0273 -0.1599519,0.0427 -0.041848,0.0125 -0.083911,0.0238 -0.124319,0.0394 -0.074211,0.0276 -0.1445515,0.0611 -0.2137971,0.0981 -0.00634,0.003 -0.012719,0.006 -0.019003,0.0109 -0.4017312,0.22149 -0.7069246,0.59261 -0.8472549,1.0424 -0.046012,-0.0265 -0.095091,-0.0473 -0.1472821,-0.0612 0.1565167,-0.43281 0.4270685,-0.81692 0.8314328,-1.05447 0.3066622,-0.18015 0.6485743,-0.27046 0.9905927,-0.27046 z m 0.00871,0.53368 c 0.09454,0 0.188051,0.009 0.2771444,0.0282 0.0044,9.1e-4 0.00829,0.003 0.012672,0.005 0.084626,0.0184 0.1666915,0.0438 0.244679,0.0773 0.00832,0.003 0.015524,0.009 0.023754,0.0125 0.071839,0.0326 0.1412449,0.0695 0.2058789,0.11355 0.019383,0.014 0.035977,0.0301 0.054637,0.0442 0.050122,0.0382 0.099653,0.077 0.1441148,0.1215 0.029277,0.0294 0.053407,0.0637 0.079976,0.0958 0.028975,0.0349 0.059979,0.0678 0.085518,0.10546 0.038227,0.0565 0.069979,0.11791 0.099771,0.18031 0.00739,0.0156 0.016914,0.0294 0.023754,0.045 0.029093,0.0671 0.050361,0.13769 0.068889,0.21008 0.00417,0.016 0.01065,0.0311 0.01425,0.0475 0.015431,0.0706 0.022363,0.14455 0.026925,0.21894 8.919e-4,0.014 0.00349,0.0276 0.00396,0.0419 -9.325e-4,0.014 -0.00396,0.0271 -0.00396,0.0411 v 0.0933 c -0.00247,0.0402 -0.00615,0.0801 -0.011876,0.11916 -0.00627,0.0416 -0.012289,0.0832 -0.022172,0.12399 -0.00745,0.031 -0.017478,0.0607 -0.026924,0.091 -0.00256,0.008 -0.00599,0.016 -0.00871,0.0241 -0.5647054,0.29047 -0.7166229,0.36054 -1.2990695,0.39423 -0.2905325,-0.006 -0.2669341,0.44739 0.021379,0.41052 0.4199094,-0.0243 0.4363878,-0.0548 0.8675164,-0.19299 -0.2341574,0.20081 -0.5324928,0.32703 -0.8631063,0.33164 -0.00643,-7e-5 -0.012565,-0.002 -0.019003,-0.002 -0.00619,0 -0.012029,0.002 -0.018212,0.002 -0.5591137,-0.008 -1.0343989,-0.35021 -1.2400224,-0.84196 -0.00201,-0.008 -0.00439,-0.014 -0.00712,-0.0209 -0.032851,-0.081 -0.057865,-0.16508 -0.075222,-0.25034 -0.017437,-0.0891 -0.026923,-0.18155 -0.026923,-0.2761 4.5e-6,-0.77179 0.6090481,-1.39334 1.3675086,-1.39334 z M 1.9302557,291.1915 H 2.256494 c 0.1158117,0 0.2035031,0.0868 0.2035031,0.20446 v 0.38878 c 0,0.002 -7.419e-4,0.003 -7.906e-4,0.006 -9.324e-4,0.0279 -0.00858,0.0561 -0.031674,0.0958 -0.00487,0.009 -0.00912,0.0179 -0.012672,0.0274 -0.036687,0.0472 -0.091956,0.078 -0.1583683,0.078 H 1.9302543 c -0.1158116,0 -0.203503,-0.0891 -0.203503,-0.20688 v -0.38877 c 0,-0.11776 0.087691,-0.20446 0.203503,-0.20446 z m 4.2767315,0 h 0.3262385 c 0.1158116,0 0.203503,0.0868 0.203503,0.20446 v 0.38878 c 0,0.11775 -0.087691,0.20688 -0.203503,0.20687 H 6.2069808 c -0.056009,0 -0.1048296,-0.0207 -0.1409476,-0.0555 -0.00528,-0.014 -0.011922,-0.026 -0.019797,-0.0379 -0.03005,-0.0439 -0.041967,-0.0779 -0.041967,-0.11355 v -0.21974 c 8.52e-5,-0.006 -1.791e-4,-0.014 -8.108e-4,-0.0209 v -0.0508 c 0.00157,-0.031 0.0095,-0.0603 0.0095,-0.0917 0,-0.008 -0.00227,-0.0156 -0.00239,-0.0226 0.00745,-0.0813 0.053016,-0.14518 0.1195673,-0.17307 0.023587,-0.009 0.049313,-0.014 0.076844,-0.014 z m -2.0057327,2.01075 c 0.012442,2.7e-4 0.023924,0.005 0.036423,0.005 0.012213,0 0.023485,-0.003 0.035632,-0.005 0.052944,0.001 0.1228035,0.006 0.2042949,0.0156 0.1935566,0.0285 0.3806543,0.0942 0.559831,0.18513 -0.00585,0.0255 -0.035215,0.0531 -0.1021464,0.0829 -0.2254077,0.13163 -0.4440374,0.24351 -0.6976117,0.2439 -0.2535739,-3.9e-4 -0.457927,-0.13489 -0.6698973,-0.26644 -0.051221,-0.028 -0.08196,-0.0533 -0.098979,-0.0757 0.2324687,-0.11308 0.4781826,-0.17944 0.7324523,-0.18513 z m -1.1624218,0.46122 c 0.3252402,0.30381 0.7530299,0.47587 1.1988466,0.47654 0.4458171,-6.7e-4 0.8736067,-0.17273 1.1988467,-0.47654 0.1722285,0.13941 0.3338975,0.30328 0.4774802,0.49184 0.3981913,0.52289 0.5980135,1.22137 0.646142,1.90126 H 1.9152093 c 0.048132,-0.67989 0.2487447,-1.37837 0.6469338,-1.90126 0.1435019,-0.18845 0.3045692,-0.35244 0.4766881,-0.49184 z"
       id="ellipse1017"
       inkscape:connector-curvature="0"
       sodipodi:nodetypes="sccssssscccccccscccccscccccccsssssccsscccccccccscccccccccsscccccccccccccccscccccccccscccccsssssccccsssssssscsccsccccccscscccccccccccccccc" />
  </g>
</svg>
