<?xml version="1.0" encoding="UTF-8"?>
<!DOCTYPE svg PUBLIC "-//W3C//DTD SVG 1.1//EN" "http://www.w3.org/Graphics/SVG/1.1/DTD/svg11.dtd">
<!-- Creator: CorelDRAW -->
<svg xmlns="http://www.w3.org/2000/svg" xml:space="preserve" width="7.11111in" height="7.11111in" version="1.1" style="shape-rendering:geometricPrecision; text-rendering:geometricPrecision; image-rendering:optimizeQuality; fill-rule:evenodd; clip-rule:evenodd"
viewBox="0 0 7111 7111"
 xmlns:xlink="http://www.w3.org/1999/xlink">
 <defs>
  <style type="text/css">
   <![CDATA[
    .fil0 {fill:black}
   ]]>
  </style>
 </defs>
 <g id="Layer_x0020_1">
  <metadata id="CorelCorpID_0Corel-Layer"/>
  <path class="fil0" d="M5372 3841c-53,0 -102,-35 -116,-89 -17,-64 21,-130 85,-147l547 -147c64,-17 130,21 147,85 17,64 -21,130 -85,147l-547 147c-11,3 -21,4 -31,4zm235 3246l-4103 0c-69,0 -125,-61 -119,-130l107 -1339c2,-26 58,-297 422,-383l872 -210 118 -501c-274,-334 -316,-668 -322,-765 -277,-619 -222,-1152 151,-1465 90,-76 328,-260 581,-328 397,-107 886,-66 1136,234 136,163 98,280 229,436 248,295 39,751 -113,1084 -12,26 -23,51 -34,75 -8,93 -53,399 -325,729l118 501 873 210c363,86 419,358 421,383l107 1339c6,69 -50,130 -119,130zm-2587 -2009l536 417 535 -417 -88 -375c-301,206 -594,206 -895,0l-88 375zm-1385 1769l540 0 0 -271 -519 0 -21 271zm780 0l2281 0 0 -587c0,-66 54,-120 120,-120 67,0 120,54 120,120l0 76 500 0 -56 -688c-8,-26 -55,-137 -237,-179l-889 -214 -625 487c-43,34 -104,34 -147,0l-624 -487 -889 214c-183,42 -230,153 -238,179l-55 688 499 0 0 -76c0,-66 53,-120 120,-120 66,0 120,54 120,120l0 587zm2521 0l541 0 -22 -271 -519 0 0 271zm-2112 -3080c10,95 58,358 276,618l23 23c81,77 261,213 430,209 2,0 4,0 6,0 168,4 348,-132 429,-209l23 -23c247,-294 278,-563 282,-613 -89,-591 -303,-811 -418,-811 -33,0 -66,16 -101,48 -147,136 -288,203 -431,203 -119,0 -180,-37 -262,-66 -8,15 -20,44 -34,97 -42,159 -114,372 -223,524zm893 -1615c-112,0 -230,16 -341,46 -206,56 -411,214 -489,280 -313,263 -258,683 -164,977 33,-79 65,-171 92,-274 22,-84 75,-281 249,-281 181,0 258,200 547,-67 79,-74 170,-112 264,-112 242,0 453,250 577,661 91,-225 153,-461 43,-591 -160,-190 -132,-320 -229,-437 -109,-130 -303,-202 -549,-202zm-152 4567c-66,0 -120,-53 -120,-120l0 -93c0,-67 54,-121 120,-121 67,0 121,54 121,121l0 93c0,67 -54,120 -121,120zm0 -449c-66,0 -120,-54 -120,-120l0 -94c0,-66 54,-120 120,-120 67,0 121,54 121,120l0 94c0,66 -54,120 -121,120zm441 -4621c-18,0 -36,-4 -53,-12l-397 -191 -398 191c-86,42 -184,-30 -171,-124l59 -437 -305 -320c-66,-68 -28,-184 65,-201l435 -79 209 -389c45,-83 166,-83 211,0l210 389 434 79c94,17 131,133 65,201l-305 320 60 437c9,71 -48,136 -119,136zm-450 -457c17,0 35,4 52,12l249 120 -38 -274c-4,-36 7,-72 33,-99l191 -199 -272 -50c-36,-6 -67,-29 -85,-61l-130 -243 -131 243c-18,32 -49,55 -85,61l-272 50 191 199c26,27 38,63 33,99l-38 274 249 -120c17,-8 35,-12 53,-12zm-1696 873c-18,0 -35,-4 -52,-12l-533 -257 -533 257c-85,41 -184,-30 -171,-124l80 -586 -409 -428c-66,-69 -28,-184 65,-201l582 -106 280 -521c45,-83 167,-83 212,0l280 521 582 106c94,17 131,132 66,201l-409 428 79 586c10,71 -48,136 -119,136zm-585 -522c18,0 36,4 52,12l384 185 -57 -422c-5,-37 7,-73 32,-100l295 -308 -420 -76c-36,-6 -67,-29 -84,-61l-202 -375 -202 375c-17,32 -48,55 -84,61l-419 76 294 308c25,27 37,63 32,100l-57 422 384 -185c17,-8 34,-12 52,-12zm3976 522c-71,0 -129,-65 -119,-136l79 -586 -408 -428c-66,-69 -29,-184 65,-201l582 -106 280 -521c45,-83 167,-83 212,0l280 521 582 106c93,17 131,132 65,201l-409 428 80 586c13,94 -86,165 -171,124l-533 -257 -533 257c-17,8 -34,12 -52,12zm-121 -1155l295 308c25,27 37,63 32,99l-57 423 384 -185c33,-16 71,-16 104,0l384 185 -57 -423c-5,-36 7,-72 32,-99l294 -308 -419 -76c-36,-6 -67,-29 -84,-61l-202 -375 -202 375c-17,32 -48,55 -84,61l-420 76zm-3454 3475l-567 0c-66,0 -120,-54 -120,-120 0,-66 54,-120 120,-120l567 0c66,0 120,54 120,120 0,66 -54,120 -120,120zm-468 689c-53,0 -101,-36 -116,-89 -17,-64 21,-130 85,-147l547 -147c64,-17 130,21 147,85 18,64 -20,130 -84,147l-548 147c-10,2 -21,4 -31,4zm531 -1233c-10,0 -20,-1 -31,-4l-547 -147c-64,-17 -102,-83 -85,-147 17,-64 83,-102 147,-85l547 147c64,17 102,83 85,147 -14,54 -63,89 -116,89zm4263 544l-567 0c-66,0 -120,-54 -120,-120 0,-66 54,-120 120,-120l567 0c66,0 120,54 120,120 0,66 -54,120 -120,120zm-99 689c-10,0 -21,-2 -31,-4l-547 -147c-64,-17 -102,-83 -85,-147 17,-64 83,-102 147,-85l547 147c64,17 102,83 85,147 -14,53 -63,89 -116,89z"/>
 </g>
</svg>
