<?xml version="1.0" encoding="UTF-8"?>
<!DOCTYPE svg PUBLIC "-//W3C//DTD SVG 1.1//EN" "http://www.w3.org/Graphics/SVG/1.1/DTD/svg11.dtd">
<!-- Creator: CorelDRAW -->
<svg xmlns="http://www.w3.org/2000/svg" xml:space="preserve" width="1.70666in" height="1.70666in" version="1.1" style="shape-rendering:geometricPrecision; text-rendering:geometricPrecision; image-rendering:optimizeQuality; fill-rule:evenodd; clip-rule:evenodd"
viewBox="0 0 1706.66 1706.66"
 xmlns:xlink="http://www.w3.org/1999/xlink"
 xmlns:xodm="http://www.corel.com/coreldraw/odm/2003">
 <defs>
  <style type="text/css">
   <![CDATA[
    .fil0 {fill:black}
   ]]>
  </style>
 </defs>
 <g id="Layer_x0020_1">
  <metadata id="CorelCorpID_0Corel-Layer"/>
  <path class="fil0" d="M990.41 1706.05l-672.26 0c-53.57,0 -97.08,-43.5 -97.08,-97.07l0 -1089.94c0,-53.57 43.5,-97.08 97.08,-97.08l672.26 0c53.57,0 97.07,43.5 97.07,97.08l0 1089.94c0,53.57 -43.5,97.07 -97.07,97.07zm-672.26 -1243.66c-31.33,0 -56.79,25.46 -56.79,56.79l0 1089.94c0,31.33 25.46,56.79 56.79,56.79l672.26 -0c31.33,0 56.79,-25.46 56.79,-56.79l0 -1090.07c0,-31.33 -25.46,-56.79 -56.79,-56.79l-672.26 0 0 0.14z"/>
  <path class="fil0" d="M906.49 947.49l-504.41 0c-32.31,0 -58.61,-26.3 -58.61,-58.61l0 -295.56c0,-32.31 26.3,-58.61 58.61,-58.61l504.41 -0c32.31,0 58.61,26.3 58.61,58.61l0 295.56c0,32.31 -26.3,58.61 -58.61,58.61zm-504.41 -372.5c-10.07,0 -18.32,8.25 -18.32,18.32l0 295.56c0,10.07 8.25,18.32 18.32,18.32l504.41 0c10.07,0 18.32,-8.25 18.32,-18.32l0 -295.56c0,-10.07 -8.25,-18.32 -18.32,-18.32l-504.41 -0z"/>
  <path class="fil0" d="M940.34 462.39l-571.97 0c-11.19,0 -20.14,-8.95 -20.14,-20.14l0 -219.47c0,-11.19 8.95,-20.14 20.14,-20.14l132.61 0c11.19,0 20.14,8.95 20.14,20.14l0 82.53 266.75 -0.28 -0.28 -82.25c-0.02,-11.15 8.97,-20.14 20.14,-20.14l132.61 0c11.05,0 20.14,8.95 20.14,20.14l0 219.33c0,11.19 -9.09,20.28 -20.14,20.28zm-551.83 -40.28l531.68 0 0 -179.05 -92.18 0 0.28 82.25c0.02,11.15 -8.96,20.14 -20.14,20.14l-307.17 0.28c-11.17,0 -20.15,-8.98 -20.15,-20.14l0 -82.67 -92.32 0 0 179.19z"/>
  <path class="fil0" d="M865.22 345.73l-421.74 0c-26.55,0 -26.55,-40.28 0,-40.28l421.74 0c26.51,0 26.51,40.28 0,40.28z"/>
  <path class="fil0" d="M500.83 345.73c-11.18,0 -20.14,-8.98 -20.14,-20.14l0 -304.8c0,-18.02 22.15,-27.17 34.83,-13.85l54.97 57.91 46.44 -56.79c7.91,-9.64 23.2,-10.09 31.33,0.14l40.29 50.64 32.87 -49.09c6.67,-9.91 20.35,-11.75 29.37,-4.48l68.96 55.53c4.75,3.78 7.55,9.51 7.55,15.67l0.84 248.85c0.02,11.15 -8.96,20.14 -20.14,20.14l-307.17 0.28c0.14,0 0.14,0 0,0zm20.14 -274.44l0 234.16 266.75 -0.28 -0.7 -219.05 -44.34 -35.67 -35.94 53.72c-7.76,11.47 -24.2,11.86 -32.59,1.4l-41.96 -52.59 -45.18 55.11c-7.71,9.45 -21.84,9.88 -30.21,1.12l-35.81 -37.91z"/>
  <path class="fil0" d="M1388.51 1440.14l-321.17 0c-11.05,0 -20.14,-9.09 -20.14,-20.14l0 -525.67c0,-11.05 9.09,-20.14 20.14,-20.14l321.17 0c53.57,0 97.07,43.5 97.07,97.07l0 371.94c-0,53.43 -43.5,96.93 -97.07,96.93zm-301.02 -40.28l301.02 0c31.33,0 56.79,-25.46 56.79,-56.79l-0 -371.94c0,-31.33 -25.46,-56.79 -56.8,-56.79l-301.02 0 0 485.52z"/>
  <path class="fil0" d="M1465.44 1191.16l-398.09 0c-11.05,0 -20.14,-9.09 -20.14,-20.15l0 -145.05c0,-11.05 9.09,-20.15 20.14,-20.15l398.09 0c11.05,0 20.14,9.09 20.14,20.15l0 145.19c0,11.05 -9.09,20 -20.14,20zm-377.95 -40.29l357.81 0 0 -104.77 -357.81 0 0 104.77z"/>
  <path class="fil0" d="M424.88 1088.63l-77.5 0c-26.52,0 -26.52,-40.28 0,-40.28l77.5 0c26.51,0 26.52,40.28 0,40.28z"/>
  <path class="fil0" d="M607 1088.63l-77.49 0c-26.52,0 -26.52,-40.28 0,-40.28l77.49 0c26.58,0 26.43,40.28 0,40.28z"/>
  <path class="fil0" d="M788.98 1088.63l-77.49 0c-26.52,0 -26.52,-40.28 0,-40.28l77.49 0c26.52,0 26.52,40.28 0,40.28z"/>
  <path class="fil0" d="M971.11 1088.63l-77.49 0c-26.48,0 -26.48,-40.28 0,-40.28l77.49 0c26.48,0 26.48,40.28 0,40.28z"/>
  <path class="fil0" d="M424.88 1208.22l-77.5 0c-26.52,0 -26.52,-40.28 0,-40.28l77.5 0c26.51,0 26.52,40.28 0,40.28z"/>
  <path class="fil0" d="M607 1208.22l-77.49 0c-26.52,0 -26.52,-40.28 0,-40.28l77.49 0c26.58,0 26.43,40.28 0,40.28z"/>
  <path class="fil0" d="M788.98 1208.22l-77.49 0c-26.52,0 -26.52,-40.28 0,-40.28l77.49 0c26.52,0 26.52,40.28 0,40.28z"/>
  <path class="fil0" d="M971.11 1208.22l-77.49 0c-26.48,0 -26.48,-40.28 0,-40.28l77.49 0c26.48,0 26.48,40.28 0,40.28z"/>
  <path class="fil0" d="M424.88 1447.56l-77.5 0c-26.52,0 -26.52,-40.29 0,-40.29l77.5 0c26.51,0 26.52,40.29 0,40.29z"/>
  <path class="fil0" d="M607 1447.56l-77.49 0c-26.52,0 -26.52,-40.29 0,-40.29l77.49 0c26.58,0 26.43,40.29 0,40.29z"/>
  <path class="fil0" d="M788.98 1447.56l-77.49 0c-26.52,0 -26.52,-40.29 0,-40.29l77.49 0c26.52,0 26.52,40.29 0,40.29z"/>
  <path class="fil0" d="M971.11 1447.56l-77.49 0c-26.48,0 -26.48,-40.29 0,-40.29l77.49 0c26.48,0 26.48,40.29 0,40.29z"/>
  <path class="fil0" d="M425.02 1327.82l-77.49 0c-26.52,0 -26.52,-40.28 0,-40.28l77.49 0c26.52,0 26.52,40.28 0,40.28z"/>
  <path class="fil0" d="M607.14 1327.82l-77.49 0c-26.52,0 -26.52,-40.28 0,-40.28l77.49 0c26.58,0 26.43,40.28 0,40.28z"/>
  <path class="fil0" d="M789.13 1327.82l-77.5 0c-26.52,0 -26.52,-40.28 0,-40.28l77.5 0c26.52,0 26.52,40.28 0,40.28z"/>
  <path class="fil0" d="M971.25 1327.82l-77.49 0c-26.48,0 -26.48,-40.28 0,-40.28l77.49 0c26.43,0 26.58,40.28 0,40.28z"/>
  <path class="fil0" d="M424.88 1567.15l-77.5 0c-26.52,0 -26.52,-40.29 0,-40.29l77.5 0c26.51,0 26.52,40.29 0,40.29z"/>
  <path class="fil0" d="M607 1567.15l-77.49 0c-26.52,0 -26.52,-40.29 0,-40.29l77.49 0c26.58,0 26.43,40.29 0,40.29z"/>
  <path class="fil0" d="M788.98 1567.15l-77.49 0c-26.52,0 -26.52,-40.29 0,-40.29l77.49 0c26.52,0 26.52,40.29 0,40.29z"/>
  <path class="fil0" d="M971.11 1567.15l-77.49 0c-26.48,0 -26.48,-40.29 0,-40.29l77.49 0c26.48,0 26.48,40.29 0,40.29z"/>
 </g>
</svg>
