<?xml version="1.0" encoding="UTF-8" standalone="no"?> <svg id="Layer_1" data-name="Layer 1" xmlns="http://www.w3.org/2000/svg" viewBox="0 0 64 64"><path d="M7,62H33a5.006,5.006,0,0,0,5-5V52a1,1,0,0,0-2,0v5a3,3,0,0,1-3,3H7a3,3,0,0,1-3-3V7A3,3,0,0,1,7,4H33a3,3,0,0,1,3,3v5a1,1,0,0,0,2,0V7a5.006,5.006,0,0,0-5-5H7A5.006,5.006,0,0,0,2,7V57A5.006,5.006,0,0,0,7,62Z"/><path d="M21,7a1,1,0,0,0,0-2H19a1,1,0,0,0,0,2Z"/><path d="M19,56a1,1,0,0,0,0,2h2a1,1,0,0,0,0-2Z"/><path d="M8,56a1,1,0,0,0,0,2h2a1,1,0,0,0,0-2Z"/><path d="M30,56a1,1,0,0,0,0,2h2a1,1,0,0,0,0-2Z"/><path d="M34,53V52a1,1,0,0,0-2,0H8V10H32v2a1,1,0,0,0,2,0V9a1,1,0,0,0-1-1H7A1,1,0,0,0,6,9V53a1,1,0,0,0,1,1H33A1,1,0,0,0,34,53Z"/><path d="M61.8,47.4l-3-4A1,1,0,0,0,58,43H56.635a3.06,3.06,0,0,0-.025-.468l-.164-1c-.559-4.507-1.8-7.595-3.992-9.939V26.783a9.19,9.19,0,0,0,6.306-6.439L59.9,16.181a2.948,2.948,0,0,0-2.13-3.634l-.181-.045a2.95,2.95,0,0,0-3.573,2.144c-.641,2.562-1.062,4.2-3.292,4.924A4.947,4.947,0,0,0,51.454,17a5,5,0,1,0-8.024,3.954l-.8.268a9.007,9.007,0,0,0-4.512,3.331l-2.338,3.272a2.9,2.9,0,0,0,.787,4.117,2.959,2.959,0,0,0,3.725-.362l2.165-2.165v3.444l-2.777,9.647A2.71,2.71,0,0,0,39.6,43H32a1,1,0,0,0-.8,1.6l3,4a1,1,0,0,0,.8.4H61a1,1,0,0,0,.8-1.6ZM46.454,14a3,3,0,1,1-3,3A3,3,0,0,1,46.454,14ZM41.6,43.059l2.816-9.782A1,1,0,0,0,44.454,33V27a1,1,0,0,0-1.707-.707l-3.873,3.873a.954.954,0,0,1-1.237.087.9.9,0,0,1-.233-1.266l2.338-3.271a7.025,7.025,0,0,1,3.518-2.6L46.616,22h.538c7.081,0,7.877-3.183,8.8-6.869a.946.946,0,0,1,1.15-.688l.181.045a.945.945,0,0,1,.683,1.167l-1.135,4.162a7.21,7.21,0,0,1-5.573,5.2,1,1,0,0,0-.8.98v6a1,1,0,0,0,.293.707c2.044,2.044,3.19,4.842,3.72,9.11l.169,1.037h0A.986.986,0,0,1,53.663,44a.987.987,0,0,1-.972-.813L51.7,37.638a3.072,3.072,0,0,0-5.709-1.09.985.985,0,0,0-.051.1l-2.953,6.9a.764.764,0,0,1-1.266.153A.731.731,0,0,1,41.6,43.059ZM50.626,43H45.4l2.353-5.5a1.076,1.076,0,0,1,.907-.5,1.089,1.089,0,0,1,1.067.956ZM35.5,47,34,45h6.207a2.72,2.72,0,0,0,4.214,0h7.018a2.969,2.969,0,0,0,4.444,0H57.5L59,47Z"/><path d="M25,50h4a1,1,0,0,0,0-2H26V14h3a1,1,0,0,0,0-2H25a1,1,0,0,0-1,1v3.655L13.214,30.382a1,1,0,0,0,0,1.236l4,5.09a1,1,0,1,0,1.572-1.235L15.272,31,24,19.891V42.109l-2.928-3.727A1,1,0,0,0,19.5,39.618L24,45.345V49A1,1,0,0,0,25,50Z"/><path d="M31,19a1,1,0,0,0,0-2H30a1,1,0,0,0,0,2Z"/><path d="M40,18a1,1,0,0,0-1-1H35a1,1,0,0,0,0,2h4A1,1,0,0,0,40,18Z"/><path d="M29,21H28a1,1,0,0,0,0,2h1a1,1,0,0,0,0-2Z"/><path d="M33,23h4a1,1,0,0,0,0-2H33a1,1,0,0,0,0,2Z"/><path d="M58,5a1,1,0,0,0,1-1V3a1,1,0,0,0-2,0V4A1,1,0,0,0,58,5Z"/><path d="M60,7h1a1,1,0,0,0,0-2H60a1,1,0,0,0,0,2Z"/><path d="M59,9V8a1,1,0,0,0-2,0V9a1,1,0,0,0,2,0Z"/><path d="M54,6a1,1,0,0,0,1,1h1a1,1,0,0,0,0-2H55A1,1,0,0,0,54,6Z"/></svg>