<?xml version="1.0" encoding="UTF-8"?><svg id="a" xmlns="http://www.w3.org/2000/svg" viewBox="0 0 64 64"><defs><style>.b{fill:#c3eaf4;}.c{fill:#e2cc93;}.d{fill:#94dbe3;}.e{fill:#94b6e3;}</style></defs><polyline class="e" points="19 44 19 62 15 62 12 48 9 62 5 62 5 44"/><path class="d" d="M10,24h4c3.31,0,6,2.69,6,6v14H4v-14c0-3.31,2.69-6,6-6Z"/><path class="d" d="M48.32,48.34c-2.04,1.02-3.32,3.1-3.32,5.37v6.29c0,.55,.22,1.05,.59,1.41,.36,.37,.86,.59,1.41,.59,1.1,0,2-.9,2-2v-4c0-1.1,.9-2,2-2h5c3.31,0,6-2.69,6-6v-9c0-1.66-.67-3.16-1.76-4.24-1.08-1.09-2.58-1.76-4.24-1.76-3.31,0-6,2.69-6,6v3h-8c-.55,0-1.05,.22-1.41,.59-.37,.36-.59,.86-.59,1.41,0,1.1,.9,2,2,2h11l-4.68,2.34Z"/><path class="b" d="M38.51,50h-13.03c-1.59,0-3.12-.63-4.24-1.76l-2.24-2.24h26l-2.24,2.24c-1.13,1.13-2.65,1.76-4.24,1.76Z"/><path class="b" d="M28,62c0-2.21,1.79-4,4-4h0c2.21,0,4,1.79,4,4"/><circle class="d" cx="56" cy="25" r="5"/><polygon class="c" points="21 2 21 10 25 10 23 16 31 10 39 10 39 2 21 2"/><path class="e" d="M20.3,32.07l-3.28-2.34c-.96-.69-2.28-.58-3.12,.26h0c-1.08,1.08-.9,2.88,.37,3.72l6.03,4.02,10.92-8.49c.96-.75,1.05-2.16,.19-3.02h0c-.7-.7-1.8-.79-2.6-.22l-8.51,6.08Z"/><circle class="e" cx="12" cy="15" r="6"/><path d="M56,31c3.31,0,6-2.69,6-6s-2.69-6-6-6-6,2.69-6,6,2.69,6,6,6Zm0-10c2.21,0,4,1.79,4,4s-1.79,4-4,4-4-1.79-4-4,1.79-4,4-4Z"/><path d="M63,48v-9c0-3.86-3.14-7-7-7s-7,3.14-7,7v2h-7c-1.65,0-3,1.35-3,3,0,.35,.07,.69,.18,1H20c.55,0,1-.45,1-1v-5.55l10.83-8.43c.68-.53,1.11-1.33,1.16-2.2s-.27-1.71-.88-2.32c-1.05-1.05-2.68-1.18-3.89-.32l-7.22,5.16v-.34c0-3.86-3.14-7-7-7h-4c-3.86,0-7,3.14-7,7v14c0,.55,.45,1,1,1v16H1v2H63v-2h-5v-6.29c2.89-.86,5-3.54,5-6.71Zm-21-1h.59l-.54,.54c-.95,.94-2.2,1.46-3.54,1.46h-13.03c-1.33,0-2.59-.52-3.54-1.46l-.54-.54h20.59Zm-21.12-14.12l8.51-6.08c.41-.29,.96-.25,1.31,.11,.21,.21,.32,.49,.3,.79s-.16,.56-.39,.74l-10.35,8.05-5.43-3.62c-.36-.24-.58-.62-.62-1.04s.11-.84,.41-1.14c.28-.28,.64-.42,1-.42,.29,0,.58,.09,.83,.27l3.28,2.34c.35,.25,.81,.25,1.16,0Zm-10.64,28.12l1.76-8.23,1.76,8.23h-3.53Zm7.76,0h-2.19l-2.83-13.21c-.1-.46-.51-.79-.98-.79s-.88,.33-.98,.79l-2.83,13.21h-2.19v-16h12v16Zm1-18H5v-13c0-2.76,2.24-5,5-5h4c2.73,0,4.94,2.19,4.99,4.91l-1.39-1c-1.37-.97-3.22-.82-4.41,.36-.73,.73-1.09,1.73-.98,2.75,.1,1.02,.65,1.94,1.51,2.51l5.29,3.52v4.94Zm8.1,18h-7.1v-12.59l.54,.54c1.32,1.32,3.08,2.05,4.95,2.05h5.51v6.1c-1.96,.4-3.5,1.94-3.9,3.9Zm2.08,0c.41-1.16,1.51-2,2.82-2s2.4,.84,2.82,2h-5.63Zm7.71,0c-.4-1.96-1.94-3.5-3.9-3.9v-6.1h5.51c1.87,0,3.63-.73,4.95-2.05l1.95-1.95h3.35l-.89,.45c-2.39,1.19-3.87,3.59-3.87,6.26v6.29c0,.35,.07,.69,.18,1h-7.29Zm19.1,0h-6.18c.11-.31,.18-.65,.18-1v-4c0-.55,.45-1,1-1h5v6Zm0-8h-5c-1.65,0-3,1.35-3,3v4c0,.55-.45,1-1,1s-1-.45-1-1v-6.29c0-1.91,1.06-3.62,2.76-4.47l4.47-2.24h.76c.55,0,1-.45,1-1v-8h-2v7h-11c-.55,0-1-.45-1-1s.45-1,1-1h8c.55,0,1-.45,1-1v-3c0-2.76,2.24-5,5-5s5,2.24,5,5v9c0,2.76-2.24,5-5,5Z"/><path d="M21,11h2.61l-1.56,4.68c-.14,.42,0,.87,.36,1.13,.17,.13,.38,.19,.58,.19s.42-.07,.6-.2l7.73-5.8h7.67c.55,0,1-.45,1-1V2c0-.55-.45-1-1-1H21c-.55,0-1,.45-1,1V10c0,.55,.45,1,1,1Zm1-8h16v6h-7c-.22,0-.43,.07-.6,.2l-5.44,4.08,.99-2.96c.1-.31,.05-.64-.14-.9-.19-.26-.49-.42-.81-.42h-3V3Z"/><rect x="25" y="5" width="2" height="2"/><rect x="29" y="5" width="2" height="2"/><rect x="33" y="5" width="2" height="2"/><path d="M12,22c3.86,0,7-3.14,7-7s-3.14-7-7-7-7,3.14-7,7,3.14,7,7,7Zm0-12c2.76,0,5,2.24,5,5s-2.24,5-5,5-5-2.24-5-5,2.24-5,5-5Z"/></svg>