<?xml version="1.0" encoding="iso-8859-1"?>
<!-- Generator: Adobe Illustrator 16.0.0, SVG Export Plug-In . SVG Version: 6.00 Build 0)  -->
<!DOCTYPE svg PUBLIC "-//W3C//DTD SVG 1.1//EN" "http://www.w3.org/Graphics/SVG/1.1/DTD/svg11.dtd">
<svg version="1.1" xmlns="http://www.w3.org/2000/svg" xmlns:xlink="http://www.w3.org/1999/xlink" x="0px" y="0px" width="512px"
	 height="512px" viewBox="0 0 512 512" style="enable-background:new 0 0 512 512;" xml:space="preserve">
<g id="_x38_2_x2C__Chat_x2C__Experience_x2C__Testing_x2C__User">
	<g>
		<path id="XMLID_9277_" style="fill:#9BC9FF;" d="M486,291v24.33c0,11.42-9.25,20.67-20.67,20.67H301.67
			c-11.42,0-20.67-9.25-20.67-20.67V291H486z"/>
		<path id="XMLID_9279_" style="fill:#FFFFFF;" d="M486,291H281V71h205C486,86.678,486,282.452,486,291z"/>
		<path id="XMLID_9283_" style="fill:#9BC9FF;" d="M486,46.67V71H281V46.67C281,35.25,290.25,26,301.67,26h163.66
			C476.75,26,486,35.25,486,46.67z"/>
		<circle id="XMLID_9285_" style="fill:#1E81CE;" cx="458.5" cy="378.5" r="7.5"/>
		<path id="XMLID_9286_" style="fill:#FFFFFF;" d="M371,396c13.811,0,25,11.19,25,25s-11.189,25-25,25s-25-11.19-25-25
			S357.189,396,371,396z"/>
		<circle id="XMLID_9288_" style="fill:#1E81CE;" cx="293.5" cy="438.5" r="7.5"/>
		<circle id="XMLID_9289_" style="fill:#1E81CE;" cx="228.5" cy="58.5" r="7.5"/>
		<path id="XMLID_9290_" style="fill:#9BC9FF;" d="M231,441v24.33c0,11.42-9.25,20.67-20.67,20.67H46.67
			C35.25,486,26,476.75,26,465.33V441H231z"/>
		<path id="XMLID_9292_" style="fill:#FFFFFF;" d="M231,441H26V221h205C231,236.678,231,432.452,231,441z"/>
		<path id="XMLID_9296_" style="fill:#9BC9FF;" d="M231,196.67V221H26v-24.33C26,185.25,35.25,176,46.67,176h163.66
			C221.75,176,231,185.25,231,196.67z"/>
		<circle id="XMLID_9298_" style="fill:#1E81CE;" cx="178.5" cy="128.5" r="7.5"/>
		<circle id="XMLID_9299_" style="fill:#FFFFFF;" cx="106" cy="106" r="30"/>
		<circle id="XMLID_9301_" style="fill:#1E81CE;" cx="43.5" cy="73.5" r="7.5"/>
		<g id="XMLID_9302_">
			<path id="XMLID_9303_" style="fill:#1E81CE;" d="M210.33,491H46.67C32.516,491,21,479.484,21,465.33V196.67
				C21,182.516,32.516,171,46.67,171h163.66c14.154,0,25.67,11.516,25.67,25.67v268.66C236,479.484,224.484,491,210.33,491z
				 M46.67,181C38.029,181,31,188.029,31,196.67v268.66c0,8.641,7.029,15.67,15.67,15.67h163.66c8.641,0,15.67-7.029,15.67-15.67
				V196.67c0-8.641-7.029-15.67-15.67-15.67H46.67z"/>
		</g>
		<g id="XMLID_9306_">
			<path id="XMLID_9307_" style="fill:#1E81CE;" d="M231,226H26c-2.761,0-5-2.239-5-5s2.239-5,5-5h205c2.761,0,5,2.239,5,5
				S233.761,226,231,226z"/>
		</g>
		<g id="XMLID_9308_">
			<path id="XMLID_9309_" style="fill:#1E81CE;" d="M231,446H26c-2.761,0-5-2.238-5-5s2.239-5,5-5h205c2.761,0,5,2.238,5,5
				S233.761,446,231,446z"/>
		</g>
		<g id="XMLID_9310_">
			<path id="XMLID_9311_" style="fill:#1E81CE;" d="M465.33,341H301.67c-14.154,0-25.67-11.516-25.67-25.67V46.67
				C276,32.516,287.516,21,301.67,21h163.66C479.484,21,491,32.516,491,46.67v268.66C491,329.484,479.484,341,465.33,341z
				 M301.67,31C293.029,31,286,38.029,286,46.67v268.66c0,8.641,7.029,15.67,15.67,15.67h163.66c8.641,0,15.67-7.029,15.67-15.67
				V46.67c0-8.641-7.029-15.67-15.67-15.67H301.67z"/>
		</g>
		<g id="XMLID_9314_">
			<path id="XMLID_9315_" style="fill:#1E81CE;" d="M486,76H281c-2.762,0-5-2.239-5-5s2.238-5,5-5h205c2.762,0,5,2.239,5,5
				S488.762,76,486,76z"/>
		</g>
		<g id="XMLID_9316_">
			<path id="XMLID_9317_" style="fill:#1E81CE;" d="M486,296H281c-2.762,0-5-2.238-5-5s2.238-5,5-5h205c2.762,0,5,2.238,5,5
				S488.762,296,486,296z"/>
		</g>
		<g id="XMLID_9318_">
			<path id="XMLID_9319_" style="fill:#1E81CE;" d="M391,181c-2.762,0-5-2.239-5-5s2.238-5,5-5c5.346,0,10.369-2.08,14.145-5.855
				S411,156.345,411,151c0-11.028-8.973-20-20-20h-60v45c0,2.761-2.238,5-5,5s-5-2.239-5-5v-50c0-2.761,2.238-5,5-5h65
				c16.542,0,30,13.458,30,30c0,8.017-3.119,15.551-8.784,21.216S399.017,181,391,181z"/>
		</g>
		<g id="XMLID_9320_">
			<path id="XMLID_9321_" style="fill:#1E81CE;" d="M406,231h-80c-2.762,0-5-2.239-5-5v-50c0-2.761,2.238-5,5-5h80
				c16.542,0,30,13.458,30,30c0,8.017-3.119,15.551-8.784,21.216S414.017,231,406,231z M331,221h75
				c5.346,0,10.369-2.08,14.145-5.855S426,206.345,426,201c0-11.028-8.973-20-20-20h-75V221z"/>
		</g>
		<g id="XMLID_9324_">
			<path id="XMLID_9325_" style="fill:#1E81CE;" d="M171.004,366.001c-1.834,0-3.6-1.013-4.476-2.765L126,282.181l-40.528,81.056
				c-1.235,2.47-4.239,3.471-6.708,2.235c-2.47-1.234-3.471-4.238-2.236-6.708l45-90C122.375,267.07,124.106,266,126,266
				c1.894,0,3.625,1.07,4.472,2.764l45,90c1.235,2.47,0.234,5.474-2.236,6.708C172.519,365.831,171.755,366.001,171.004,366.001z"/>
		</g>
		<g id="XMLID_9326_">
			<path id="XMLID_9327_" style="fill:#1E81CE;" d="M156,336H96c-2.761,0-5-2.238-5-5s2.239-5,5-5h60c2.761,0,5,2.238,5,5
				S158.761,336,156,336z"/>
		</g>
		<g id="XMLID_9328_">
			<path id="XMLID_9329_" style="fill:#1E81CE;" d="M371,451c-16.542,0-30-13.458-30-30s13.458-30,30-30s30,13.458,30,30
				S387.542,451,371,451z M371,401c-11.027,0-20,8.972-20,20s8.973,20,20,20s20-8.972,20-20S382.027,401,371,401z"/>
		</g>
		<g id="XMLID_9332_">
			<path id="XMLID_9333_" style="fill:#1E81CE;" d="M106,141c-19.299,0-35-15.701-35-35s15.701-35,35-35s35,15.701,35,35
				S125.299,141,106,141z M106,81c-13.785,0-25,11.215-25,25s11.215,25,25,25s25-11.215,25-25S119.785,81,106,81z"/>
		</g>
		<g id="XMLID_9336_">
			<path id="XMLID_9337_" style="fill:#1E81CE;" d="M486,266H371c-2.762,0-5-2.238-5-5s2.238-5,5-5h115c2.762,0,5,2.238,5,5
				S488.762,266,486,266z"/>
		</g>
		<g id="XMLID_9338_">
			<path id="XMLID_9339_" style="fill:#1E81CE;" d="M231,416H116c-2.761,0-5-2.238-5-5s2.239-5,5-5h115c2.761,0,5,2.238,5,5
				S233.761,416,231,416z"/>
		</g>
	</g>
</g>
<g id="Layer_1">
</g>
</svg>
