<?xml version="1.0" encoding="iso-8859-1"?>
<!-- Generator: Adobe Illustrator 21.0.2, SVG Export Plug-In . SVG Version: 6.00 Build 0)  -->
<svg version="1.1" id="Layer_1_1_" xmlns="http://www.w3.org/2000/svg" xmlns:xlink="http://www.w3.org/1999/xlink" x="0px" y="0px"
	 viewBox="0 0 64 64" style="enable-background:new 0 0 64 64;" xml:space="preserve">
<g>
</g>
<path d="M57,2H12C9.243,2,7,4.243,7,7c-2.757,0-5,2.243-5,5v45c0,2.757,2.243,5,5,5h45c2.757,0,5-2.243,5-5c2.757,0,5-2.243,5-5V7
	C62,4.243,59.757,2,57,2z M7,9h1h44c1.654,0,3,1.346,3,3v3H4v-3C4,10.346,5.346,9,7,9z M55,57c0,1.654-1.346,3-3,3H7
	c-1.654,0-3-1.346-3-3V17h51v39V57z M60,52c0,1.654-1.346,3-3,3V12c0-2.757-2.243-5-5-5H9c0-1.654,1.346-3,3-3h45
	c1.654,0,3,1.346,3,3V52z"/>
<rect x="6" y="11" width="2" height="2"/>
<rect x="10" y="11" width="2" height="2"/>
<rect x="14" y="11" width="2" height="2"/>
<path d="M29,34H19V24c0-0.553-0.447-1-1-1c-6.617,0-12,5.383-12,12s5.383,12,12,12s12-5.383,12-12C30,34.447,29.553,34,29,34z M8,35
	c0-5.177,3.954-9.447,9-9.95v8.574l-6.738,7.7C8.85,39.6,8,37.398,8,35z M18,45c-3.056,0-5.793-1.382-7.629-3.55l1.382,1.208
	l5.889-6.73C17.754,35.971,17.873,36,18,36h9.95C27.447,41.046,23.177,45,18,45z"/>
<path d="M22,32h11c0.553,0,1-0.447,1-1c0-6.617-5.383-12-12-12c-0.553,0-1,0.447-1,1v11C21,31.553,21.447,32,22,32z M23,21.05
	c4.717,0.471,8.479,4.233,8.95,8.95H23V21.05z"/>
<polygon points="22,49 20,49 20,50 7,50 7,52 20,52 20,53 22,53 22,52 30,52 30,50 22,50 "/>
<polygon points="15,54 13,54 13,55 7,55 7,57 13,57 13,58 15,58 15,57 30,57 30,55 15,55 "/>
<polygon points="51,20 49,20 49,32 48,32 48,34 49,34 49,42 51,42 51,34 52,34 52,32 51,32 "/>
<polygon points="44,42 46,42 46,27 47,27 47,25 46,25 46,20 44,20 44,25 43,25 43,27 44,27 "/>
<polygon points="38,42 40,42 40,31 41,31 41,29 40,29 40,20 38,20 38,29 37,29 37,31 38,31 "/>
<path d="M51,44H33c-0.553,0-1,0.447-1,1v11c0,0.553,0.447,1,1,1h18c0.553,0,1-0.447,1-1V45C52,44.447,51.553,44,51,44z M50,46v4
	l-2.4-1.8c-0.325-0.244-0.766-0.268-1.114-0.058l-4.529,2.718l-3.509-1.755c-0.386-0.192-0.85-0.118-1.154,0.188L34,52.586V46H50z
	 M34.414,55l3.783-3.783l3.355,1.678c0.307,0.152,0.668,0.139,0.962-0.037l4.423-2.654L50,52.5V55H34.414z"/>
</svg>
