<?xml version="1.0" encoding="UTF-8" standalone="no"?> <svg height="581pt" viewBox="-18 -19 581.33331 581" width="581pt" xmlns="http://www.w3.org/2000/svg"><path d="m488.21875.0820312h-256.128906c-31.34375.0351568-56.746094 25.4414068-56.78125 56.7851568v7.25l-120.644532 100.59375c-.289062.242187-.5625.496093-.828124.757812-10.457032 10.601562-16.304688 24.902344-16.265626 39.789062v220.5625h-26.320312c-6.210938 0-11.25 5.035157-11.25 11.25v94.484376c0 6.210937 5.039062 11.25 11.25 11.25h244.75c6.210938 0 11.25-5.039063 11.25-11.25v-94.484376c0-6.214843-5.039062-11.25-11.25-11.25h-18.351562v-24.148437c26.46875-5.390625 45.496093-28.652344 45.535156-55.664063v-91.0625h-22.5v91.066407c-.023438 18.925781-15.363282 34.261719-34.285156 34.285156-6.21875 0-11.25 5.035156-11.25 11.25v34.273437h-155.078126v-220.5625c-.027343-8.808593 3.367188-17.285156 9.457032-23.644531l105.777344-88.199219v80.140626l-69.929688 55.367187c-4.871094 3.855469-5.691406 10.933594-1.835938 15.800781 3.859376 4.871094 10.933594 5.691406 15.800782 1.835938l101.503906-80.371094.960938.960938c8.933593 8.949218 8.933593 23.4375 0 32.386718l-48.292969 48.296875c-1.953125 1.949219-3.117188 4.550781-3.277344 7.304688l-.609375 10.53125c-.015625.214843-.019531.429687-.019531.652343.046875 8.363282 1.953125 16.609376 5.574219 24.152344 7.433593 15.949219 6.035156 34.621094-3.6875 49.289063-1.226563 1.84375-1.886719 4.019531-1.886719 6.238281v22.765625c0 6.214844 5.039062 11.25 11.25 11.25 6.214843 0 11.25-5.035156 11.25-11.25v-19.511719c12.371093-20.8125 13.660156-46.390625 3.441406-68.339844-2.164063-4.464843-3.339844-9.335937-3.441406-14.292968l.347656-5.902344 12.710937-12.714844c8.273438 4.453125 17.523438 6.785156 26.914063 6.800782h256.128906c31.347657-.027344 56.757813-25.433594 56.792969-56.78125v-141.15625c-.035156-31.34375-25.4375-56.75-56.78125-56.7851568zm-243.46875 520.2265628h-222.25v-71.988282h222.25zm-12.660156-497.726563h256.121094c18.929687.019531 34.269531 15.359375 34.289062 34.285157v5.828124h-324.695312v-5.824218c.023437-18.925782 15.359374-34.269532 34.285156-34.289063zm-34.285156 62.613281h324.695312v23.03125h-324.695312zm290.414062 147.109376h-256.128906c-3.308594 0-6.605469-.484376-9.785156-1.429688l15.421874-15.429688c17.699219-17.746093 17.699219-46.464843 0-64.203124l-8.054687-8.054688c-4.039063-4.035156-10.457031-4.40625-14.9375-.863281l-16.929687 13.410156v-25.007813h324.695312v67.296876c-.023438 18.925781-15.355469 34.261718-34.28125 34.28125zm0 0"/><path d="m32.441406 485.453125c.3125 15.566406 13.128906 27.96875 28.699219 27.765625 15.574219-.207031 28.058594-12.945312 27.957031-28.515625-.105468-15.570313-12.761718-28.144531-28.332031-28.144531-15.789063.175781-28.460937 13.101562-28.324219 28.894531zm28.324219-6.394531c2.640625-.246094 5.164063 1.15625 6.34375 3.53125 1.1875 2.371094.785156 5.226562-1 7.1875-1.78125 1.960937-4.589844 2.621094-7.066406 1.664062-2.472657-.957031-4.101563-3.335937-4.101563-5.988281-.144531-3.367187 2.457032-6.222656 5.824219-6.394531zm0 0"/><path d="m445.527344 144.652344c-5.910156-.003906-11.742188 1.320312-17.074219 3.875-16.691406-7.976563-36.675781-3.371094-48.195313 11.101562-11.511718 14.472656-11.511718 34.980469 0 49.453125 11.519532 14.472657 31.503907 19.078125 48.195313 11.105469 14.726563 7.015625 32.242187 4.316406 44.167969-6.808594 11.925781-11.128906 15.832031-28.417968 9.855468-43.589844-5.984374-15.175781-20.636718-25.144531-36.949218-25.140624zm-51.355469 39.707031c-.011719-8.105469 5.632813-15.117187 13.546875-16.84375 7.921875-1.722656 15.96875 2.304687 19.332031 9.671875 3.371094 7.375 1.136719 16.09375-5.355469 20.949219-2.96875 2.238281-6.59375 3.445312-10.320312 3.4375-9.496094-.015625-17.195312-7.710938-17.203125-17.214844zm52.996094 17.136719c.128906-.253906.230469-.519532.347656-.773438.144531-.320312.292969-.644531.429687-.964844.15625-.378906.300782-.753906.445313-1.128906.125-.324218.246094-.644531.375-.972656.136719-.378906.261719-.777344.382813-1.160156.109374-.328125.21875-.644532.3125-.972656.128906-.40625.222656-.8125.335937-1.222657.078125-.316406.167969-.632812.246094-.949219.097656-.425781.183593-.855468.265625-1.28125.0625-.3125.136718-.625.191406-.933593.078125-.449219.132812-.90625.199219-1.355469.042969-.296875.089843-.585938.125-.878906.058593-.5.09375-1.007813.136719-1.507813.019531-.25.050781-.503906.0625-.753906.046874-.757813.070312-1.511719.070312-2.273437 0-.769532-.023438-1.523438-.070312-2.28125-.011719-.257813-.046876-.519532-.066407-.773438-.039062-.5-.074219-1-.132812-1.488281-.035157-.3125-.085938-.613281-.125-.925781-.058594-.4375-.121094-.875-.195313-1.308594-.054687-.332032-.132812-.660156-.195312-.988282-.082032-.410156-.160156-.816406-.25-1.21875-.082032-.34375-.175782-.675781-.261719-1.011718-.105469-.390625-.203125-.78125-.3125-1.167969-.105469-.335937-.222656-.671875-.328125-1.011719-.125-.375-.242188-.746094-.371094-1.121094-.128906-.335937-.253906-.667968-.386718-1-.140626-.367187-.28125-.730468-.433594-1.089843-.136719-.332031-.289063-.660157-.441406-.988281-.109376-.246094-.214844-.507813-.335938-.753907 8.824219.847657 15.5625 8.265625 15.5625 17.128907 0 8.867187-6.738281 16.277343-15.5625 17.132812zm0 0"/></svg>