<?xml version="1.0" encoding="iso-8859-1"?>
<!-- Generator: Adobe Illustrator 19.0.0, SVG Export Plug-In . SVG Version: 6.00 Build 0)  -->
<svg version="1.1" xmlns="http://www.w3.org/2000/svg" xmlns:xlink="http://www.w3.org/1999/xlink" x="0px" y="0px"
	 viewBox="0 0 520 520" style="enable-background:new 0 0 520 520;" xml:space="preserve">
<g id="_x36_91_x2C__Agile_x2C__Development_x2C__Scrum_x2C__Sprint_x2C__Time">
	<g>
		<path d="M259.977,309.927c0.001,0,0.003,0,0.005,0c1.215,0,2.45-0.041,3.672-0.123c30.221-2.015,53.169-28.241,51.154-58.463
			c-1.917-28.754-25.98-51.278-54.782-51.278c-1.22,0-2.458,0.042-3.681,0.123c-30.222,2.015-53.17,28.242-51.155,58.462
			C207.106,287.399,231.171,309.924,259.977,309.927z"/>
		<path d="M455,255c0-107.523-87.477-195-195-195C156.409,60,71.439,141.199,65.362,243.29l-21.826-21.826
			c-1.953-1.952-5.118-1.952-7.071,0c-1.953,1.953-1.953,5.119,0,7.071l29.998,29.999c0.233,0.232,0.49,0.441,0.765,0.625
			c0.121,0.08,0.251,0.135,0.376,0.204c0.16,0.088,0.314,0.184,0.484,0.254c0.164,0.068,0.335,0.107,0.504,0.157
			c0.144,0.042,0.281,0.098,0.429,0.127C69.344,259.966,69.672,260,70,260s0.656-0.034,0.979-0.099
			c0.148-0.029,0.286-0.085,0.429-0.127c0.169-0.05,0.34-0.089,0.504-0.157c0.17-0.07,0.324-0.166,0.484-0.254
			c0.125-0.069,0.255-0.124,0.376-0.204c0.275-0.184,0.532-0.393,0.765-0.625l29.998-29.999c1.953-1.953,1.953-5.119,0-7.071
			c-1.953-1.952-5.118-1.952-7.071,0l-21.033,21.033C81.884,146.297,162.193,70,260,70c102.01,0,185,82.991,185,185
			c0,102.01-82.99,185-185,185H40c-2.761,0-5,2.238-5,5s2.239,5,5,5h220C367.523,450,455,362.523,455,255z"/>
		<path d="M75.336,300.179c-2.664,0.725-4.237,3.473-3.512,6.137c12.676,46.591,42.14,86.684,82.964,112.893
			c0.836,0.537,1.771,0.794,2.696,0.794c1.646,0,3.257-0.813,4.212-2.3c1.492-2.323,0.817-5.417-1.506-6.908
			c-38.736-24.87-66.692-62.906-78.717-107.104C80.748,301.025,78.003,299.451,75.336,300.179z"/>
		<path d="M116.489,249.404c-2.416,0.531-4.081,2.748-3.916,5.217l1.357,20.353c0.164,2.47,2.112,4.447,4.579,4.65l35.976,2.96
			c1.346,5.104,3.054,10.124,5.103,14.993l-26.682,24.328c-1.83,1.668-2.163,4.423-0.784,6.479l11.372,16.957
			c1.379,2.056,4.054,2.791,6.29,1.735l32.659-15.445c3.702,3.743,7.686,7.236,11.9,10.436l-10.941,34.431
			c-0.75,2.358,0.339,4.91,2.559,6.002l18.274,8.983c2.221,1.09,4.906,0.395,6.315-1.639l20.562-29.662
			c5.103,1.404,10.309,2.432,15.554,3.07l7.745,35.29c0.506,2.306,2.549,3.928,4.881,3.928c0.111,0,0.223-0.004,0.336-0.011
			l20.353-1.357c2.47-0.165,4.447-2.112,4.65-4.58l2.956-35.998c5.113-1.33,10.137-3.039,15.005-5.106l24.317,26.67
			c1.664,1.825,4.417,2.163,6.472,0.788l16.96-11.332c2.061-1.377,2.802-4.055,1.743-6.295l-15.445-32.659
			c3.76-3.719,7.255-7.714,10.441-11.934l34.421,10.973c2.36,0.752,4.917-0.337,6.008-2.563l8.98-18.314
			c1.089-2.22,0.392-4.901-1.641-6.31l-29.662-20.562c1.404-5.102,2.432-10.308,3.07-15.551l35.248-7.705
			c2.419-0.528,4.086-2.747,3.922-5.218l-1.357-20.352c-0.165-2.468-2.109-4.445-4.574-4.65l-35.967-2.994
			c-1.328-5.113-3.038-10.138-5.107-15.009l26.671-24.317c1.828-1.667,2.162-4.421,0.785-6.477l-11.33-16.919
			c-1.375-2.056-4.047-2.795-6.288-1.74l-32.674,15.414c-3.729-3.752-7.722-7.237-11.923-10.409l10.973-34.421
			c0.752-2.358-0.335-4.911-2.555-6.004l-18.315-9.021c-2.221-1.094-4.907-0.397-6.318,1.637l-20.571,29.675
			c-5.099-1.385-10.3-2.411-15.538-3.067l-7.709-35.265c-0.529-2.418-2.733-4.09-5.218-3.921l-20.352,1.357
			c-2.468,0.165-4.445,2.109-4.65,4.574l-2.996,35.983c-5.106,1.345-10.127,3.054-14.997,5.103l-24.328-26.682
			c-1.669-1.831-4.428-2.163-6.484-0.781l-16.917,11.369c-2.051,1.378-2.787,4.048-1.733,6.283l15.414,32.674
			c-3.736,3.713-7.219,7.693-10.404,11.89l-34.431-10.941c-2.356-0.749-4.904,0.335-5.998,2.552l-9.023,18.277
			c-1.097,2.222-0.401,4.911,1.635,6.323l29.675,20.571c-1.384,5.099-2.411,10.303-3.067,15.541L116.489,249.404z M255.68,190.208
			c1.442-0.096,2.904-0.145,4.346-0.145c34.048,0,62.494,26.624,64.761,60.613c2.381,35.723-24.745,66.724-60.468,69.106
			c-1.441,0.096-2.9,0.145-4.337,0.145c-0.002,0-0.004,0-0.006,0c-34.051-0.003-62.498-26.628-64.764-60.613
			C192.831,223.59,219.956,192.589,255.68,190.208z"/>
		<path d="M484.901,444.022c-0.03-0.15-0.086-0.29-0.129-0.436c-0.049-0.167-0.088-0.336-0.154-0.497
			c-0.072-0.175-0.171-0.334-0.262-0.497c-0.067-0.121-0.119-0.247-0.197-0.363c-0.185-0.276-0.395-0.535-0.629-0.768
			l-29.995-29.995c-1.951-1.953-5.119-1.953-7.07,0c-1.953,1.952-1.953,5.118,0,7.07L467.929,440H380c-2.762,0-5,2.238-5,5
			s2.238,5,5,5h87.929l-21.464,21.465c-1.953,1.952-1.953,5.118,0,7.07C447.44,479.512,448.721,480,450,480s2.56-0.488,3.535-1.465
			l29.995-29.995c0.234-0.233,0.444-0.492,0.629-0.768c0.077-0.116,0.13-0.241,0.196-0.362c0.092-0.164,0.19-0.323,0.263-0.498
			c0.066-0.161,0.104-0.33,0.154-0.497c0.043-0.146,0.099-0.284,0.129-0.436C485.029,445.333,485.029,444.667,484.901,444.022z"/>
		<circle cx="130" cy="65" r="10"/>
		<circle cx="450" cy="125" r="10"/>
		<circle cx="370" cy="45" r="10"/>
		<circle cx="460" cy="355" r="10"/>
		<path d="M40,70h60c2.761,0,5-2.239,5-5s-2.239-5-5-5H40c-2.761,0-5,2.239-5,5S37.239,70,40,70z"/>
		<circle cx="260" cy="475" r="10"/>
		<path d="M230,470h-60c-2.761,0-5,2.238-5,5s2.239,5,5,5h60c2.761,0,5-2.238,5-5S232.761,470,230,470z"/>
		<path d="M440,90c13.785,0,25-11.215,25-25s-11.215-25-25-25c-13.785,0-25,11.215-25,25S426.215,90,440,90z"/>
		<path d="M55,150c11.028,0,20-8.972,20-20s-8.972-20-20-20s-20,8.972-20,20S43.972,150,55,150z"/>
		<path d="M55,370c-11.028,0-20,8.972-20,20s8.972,20,20,20s20-8.972,20-20S66.028,370,55,370z"/>
	</g>
</g>
<g id="Layer_1">
</g>
</svg>
