<?xml version="1.0" encoding="UTF-8"?>
<!DOCTYPE svg PUBLIC "-//W3C//DTD SVG 1.1//EN" "http://www.w3.org/Graphics/SVG/1.1/DTD/svg11.dtd">
<!-- Creator: CorelDRAW -->
<svg xmlns="http://www.w3.org/2000/svg" xml:space="preserve" width="512px" height="512px" version="1.1" style="shape-rendering:geometricPrecision; text-rendering:geometricPrecision; image-rendering:optimizeQuality; fill-rule:evenodd; clip-rule:evenodd"
viewBox="0 0 512 512"
 xmlns:xlink="http://www.w3.org/1999/xlink">
 <defs>
  <style type="text/css">
   <![CDATA[
    .fil0 {fill:black}
   ]]>
  </style>
 </defs>
 <g id="Layer_x0020_1">
  <metadata id="CorelCorpID_0Corel-Layer"/>
  <g id="_466052680">
   <g>
    <g>
     <g>
      <path class="fil0" d="M307 512l-102 0c-4,0 -7,-3 -7,-8l0 -52c-9,-3 -18,-7 -27,-11l-37 37c-1,1 -3,2 -5,2 0,0 0,0 0,0 -2,0 -3,-1 -5,-2l-71 -71c-1,-2 -2,-4 -2,-5 0,-2 1,-4 2,-5l37 -37c-5,-9 -9,-18 -11,-27l-52 0c-5,0 -8,-3 -8,-7l0 -56c0,-4 3,-7 8,-7 4,0 7,3 7,7l0 48 50 0c3,0 6,2 7,6 3,11 8,22 14,33 2,3 1,6 -1,9l-36 36 61 61 36 -36c2,-2 6,-3 9,-1 11,6 22,11 34,14 2,1 5,4 5,7l0 50 86 0 0 -50c0,-3 3,-6 5,-7 13,-4 24,-9 34,-14 3,-2 6,-1 8,1l36 36 61 -61 -35 -36c-3,-3 -3,-6 -2,-9 7,-11 11,-22 15,-33 0,-3 3,-6 7,-6l50 0 0 -48c0,-4 3,-7 7,-7 5,0 8,3 8,7l0 56c0,4 -3,7 -8,7l-52 0c-3,9 -7,18 -11,27l37 37c1,1 2,3 2,5 0,1 -1,3 -2,5l-72 71c-3,3 -7,3 -10,0l-37 -37c-8,4 -17,8 -26,11l0 52c0,5 -4,8 -7,8z"/>
     </g>
     <g>
      <path class="fil0" d="M256 400c-69,0 -125,-56 -125,-125 0,-4 4,-7 8,-7 4,0 7,3 7,7 0,61 49,110 110,110 61,0 110,-49 110,-110 0,-4 3,-7 8,-7 4,0 7,3 7,7 -1,69 -57,125 -125,125z"/>
     </g>
    </g>
    <g>
     <path class="fil0" d="M485 277l-67 0c-5,0 -8,-3 -8,-7l0 -34c0,-36 -12,-71 -35,-98 -3,-3 -2,-8 1,-11 3,-2 7,-2 10,1 25,30 39,69 39,108l0 26 53 0 -1 -26c0,-58 -21,-112 -60,-153 -3,-3 -3,-7 0,-10 3,-3 8,-3 11,0 41,44 64,101 64,163l0 33c0,2 -1,4 -2,5 -1,2 -3,3 -5,3zm-391 0l-67 0c-3,0 -4,-1 -5,-2 -2,-1 -3,-3 -3,-5l1 -34c-1,-130 106,-236 236,-236 56,0 110,20 152,55 3,3 3,8 0,11 -2,3 -7,3 -10,1 -39,-34 -90,-52 -142,-52 -123,0 -222,99 -222,221l0 27 52 0 0 -27c0,-93 77,-169 170,-169 31,0 62,9 89,25 3,3 4,7 2,10 -2,4 -6,5 -10,3 -24,-15 -52,-23 -81,-23 -85,0 -155,69 -155,154l0 34c0,4 -3,7 -7,7z"/>
    </g>
    <g>
     <path class="fil0" d="M267 230c-16,0 -28,-13 -28,-28 0,-15 13,-27 28,-27 15,0 27,12 27,27 0,16 -12,28 -27,28zm0 -41c-7,0 -13,6 -13,13 0,7 6,13 13,13 7,0 13,-6 13,-13 0,-7 -6,-13 -13,-13z"/>
    </g>
    <g>
     <path class="fil0" d="M256 277c-18,0 -36,-8 -48,-21 -13,-14 -19,-35 -17,-53 2,-15 10,-27 22,-34l249 -153c3,-2 7,-1 9,1 3,3 3,7 1,9l-178 233c-8,11 -21,17 -36,18 -1,0 -1,0 -2,0zm180 -228l-215 132c-11,6 -14,17 -15,24 -2,14 3,30 12,41 10,10 25,17 39,16 8,0 18,-2 26,-12l153 -201z"/>
    </g>
   </g>
  </g>
 </g>
</svg>
