<?xml version="1.0" encoding="UTF-8"?>
<!DOCTYPE svg PUBLIC "-//W3C//DTD SVG 1.1//EN" "http://www.w3.org/Graphics/SVG/1.1/DTD/svg11.dtd">
<!-- Creator: CorelDRAW -->
<svg xmlns="http://www.w3.org/2000/svg" xml:space="preserve" width="1.70666in" height="1.70666in" version="1.1" style="shape-rendering:geometricPrecision; text-rendering:geometricPrecision; image-rendering:optimizeQuality; fill-rule:evenodd; clip-rule:evenodd"
viewBox="0 0 1707 1707"
 xmlns:xlink="http://www.w3.org/1999/xlink">
 <defs>
  <style type="text/css">
   <![CDATA[
    .fil0 {fill:black}
   ]]>
  </style>
 </defs>
 <g id="Layer_x0020_1">
  <metadata id="CorelCorpID_0Corel-Layer"/>
  <g id="_403634088">
   <g>
    <g>
     <path class="fil0" d="M1353 1326c-83,0 -151,-67 -151,-152 0,-84 68,-152 151,-152 83,0 153,68 153,152 0,85 -68,152 -153,152zm0 -254c-56,0 -102,45 -102,103 0,59 46,104 102,104 57,0 104,-45 104,-104 0,-58 -47,-103 -104,-103z"/>
    </g>
    <g>
     <path class="fil0" d="M1413 1526l-119 0c-14,0 -25,-11 -25,-25l0 -58c-17,-6 -32,-13 -47,-20l-40 41c-10,9 -25,9 -35,0l-85 -83c-4,-5 -7,-12 -7,-17 0,-6 3,-13 7,-17l41 -40c-9,-15 -14,-32 -20,-47l-58 0c-14,0 -25,-11 -25,-25l0 -119c0,-14 11,-25 25,-25l60 0c4,-15 11,-32 19,-47l-42 -42c-4,-4 -7,-11 -7,-16 0,-6 3,-13 7,-17l85 -83c10,-10 25,-10 35,0l41 39c15,-9 31,-16 47,-20l0 -57c0,-13 11,-24 25,-24l119 0c14,0 25,11 25,24l0 59c17,5 32,12 47,19l41 -40c9,-10 24,-10 34,0l83 83c4,4 7,11 7,17 0,5 -3,12 -7,16l-40 40c8,16 15,32 21,48l57 0c14,0 25,11 25,25l0 119c0,14 -11,25 -25,25l-57 0c-6,16 -13,33 -19,47l40 40c4,4 7,11 7,17 0,5 -3,12 -7,16l-83 83c-10,10 -25,10 -35,0l-40 -40c-14,8 -31,14 -47,19l0 59c-3,15 -14,26 -28,26zm-94 -48l70 0 0 -52c0,-11 7,-21 18,-23 28,-7 50,-17 70,-29 9,-7 22,-6 30,2l38 36 49 -49 -37 -37c-8,-8 -10,-20 -3,-30 14,-21 24,-44 29,-68 3,-11 13,-19 24,-19l51 0 0 -71 -51 0c-11,0 -21,-8 -24,-19 -5,-24 -15,-46 -29,-68 -5,-10 -4,-22 3,-31l37 -37 -49 -50 -38 36c-8,8 -21,10 -29,4 -21,-12 -44,-22 -69,-29 -11,-3 -18,-12 -18,-23l0 -52 -71 0 0 52c0,11 -7,20 -18,23 -25,6 -47,15 -69,29 -10,6 -22,4 -29,-4l-38 -37 -50 49 36 37c9,8 10,19 5,29 -14,23 -24,47 -28,69 -3,11 -13,19 -24,19l-52 0 0 71 52 0c11,0 21,8 24,19 5,24 15,47 28,68 5,10 4,22 -5,29l-36 36 50 50 38 -37c8,-8 20,-10 29,-4 22,14 44,23 69,29 11,3 18,12 18,23l0 59 -1 0z"/>
    </g>
   </g>
   <g>
    <path class="fil0" d="M663 1266c-14,0 -25,-12 -25,-25 0,-187 46,-248 86,-302 31,-41 54,-73 54,-156 0,-149 -122,-271 -271,-271 -150,0 -272,122 -272,271 0,83 24,115 54,156 40,54 86,115 86,302 0,13 -11,25 -25,25 -14,0 -25,-12 -25,-25 0,-171 -39,-223 -76,-273 -30,-42 -64,-85 -64,-185 0,-176 143,-320 320,-320 178,0 320,143 320,320 0,100 -31,143 -63,185 -38,50 -76,102 -76,273 2,13 -9,25 -23,25z"/>
   </g>
   <g>
    <path class="fil0" d="M320 853c-14,0 -25,-11 -25,-25 0,-140 113,-254 253,-254 14,0 25,11 25,25 0,14 -11,25 -25,25 -113,0 -205,91 -205,205 0,13 -11,24 -23,24z"/>
   </g>
   <g>
    <path class="fil0" d="M744 479c-4,0 -9,-2 -13,-3 -11,-7 -15,-21 -9,-33l41 -73c7,-11 21,-15 33,-9 11,7 16,21 10,33l-42 72c-4,8 -12,13 -20,13z"/>
   </g>
   <g>
    <path class="fil0" d="M918 653c-8,0 -16,-4 -20,-12 -7,-11 -3,-27 9,-34l72 -41c11,-7 27,-3 34,10 6,11 2,26 -10,33l-72 41c-4,2 -9,3 -13,3z"/>
   </g>
   <g>
    <path class="fil0" d="M270 479c-8,0 -17,-5 -21,-13l-41 -72c-7,-11 -3,-26 9,-33 11,-7 27,-3 33,9l42 73c7,11 3,26 -10,33 -4,3 -8,3 -12,3z"/>
   </g>
   <g>
    <path class="fil0" d="M97 653c-4,0 -9,-1 -13,-3l-72 -41c-11,-7 -15,-21 -10,-33 7,-12 21,-16 34,-10l72 41c11,7 15,21 9,34 -4,7 -12,12 -20,12z"/>
   </g>
   <g>
    <path class="fil0" d="M712 1353c-14,0 -25,-11 -25,-25 0,-14 11,-25 25,-25 10,0 18,-8 18,-19 0,-12 -8,-18 -18,-18l-410 0c-11,0 -18,8 -18,18 0,11 8,19 18,19 14,0 25,11 25,25 0,14 -11,25 -25,25 -38,0 -67,-31 -67,-68 0,-37 31,-67 67,-67l410 0c37,0 66,31 66,67 2,37 -29,68 -66,68z"/>
   </g>
   <g>
    <path class="fil0" d="M712 1440l-410 0c-38,0 -67,-30 -67,-68 0,-37 31,-66 67,-66l410 0c37,0 66,30 66,66 2,36 -29,68 -66,68zm-410 -87c-11,0 -18,8 -18,18 0,11 8,19 18,19l410 0c10,0 18,-8 18,-19 0,-11 -8,-18 -18,-18l-410 0z"/>
   </g>
   <g>
    <path class="fil0" d="M539 1526l-63 0c-61,0 -111,-50 -111,-111 0,-14 12,-25 25,-25 14,0 25,11 25,25 0,35 28,63 63,63l62 0c35,0 62,-28 62,-63 0,-14 11,-25 25,-25 14,0 25,11 25,25 -3,61 -52,111 -113,111z"/>
   </g>
   <g>
    <path class="fil0" d="M507 1266c-14,0 -25,-12 -25,-25l0 -247c0,-8 4,-17 12,-21l97 -55c11,-7 27,-3 34,8 6,11 2,26 -9,33l-84 49 0 234c0,12 -11,24 -25,24z"/>
   </g>
   <g>
    <path class="fil0" d="M507 1018c-4,0 -9,-2 -13,-3l-95 -56c-11,-7 -16,-22 -9,-33 7,-11 23,-15 34,-8l95 55c11,7 15,22 9,33 -5,7 -13,12 -21,12z"/>
   </g>
   <g>
    <path class="fil0" d="M1353 697c-14,0 -25,-11 -25,-24l0 -370c0,-41 -33,-74 -73,-74l-650 0c-41,0 -75,33 -75,74l0 187c0,13 -11,25 -25,25 -13,0 -25,-12 -25,-25l0 -187c0,-68 56,-122 124,-122l650 0c67,0 122,54 122,122l0 371c2,12 -9,23 -23,23z"/>
   </g>
   <g>
    <path class="fil0" d="M1353 697c-5,0 -12,-2 -16,-6l-119 -120c-10,-9 -10,-25 0,-34 9,-10 25,-10 34,0l101 101 101 -101c10,-10 25,-10 35,0 10,9 10,25 0,34l-119 120c-4,4 -10,6 -17,6z"/>
   </g>
  </g>
 </g>
</svg>
