<?xml version="1.0" encoding="UTF-8" standalone="no"?> <svg id="Layer_1" data-name="Layer 1" xmlns="http://www.w3.org/2000/svg" viewBox="0 0 64 64"><path d="M54.6,25.2A1,1,0,0,0,53,26v2H5v2H54a1,1,0,0,0,1-1V28l5.333,4L55,36V35a1,1,0,0,0-1-1H5v2H53v2a1,1,0,0,0,1.6.8l8-6a1,1,0,0,0,0-1.6Z"/><rect x="1" y="28" width="2" height="2"/><rect x="1" y="34" width="2" height="2"/><rect x="1" y="31" width="2" height="2"/><path d="M8,26h2a18.889,18.889,0,0,1,3.226-10.577,34.083,34.083,0,0,0,5.254,1.4A36.066,36.066,0,0,0,17.333,26h2a33.545,33.545,0,0,1,1.154-8.836A57.988,57.988,0,0,0,28,17.748V26h2V17.748a58.89,58.89,0,0,0,7.514-.582A33.567,33.567,0,0,1,38.667,26h2a36.052,36.052,0,0,0-1.147-9.171,33.649,33.649,0,0,0,5.253-1.407A18.888,18.888,0,0,1,48,26h2A21,21,0,0,0,8,26ZM43.505,13.755a33.278,33.278,0,0,1-4.563,1.15,19.291,19.291,0,0,0-3.859-6.888A19.041,19.041,0,0,1,43.505,13.755ZM30,7.109c2.821.6,5.32,3.708,6.9,8.125a57.183,57.183,0,0,1-6.9.514Zm-2,0v8.639a56.411,56.411,0,0,1-6.9-.516C22.681,10.816,25.18,7.71,28,7.109Zm-5.083.908A19.286,19.286,0,0,0,19.058,14.9a34.379,34.379,0,0,1-4.565-1.147A19.051,19.051,0,0,1,22.917,8.017Z"/><path d="M48.521,40.487l-1.3-.424A18.33,18.33,0,0,0,47.333,38h-2a16.281,16.281,0,0,1-.133,2.076,1.673,1.673,0,0,0,1.135,1.8l1.25.406-1.03,3.171-1.25-.406a1.667,1.667,0,0,0-1.979.79A16.362,16.362,0,0,1,40.884,49.2a1.671,1.671,0,0,0-.141,2.124l.773,1.065-2.7,1.959-.774-1.065a1.669,1.669,0,0,0-2.066-.519,16.263,16.263,0,0,1-3.947,1.285,1.668,1.668,0,0,0-1.366,1.635V57H27.333V55.687a1.668,1.668,0,0,0-1.366-1.635,16.241,16.241,0,0,1-3.946-1.285,1.67,1.67,0,0,0-2.067.519l-.774,1.065-2.7-1.959.774-1.066a1.671,1.671,0,0,0-.143-2.124,16.361,16.361,0,0,1-2.442-3.363A1.673,1.673,0,0,0,12.7,45.05l-1.252.407-1.03-3.171,1.249-.406a1.671,1.671,0,0,0,1.135-1.8A16.464,16.464,0,0,1,12.667,38h-2a18.33,18.33,0,0,0,.117,2.063l-1.3.424a1.666,1.666,0,0,0-1.071,2.1l1.236,3.8a1.671,1.671,0,0,0,2.1,1.071l1.3-.424a18.4,18.4,0,0,0,2.425,3.338l-.806,1.108a1.669,1.669,0,0,0,.369,2.329l3.235,2.351A1.666,1.666,0,0,0,20.6,55.8l.8-1.108a18.284,18.284,0,0,0,3.925,1.277v1.368A1.669,1.669,0,0,0,27,59h4a1.669,1.669,0,0,0,1.667-1.667V55.965a18.229,18.229,0,0,0,3.925-1.277l.8,1.108a1.666,1.666,0,0,0,2.329.368l3.236-2.351a1.668,1.668,0,0,0,.368-2.328l-.806-1.109a18.421,18.421,0,0,0,2.425-3.338l1.306.424a1.668,1.668,0,0,0,2.1-1.071l1.236-3.8a1.668,1.668,0,0,0-1.069-2.1Z"/><path d="M29,50A12.013,12.013,0,0,0,41,38H39a10,10,0,0,1-20,0H17A12.013,12.013,0,0,0,29,50Z"/></svg>