<?xml version="1.0" encoding="UTF-8" standalone="no"?> <svg width="512" height="512" viewBox="0 0 512 512" fill="none" xmlns="http://www.w3.org/2000/svg">
<path d="M464.115 234.299L497.707 216.52L475.017 147.465L437.361 152.605L411.522 117.439L428.288 83.1963L369.006 40.5771L341.294 66.8799L299.394 53.4092L292.609 16H219.391L212.605 53.4092L170.705 66.8799L142.995 40.5781L83.7124 83.1973L100.478 117.439L74.6391 152.606L36.9819 147.466L14.2934 216.521L47.8852 234.299V277.701L14.293 295.48L36.9829 364.535L74.6392 359.395L100.478 394.561L83.7119 428.804L142.995 471.423L170.706 445.12L212.606 458.591L219.391 496H292.609L299.395 458.591L341.295 445.12L369.005 471.422L428.288 428.803L411.522 394.561L437.361 359.394L475.018 364.534L497.707 295.479L464.115 277.701L464.115 234.299ZM463.977 346.878L430.1 342.255L392.891 392.895L407.975 423.701L370.416 450.701L345.43 426.985L285.363 446.294L279.25 480H232.75L226.637 446.294L166.571 426.985L141.583 450.702L104.025 423.702L119.109 392.895L81.8999 342.254L48.0229 346.879L33.707 303.309L63.8852 287.336V224.664L33.707 208.692L48.0224 165.121L81.9008 169.745L119.109 119.105L104.025 88.2988L141.584 61.2988L166.57 85.0146L226.637 65.706L232.75 32H279.249L285.363 65.706L345.429 85.0146L370.417 61.2979L407.975 88.2979L392.891 119.105L430.1 169.746L463.977 165.121L478.293 208.691L448.115 224.664L448.115 287.336L478.293 303.308L463.977 346.878Z" fill="black"/>
<path d="M256 88C163.364 88 88 163.364 88 256C88 348.636 163.364 424 256 424C348.636 424 424 348.636 424 256C424 163.364 348.636 88 256 88ZM256 408C172.187 408 104 339.813 104 256C104 172.187 172.187 104 256 104C339.813 104 408 172.187 408 256C408 339.813 339.813 408 256 408Z" fill="black"/>
<path d="M348.093 180.459L268.093 133.793C264.422 131.655 260.249 130.529 256 130.529C251.752 130.529 247.579 131.655 243.907 133.793L163.906 180.459C160.289 182.579 157.287 185.607 155.199 189.243C153.111 192.879 152.008 196.997 152 201.19V310.811C152.008 315.004 153.111 319.122 155.2 322.758C157.288 326.394 160.289 329.421 163.907 331.541L243.907 378.207C247.578 380.345 251.751 381.471 256 381.471C260.248 381.471 264.421 380.345 268.093 378.207L348.094 331.541C351.711 329.421 354.713 326.393 356.801 322.757C358.889 319.122 359.992 315.004 360 310.811V201.19C359.992 196.997 358.889 192.878 356.8 189.242C354.712 185.606 351.711 182.579 348.093 180.459ZM251.969 147.613C253.193 146.901 254.584 146.525 256 146.525C257.416 146.525 258.807 146.901 260.031 147.613L336.123 192L260.031 236.387C258.807 237.1 257.416 237.475 256 237.475C254.583 237.475 253.193 237.1 251.969 236.387L238.561 228.566L276.733 205.663L231.404 179.002L193.047 202.016L175.877 192L251.969 147.613ZM199.445 224.271L215.457 233.611L215.449 257.138L199.445 247.73V224.271ZM208.815 211.214L231.485 197.611L245.407 205.8L222.793 219.368L208.815 211.214ZM171.97 317.721C170.764 317.014 169.763 316.005 169.067 314.793C168.371 313.581 168.003 312.208 168 310.811V205.928L183.445 214.938V256.884L231.44 285.097L231.454 242.943L243.907 250.207C245.209 250.964 246.579 251.596 248 252.094V362.072L171.97 317.721ZM340.031 317.721L264 362.071V252.094C265.421 251.596 266.791 250.964 268.093 250.207L344 205.928V310.811C343.997 312.208 343.63 313.581 342.933 314.793C342.237 316.005 341.237 317.014 340.031 317.721V317.721Z" fill="black"/>
</svg>
