<?xml version="1.0" encoding="UTF-8"?>
<!DOCTYPE svg PUBLIC "-//W3C//DTD SVG 1.1//EN" "http://www.w3.org/Graphics/SVG/1.1/DTD/svg11.dtd">
<!-- Creator: CorelDRAW -->
<svg xmlns="http://www.w3.org/2000/svg" xml:space="preserve" width="1.70666in" height="1.70666in" style="shape-rendering:geometricPrecision; text-rendering:geometricPrecision; image-rendering:optimizeQuality; fill-rule:evenodd; clip-rule:evenodd"
viewBox="0 0 1.70666 1.70666"
 xmlns:xlink="http://www.w3.org/1999/xlink">
 <defs>
  <style type="text/css">
   <![CDATA[
    .fil0 {fill:black}
   ]]>
  </style>
 </defs>
 <g id="Layer_x0020_1">
  <metadata id="CorelCorpID_0Corel-Layer"/>
  <g id="_465602480">
   <g>
    <g id="_465602552">
     <path id="_246079832" class="fil0" d="M1.50969 1.26569l-0.368154 0c-0.00774016,0 -0.0148898,-0.00412992 -0.0187598,-0.0108346l-0.0252559 -0.043748 -0.0569449 0.021752c-0.00840157,0.0032126 -0.0179528,0.000889764 -0.023937,-0.00585827 -0.00591339,-0.00666142 -0.0122205,-0.0129685 -0.0187441,-0.0187441 -0.00675984,-0.00598031 -0.00910236,-0.0155236 -0.00588189,-0.0239567l0.021752 -0.056937 -0.0291929 -0.0168583 -0.0383937 0.0472638c-0.00568898,0.00700787 -0.0151181,0.00974803 -0.0236772,0.00688583 -0.00841339,-0.00281496 -0.0170394,-0.00511811 -0.025622,-0.00686614 -0.00884646,-0.00179528 -0.0156535,-0.0088937 -0.0170827,-0.0178071l-0.00962598 -0.0601339 -0.0337008 0 -0.00962205 0.0601339c-0.0014252,0.00891339 -0.00823228,0.0160079 -0.0170787,0.0178071 -0.00866535,0.00175984 -0.0172874,0.00407087 -0.025626,0.00685433 -0.00855512,0.00285039 -0.0179921,0.00011811 -0.0236811,-0.00688583l-0.0383898 -0.0472559 -0.0291929 0.0168583 0.0217559 0.0569331c0.00322047,0.0084252 0.00088189,0.0179685 -0.00587402,0.0239528 -0.00659843,0.00584646 -0.0129134,0.0121496 -0.018752,0.0187441 -0.00597638,0.00674803 -0.0155197,0.00908661 -0.0239449,0.00586614l-0.0569331 -0.021748 -0.0252598 0.043752c-0.00387402,0.00670079 -0.0110236,0.0108268 -0.0187638,0.0108268l-0.368134 3.93701e-006c-0.0600906,0 -0.10898,-0.0488858 -0.10898,-0.108976l0 -1.04767c0,-0.0600866 0.0488858,-0.108972 0.10898,-0.108972l1.31272 0c0.0600906,0 0.108976,0.0488819 0.108976,0.108972l0 1.04767c0,0.0600906 -0.0488858,0.108976 -0.108976,0.108976zm-0.355642 -0.0433307l0.355642 0c0.0361969,0 0.0656457,-0.0294488 0.0656457,-0.0656457l0 -1.04767c0,-0.0361969 -0.0294528,-0.0656457 -0.0656457,-0.0656457l-1.31272 0c3.54331e-005,0 3.54331e-005,0 3.54331e-005,0l-3.54331e-005 0c-0.0361969,0 -0.0656496,0.0294488 -0.0656496,0.0656457l0 1.04767c0,0.0361969 0.0294528,0.0656417 0.0656496,0.0656417l0.355638 0 0.0282441 -0.0489173c0.00532283,-0.00921654 0.0165512,-0.0132008 0.0264961,-0.00940157l0.060626 0.0231614c0.000334646,-0.000338583 0.000669291,-0.000673228 0.00100394,-0.00100787l-0.0231654 -0.060622c-0.00379921,-0.00994094 0.000188976,-0.0211732 0.00940551,-0.0264921l0.061189 -0.0353307c0.00921654,-0.00532677 0.020937,-0.00316142 0.0276457,0.00509843l0.0408858 0.0503228c0.000476378,-0.000129921 0.000948819,-0.000255906 0.00142126,-0.00038189l0.010248 -0.0640236c0.00167717,-0.0105079 0.010748,-0.0182402 0.0213898,-0.0182402l0.0706496 0c0.0106457,0 0.0197126,0.00772835 0.0213976,0.0182402l0.0102441 0.0640276c0.000476378,0.000129921 0.000944882,0.000255906 0.0014252,0.00038189l0.0408819 -0.0503268c0.00670866,-0.00825591 0.0184291,-0.0104291 0.0276457,-0.00509843l0.0611929 0.0353346c0.00921654,0.0053189 0.0132047,0.0165512 0.00940551,0.0264921l-0.0231654 0.060626c0.000334646,0.000334646 0.000665354,0.000665354 0.001,0.001l0.0606339 -0.0231614c0.00993701,-0.00380315 0.0211811,0.000188976 0.0264921,0.00940551l0.0282441 0.0489173z"/>
    </g>
    <g id="_465601952">
     <path id="_246080024" class="fil0" d="M0.340035 0.310406c-0.055126,0 -0.0999764,-0.0448465 -0.0999764,-0.0999724 0,-0.055122 0.0448504,-0.0999724 0.0999764,-0.0999724 0.055122,0 0.0999724,0.0448465 0.0999724,0.0999724 0,0.055126 -0.0448504,0.0999724 -0.0999724,0.0999724zm0 -0.156614c-0.0312362,0 -0.0566457,0.0254134 -0.0566457,0.0566457 0,0.0312283 0.0254094,0.0566417 0.0566457,0.0566417 0.0312323,0 0.0566417,-0.0254134 0.0566417,-0.0566417 0,-0.0312323 -0.0254094,-0.0566457 -0.0566417,-0.0566457z"/>
    </g>
    <g id="_465602144">
     <path id="_246080072" class="fil0" d="M0.687972 0.310406c-0.055122,0 -0.0999685,-0.0448465 -0.0999685,-0.0999724 0,-0.055122 0.0448465,-0.0999724 0.0999685,-0.0999724 0.055126,0 0.0999764,0.0448465 0.0999764,0.0999724 -3.93701e-006,0.055126 -0.0448504,0.0999724 -0.0999764,0.0999724zm0 -0.156614c-0.0312283,0 -0.0566378,0.0254134 -0.0566378,0.0566457 0,0.0312283 0.0254094,0.0566417 0.0566378,0.0566417 0.0312362,0 0.0566457,-0.0254134 0.0566457,-0.0566417 0,-0.0312323 -0.0254094,-0.0566457 -0.0566457,-0.0566457z"/>
    </g>
    <g id="_465602816">
     <path id="_246080360" class="fil0" d="M1.44492 0.232102l-0.524185 0c-0.0119685,0 -0.0216654,-0.00970079 -0.0216654,-0.0216654 0,-0.0119646 0.00969685,-0.0216654 0.0216654,-0.0216654l0.524185 0c0.0119646,0 0.0216654,0.00970079 0.0216654,0.0216654 0,0.0119685 -0.00970079,0.0216654 -0.0216654,0.0216654z"/>
    </g>
    <g id="_465603392">
     <path id="_246079208" class="fil0" d="M1.597 0.420795l-1.48734 0c-0.0119685,0 -0.0216654,-0.00970079 -0.0216654,-0.0216654 0,-0.0119646 0.00969685,-0.0216654 0.0216654,-0.0216654l1.48734 0c0.0119646,0 0.0216654,0.00970079 0.0216654,0.0216654 0,0.0119646 -0.00970079,0.0216654 -0.0216654,0.0216654z"/>
    </g>
    <g>
     <g id="_465601928">
      <path id="_246079688" class="fil0" d="M1.23575 0.634917l-0.104587 0c-0.0119685,0 -0.0216654,-0.00969685 -0.0216654,-0.0216654 0,-0.0119646 0.00969685,-0.0216654 0.0216654,-0.0216654l0.104587 0c0.0119646,0 0.0216654,0.00970079 0.0216654,0.0216654 0,0.0119685 -0.00970079,0.0216654 -0.0216654,0.0216654zm-0.240063 0l-0.52478 0c-0.0119685,0 -0.0216654,-0.00969685 -0.0216654,-0.0216654 0,-0.0119646 0.00969685,-0.0216654 0.0216654,-0.0216654l0.52478 0c0.0119646,0 0.0216614,0.00970079 0.0216614,0.0216654 0,0.0119685 -0.00969685,0.0216654 -0.0216614,0.0216654z"/>
     </g>
     <g id="_465602912">
      <path id="_246079328" class="fil0" d="M1.06343 0.702661c-0.0493031,0 -0.0894094,-0.0401102 -0.0894094,-0.0894134 0,-0.0492992 0.0401063,-0.0894055 0.0894094,-0.0894055 0.0492992,0 0.0894016,0.0401063 0.0894016,0.0894055 0,0.0493071 -0.0401063,0.0894134 -0.0894016,0.0894134zm0 -0.135488c-0.0254094,0 -0.0460827,0.0206732 -0.0460827,0.0460787 0,0.0254134 0.0206732,0.0460827 0.0460827,0.0460827 0.0254055,0 0.0460748,-0.0206693 0.0460748,-0.0460827 0,-0.0254055 -0.0206693,-0.0460787 -0.0460748,-0.0460787z"/>
     </g>
     <g id="_465603104">
      <path id="_246079040" class="fil0" d="M1.23574 0.865724l-0.52478 0c-0.0119646,0 -0.0216654,-0.00969685 -0.0216654,-0.0216614 0,-0.0119685 0.00970079,-0.0216654 0.0216654,-0.0216654l0.52478 0c0.0119646,0 0.0216654,0.00969685 0.0216654,0.0216654 0,0.0119646 -0.00970079,0.0216614 -0.0216654,0.0216614zm-0.66026 0l-0.104583 0c-0.0119646,0 -0.0216654,-0.00969685 -0.0216654,-0.0216614 0,-0.0119685 0.00970079,-0.0216654 0.0216654,-0.0216654l0.104583 0c0.0119646,0 0.0216654,0.00969685 0.0216654,0.0216654 0,0.0119646 -0.00970079,0.0216614 -0.0216654,0.0216614z"/>
     </g>
     <g id="_465602984">
      <path id="_246079400" class="fil0" d="M0.643224 0.933465c-0.0492992,0 -0.0894055,-0.0401063 -0.0894055,-0.0894055 0,-0.0492992 0.0401063,-0.0894094 0.0894055,-0.0894094 0.0493031,0 0.0894094,0.0401102 0.0894094,0.0894094 0,0.0492992 -0.0401102,0.0894055 -0.0894094,0.0894055zm0 -0.135488c-0.0254055,0 -0.0460748,0.0206732 -0.0460748,0.0460827 0,0.0254094 0.0206693,0.0460787 0.0460748,0.0460787 0.0254094,0 0.0460787,-0.0206693 0.0460787,-0.0460787 0,-0.0254094 -0.0206693,-0.0460827 -0.0460787,-0.0460827z"/>
     </g>
    </g>
    <g id="_465603128">
     <path id="_245949656" class="fil0" d="M0.88865 1.70658l-0.0706496 0c-0.0106417,0 -0.0197087,-0.00772835 -0.0213898,-0.0182402l-0.0102441 -0.0640276c-0.000476378,-0.000122047 -0.000952756,-0.000248031 -0.0014252,-0.000377953l-0.0408819 0.0503228c-0.0067126,0.00826378 -0.0184331,0.0104252 -0.0276535,0.00510236l-0.061189 -0.0353346c-0.00922047,-0.00532283 -0.0132008,-0.0165512 -0.00940157,-0.0264961l0.0231654 -0.060622c-0.000334646,-0.000334646 -0.000669291,-0.000665354 -0.00100394,-0.00100394l-0.060626 0.0231654c-0.00994488,0.00379528 -0.0211732,-0.000188976 -0.0264961,-0.00940551l-0.0353307 -0.061189c-0.00532283,-0.00921654 -0.00316142,-0.0209331 0.00510236,-0.0276457l0.0503189 -0.040878c-0.000129921,-0.000480315 -0.000255906,-0.000956693 -0.00038189,-0.00143701l-0.0640157 -0.0102362c-0.0105079,-0.00168504 -0.0182402,-0.010752 -0.0182402,-0.0213976l0 -0.0706535c0,-0.0106417 0.00772835,-0.0197126 0.0182402,-0.0213976l0.0640157 -0.0102402c0.000125984,-0.000476378 0.000251969,-0.000952756 0.000377953,-0.00142913l-0.050315 -0.040878c-0.00826378,-0.0067126 -0.0104213,-0.0184291 -0.00510236,-0.0276457l0.0353307 -0.0611929c0.00532283,-0.00921654 0.0165551,-0.0132008 0.0264961,-0.00940551l0.060626 0.0231654c0.000334646,-0.000338583 0.000669291,-0.000669291 0.00100394,-0.00100394l-0.0231654 -0.060626c-0.00379921,-0.00994488 0.000192913,-0.0211772 0.00940551,-0.0264961l0.061189 -0.0353268c0.00922047,-0.00532677 0.020937,-0.00315748 0.0276457,0.00509843l0.0408819 0.0503189c0.000476378,-0.000129921 0.000952756,-0.000259843 0.00142913,-0.00038189l0.0102441 -0.0640157c0.00167717,-0.0105079 0.010748,-0.0182402 0.0213898,-0.0182402l0.0706575 3.93701e-006c0.0106417,0 0.0197126,0.00772835 0.0213937,0.0182402l0.0102402 0.0640197c0.000476378,0.000129921 0.000948819,0.000255906 0.0014252,0.00038189l0.0408819 -0.0503228c0.00670866,-0.00825984 0.0184291,-0.0104291 0.0276457,-0.00509843l0.0611929 0.0353307c0.00921654,0.0053189 0.0132047,0.0165512 0.00940551,0.0264921l-0.0231693 0.0606299c0.000338583,0.000334646 0.000673228,0.000665354 0.00100787,0.00100394l0.0606299 -0.0231654c0.00994488,-0.00380315 0.0211772,0.000188976 0.0264921,0.00940551l0.0353307 0.061189c0.00532677,0.00921654 0.00316142,0.0209331 -0.00509843,0.0276457l-0.0503189 0.040878c0.000125984,0.000480315 0.000251969,0.000956693 0.00038189,0.00143307l0.0640118 0.0102402c0.0105079,0.00168504 0.0182441,0.010752 0.0182441,0.0213976l0 0.0706496c0,0.0106417 -0.00773228,0.0197126 -0.0182441,0.0213976l-0.0640197 0.0102402c-0.000125984,0.000476378 -0.000251969,0.000952756 -0.00038189,0.0014252l0.0503268 0.0408858c0.00825984,0.0067126 0.0104252,0.0184291 0.00509843,0.0276457l-0.0353307 0.0611929c-0.00532283,0.00922047 -0.0165551,0.0132008 -0.0264961,0.00940551l-0.060626 -0.0231693c-0.000334646,0.000338583 -0.000669291,0.000673228 -0.00100394,0.00100394l0.0231654 0.0606339c0.00379921,0.00994094 -0.000192913,0.0211772 -0.00940945,0.0264961l-0.061185 0.0353268c-0.00921654,0.00532283 -0.0209331,0.00315748 -0.0276457,-0.00510236l-0.0408819 -0.0503189c-0.000476378,0.000129921 -0.000952756,0.000255906 -0.00143307,0.00038189l-0.0102402 0.0640157c-0.00168504,0.0105079 -0.010752,0.0182362 -0.0213976,0.0182362zm-0.0521772 -0.0433268l0.0337008 0 0.00961811 -0.0601299c0.00142913,-0.00892126 0.00824409,-0.0160197 0.0170984,-0.017815 0.00861417,-0.00174016 0.0172323,-0.00404724 0.025622,-0.00684646 0.00855118,-0.00287008 0.0179921,-0.00011811 0.0236772,0.00688583l0.0383858 0.047252 0.029189 -0.0168583 -0.021748 -0.0569409c-0.00322047,-0.00842126 -0.000885827,-0.0179606 0.00586614,-0.0239449 0.00659843,-0.00584646 0.0129055,-0.0121535 0.0187441,-0.018748 0.00598031,-0.00674803 0.0155276,-0.00908661 0.0239528,-0.00587008l0.056937 0.0217559 0.0168543 -0.0291929 -0.0472598 -0.0383976c-0.00700787,-0.00568898 -0.00974803,-0.015126 -0.00688583,-0.023685 0.00281102,-0.00840157 0.00511417,-0.0170118 0.00685433,-0.0256024 0.00179134,-0.00885039 0.0088937,-0.0156654 0.017811,-0.0170945l0.0601339 -0.00962205 0 -0.0337047 -0.060126 -0.00961811c-0.00892126,-0.00142913 -0.0160157,-0.00824016 -0.017811,-0.0170945 -0.00174409,-0.0086063 -0.00405118,-0.0172283 -0.00685433,-0.0256339 -0.00285433,-0.00855118 -0.000110236,-0.0179843 0.00688976,-0.0236693l0.047252 -0.0383858 -0.0168543 -0.0291929 -0.0569409 0.0217559c-0.00841732,0.0032126 -0.0179646,0.00088189 -0.0239488,-0.00587008 -0.00585433,-0.00660236 -0.0121614,-0.0129134 -0.018748,-0.018752 -0.00674803,-0.00598031 -0.00908661,-0.0155157 -0.00586614,-0.0239449l0.021752 -0.0569409 -0.0291929 -0.0168543 -0.0383937 0.0472638c-0.00568898,0.00700787 -0.0151299,0.00974016 -0.023685,0.00688583 -0.00838976,-0.00280709 -0.0170079,-0.00511811 -0.0256181,-0.00686614 -0.00884646,-0.00179528 -0.0156496,-0.0088937 -0.0170787,-0.0178071l-0.00962205 -0.0601299 -0.0337047 0 -0.00961811 0.0601299c-0.00142913,0.00891339 -0.00823228,0.0160118 -0.0170827,0.0178071 -0.00869291,0.00176378 -0.017311,0.00407087 -0.0256142,0.00685433 -0.00856299,0.00285433 -0.018,0.000122047 -0.0236929,-0.00688583l-0.0383898 -0.047252 -0.029189 0.0168543 0.021752 0.0569409c0.00322047,0.00842913 0.00088189,0.0179685 -0.00587008,0.0239488 -0.00659843,0.00584252 -0.0129016,0.0121535 -0.0187441,0.0187441 -0.00598425,0.00674803 -0.0155236,0.00908661 -0.0239488,0.00587008l-0.056937 -0.021752 -0.0168583 0.0291929 0.047252 0.0383898c0.00700394,0.00568898 0.00974409,0.015126 0.00688583,0.0236811 -0.00281102,0.00840157 -0.00511811,0.0170197 -0.00685827,0.0256142 -0.00179134,0.00885433 -0.00888583,0.0156614 -0.0178071,0.0170906l-0.0601299 0.00962598 0 0.0337047 0.0601299 0.00961811c0.00891732,0.00143307 0.0160157,0.00824016 0.017811,0.0170945 0.00174409,0.00861811 0.00405118,0.0172441 0.00685433,0.0256299 0.00285039,0.00855512 0.000106299,0.0179843 -0.00688976,0.0236732l-0.047248 0.0383858 0.0168543 0.0291929 0.056937 -0.0217559c0.00843307,-0.0032126 0.0179646,-0.00088189 0.0239488,0.00587008 0.00585827,0.00661024 0.0121654,0.0129173 0.0187441,0.018748 0.00675197,0.00598031 0.00909055,0.0155197 0.00587008,0.0239488l-0.0217559 0.056937 0.0291929 0.0168543 0.0383937 -0.0472598c0.00568898,-0.00700394 0.015126,-0.00974016 0.023685,-0.00688583 0.00838189,0.00280315 0.017,0.00511024 0.0256102,0.0068622 0.00885039,0.00179134 0.0156575,0.00888583 0.0170866,0.0178071l0.00962598 0.0601339z"/>
    </g>
    <g id="_465602648">
     <path id="_245955256" class="fil0" d="M0.853327 1.51823c-0.080874,0 -0.146673,-0.0657953 -0.146673,-0.146673 0,-0.0808819 0.0657953,-0.146677 0.146673,-0.146677 0.080878,0 0.146669,0.0657953 0.146669,0.146677 0,0.080874 -0.0657913,0.146673 -0.146669,0.146673zm0 -0.25002c-0.0569843,0 -0.103343,0.0463661 -0.103343,0.103346 0,0.0569843 0.0463583,0.103346 0.103343,0.103346 0.0569803,0 0.103343,-0.0463583 0.103343,-0.103346 0,-0.0569843 -0.0463622,-0.103346 -0.103343,-0.103346z"/>
    </g>
   </g>
  </g>
 </g>
</svg>
