<?xml version="1.0" encoding="UTF-8"?>
<!DOCTYPE svg PUBLIC "-//W3C//DTD SVG 1.1//EN" "http://www.w3.org/Graphics/SVG/1.1/DTD/svg11.dtd">
<!-- Creator: CorelDRAW -->
<svg xmlns="http://www.w3.org/2000/svg" xml:space="preserve" width="7.11111in" height="7.11111in" version="1.1" style="shape-rendering:geometricPrecision; text-rendering:geometricPrecision; image-rendering:optimizeQuality; fill-rule:evenodd; clip-rule:evenodd"
viewBox="0 0 7111 7111"
 xmlns:xlink="http://www.w3.org/1999/xlink">
 <defs>
  <style type="text/css">
   <![CDATA[
    .fil0 {fill:black}
   ]]>
  </style>
 </defs>
 <g id="Layer_x0020_1">
  <metadata id="CorelCorpID_0Corel-Layer"/>
  <g id="_644348144">
   <g>
    <g>
     <path class="fil0" d="M3443 6263c-58,0 -104,-46 -104,-104l0 -1383c0,-57 46,-104 104,-104 58,0 104,47 104,104l0 1383c-6,58 -52,104 -104,104z"/>
    </g>
    <g>
     <path class="fil0" d="M2453 5534l-717 0c-58,0 -104,-46 -104,-104 0,-58 46,-104 104,-104l619 0 0 -984c0,-57 46,-104 104,-104 58,0 104,47 104,104l0 1088c-6,58 -52,104 -110,104z"/>
    </g>
    <g>
     <path class="fil0" d="M5381 5534l-717 0c-58,0 -105,-46 -105,-104l0 -1088c0,-57 47,-104 105,-104 57,0 104,47 104,104l0 984 619 0c58,0 104,46 104,104 0,58 -52,104 -110,104z"/>
    </g>
    <g>
     <path class="fil0" d="M1302 5963c-295,0 -532,-238 -532,-533 0,-295 237,-532 532,-532 295,0 532,237 532,532 0,295 -237,533 -532,533zm0 -857c-179,0 -330,145 -330,330 0,179 145,330 330,330 185,0 330,-145 330,-330 0,-185 -145,-330 -330,-330z"/>
    </g>
    <g>
     <path class="fil0" d="M5809 5963c-295,0 -532,-238 -532,-533 0,-295 237,-532 532,-532 295,0 533,237 533,532 0,295 -238,533 -533,533zm0 -857c-179,0 -330,145 -330,330 0,179 145,330 330,330 180,0 330,-145 330,-330 0,-185 -145,-330 -330,-330z"/>
    </g>
    <g>
     <path class="fil0" d="M3443 7114c-290,0 -527,-237 -527,-532 0,-290 237,-527 527,-527 295,0 532,237 532,527 -6,295 -243,532 -532,532zm0 -851c-180,0 -324,145 -324,324 0,180 144,330 324,330 179,0 330,-144 330,-330 -6,-179 -151,-324 -330,-324z"/>
    </g>
    <g>
     <path class="fil0" d="M6625 3799c-58,0 -104,-47 -104,-105l0 -954 -602 -35c-46,0 -81,-35 -92,-75 -58,-249 -157,-480 -290,-689 -23,-40 -17,-87 12,-121l405 -452 -602 -601 -451 405c-35,29 -81,34 -122,11 -214,-133 -445,-231 -688,-289 -47,-12 -75,-46 -75,-93l-29 -601 -857 0 -34 601c0,47 -35,81 -76,93 -237,58 -468,156 -688,289 -41,23 -87,18 -122,-11l-451 -405 -602 607 405 452c29,34 35,81 12,121 -127,203 -226,434 -289,689 -12,46 -47,75 -93,75l-602 35 0 954c0,58 -46,104 -104,104 -58,0 -104,-46 -104,-104l0 -1053c0,-52 40,-98 98,-98l619 -35c58,-220 145,-422 255,-607l-417 -463c-34,-41 -34,-99 6,-139l747 -747c40,-40 98,-40 138,-5l463 416c191,-110 400,-197 608,-254l35 -620c5,-52 46,-98 98,-98l1047 0c52,0 99,41 99,98l40 620c208,57 417,144 608,254l462 -416c41,-35 99,-35 139,5l741 741c40,40 40,98 6,139l-417 463c110,185 197,393 255,607l619 35c52,6 98,46 98,98l0 1048c0,63 -46,110 -104,110z"/>
    </g>
    <g>
     <path class="fil0" d="M3558 4881c-943,0 -1712,-764 -1712,-1713 0,-949 769,-1713 1712,-1713 944,0 1713,770 1713,1713 0,943 -769,1713 -1713,1713zm0 -3223c-833,0 -1510,677 -1510,1510 0,833 677,1510 1510,1510 834,0 1511,-677 1511,-1510 0,-833 -677,-1510 -1511,-1510z"/>
    </g>
   </g>
  </g>
 </g>
</svg>
