<?xml version="1.0" encoding="UTF-8" standalone="no"?> <svg xmlns="http://www.w3.org/2000/svg" width="1516.06" height="1706.68" viewBox="0 0 1516.06 1706.68">
  <g id="Layer_x0020_1" transform="translate(-408.63 -313.32)">
    <path id="Path_93" data-name="Path 93" d="M1618.39,867.94a26.67,26.67,0,0,0,53.34,0c0-151.93-56.5-290.24-147.5-390.68-91.66-101.15-218.22-163.94-357.56-163.94h-.01c-139.33,0-265.9,62.79-357.56,163.94C718.09,577.7,661.6,716.01,661.6,867.94a26.67,26.67,0,0,0,53.34,0c0-138.45,51.15-264.12,133.54-355.06,81.75-90.22,194.39-146.22,318.18-146.22h.01c123.78,0,236.43,56,318.18,146.22,82.39,90.93,133.54,216.61,133.54,355.06Z" fill="#250e1e"/>
    <path id="Path_94" data-name="Path 94" d="M810.07,778.46c14.07-1.81,238.94-33.22,247.73-191.62l-.06-.02a26.673,26.673,0,0,1,53.13-1.56c2.44,14.95,41.44,211.83,409,193.18v-.07a26.668,26.668,0,0,1,27.92,28.99V989.65h.11c0,104.8-42.85,200.05-111.89,269.09s-164.3,111.89-269.09,111.89-200.05-42.85-269.09-111.89S785.94,1094.45,785.94,989.65V805a26.668,26.668,0,0,1,24.14-26.55Zm279.68-107.34c-53.94,108-194.57,145.55-250.48,156.46V989.65c0,90.07,36.87,171.98,96.26,231.38s141.3,96.26,231.38,96.26,171.99-36.87,231.38-96.26,96.26-141.3,96.26-231.38h.11V832.56c-252.39,5.92-359.82-89.11-404.91-161.44Z" fill="#250e1e"/>
    <path id="Path_95" data-name="Path 95" d="M688.27,841.27a74.868,74.868,0,0,1,74.64,74.64v120.05a74.64,74.64,0,1,1-149.28,0V915.91a74.836,74.836,0,0,1,74.64-74.64Zm0,53.34a21.376,21.376,0,0,0-21.3,21.3v120.05a21.3,21.3,0,0,0,42.6,0V915.91a21.389,21.389,0,0,0-21.3-21.3Z" fill="#250e1e"/>
    <path id="Path_96" data-name="Path 96" d="M1645.06,841.27a74.875,74.875,0,0,1,74.64,74.64v120.05a74.64,74.64,0,0,1-149.28,0V915.91a74.875,74.875,0,0,1,74.64-74.64Zm0,53.34a21.4,21.4,0,0,0-21.3,21.3v120.05a21.3,21.3,0,1,0,42.6,0V915.91a21.382,21.382,0,0,0-21.3-21.3Z" fill="#250e1e"/>
    <path id="Path_97" data-name="Path 97" d="M1669.12,1095.18a26.56,26.56,0,0,0-48.12-22.5l-40.35,85.77-397.19,73.74a26.581,26.581,0,0,0,9.59,52.29l408.54-75.85a26.675,26.675,0,0,0,21.42-15.18l46.12-98.27Z" fill="#250e1e"/>
    <path id="Path_98" data-name="Path 98" d="M968.44,1430.56a26.67,26.67,0,1,0,53.34,0v-88.91a378.318,378.318,0,0,0,290.25,0v67.55a26.67,26.67,0,1,0,53.34,0V1299.21a26.671,26.671,0,0,0-39.68-23.28l.04.08a325.184,325.184,0,0,1-315.81,1.04,26.666,26.666,0,0,0-41.49,22.17v131.35Z" fill="#250e1e"/>
    <path id="Path_99" data-name="Path 99" d="M408.65,1993.33a26.67,26.67,0,1,0,53.34,0V1793.98c3.77-15.48,26.64-91.9,120.63-143.45l.02.04c.67-.37,1.32-.77,1.95-1.19l215.67-130.15a26.641,26.641,0,0,0-27.51-45.63L557.08,1603.75l-.09.05h0l-.93.56v.01c-114.15,63.06-141.93,161.09-146.17,179.09a26.809,26.809,0,0,0-1.26,8.1v201.75Z" fill="#250e1e"/>
    <path id="Path_100" data-name="Path 100" d="M1871.35,1993.33a26.67,26.67,0,0,0,53.34,0V1791.58a26.451,26.451,0,0,0-1.26-8.1c-4.24-18.01-32.02-116.04-146.17-179.09v-.01l-.93-.56h0l-.09-.05-215.67-130.14.02-.02c-.68-.41-1.37-.78-2.07-1.13l-40.44-23.35a26.6,26.6,0,1,0-26.66,46.04l40.52,23.39,1.11.71.03-.05.01.01-.02.03,215.67,130.15c.63.42,1.28.81,1.95,1.19l.02-.04c93.99,51.55,116.86,127.98,120.63,143.45v199.35Z" fill="#250e1e"/>
    <path id="Path_101" data-name="Path 101" d="M884.22,1380.61l-64.98,112.35,174.59,193.45,119.72-133.81-229.33-172Zm-32.02-50.9a26.322,26.322,0,0,1,2.65-4.33,26.662,26.662,0,0,1,37.33-5.33l-.06.08,274.56,205.92a27.043,27.043,0,0,1,3.76,2.81,26.667,26.667,0,0,1,2.09,37.65l-.08-.07L1015.29,1742.1a26.686,26.686,0,0,1-41.21,1.97v-.06L767.81,1515.45a26.688,26.688,0,0,1-4.39-32.37l88.78-153.37Z" fill="#250e1e"/>
    <path id="Path_102" data-name="Path 102" d="M1453.11,1329.7l88.71,153.39.07-.02a26.686,26.686,0,0,1-4.39,32.37L1331.23,1744v.06a26.687,26.687,0,0,1-41.21-1.97l-157.16-175.66-.08.07a26.667,26.667,0,0,1,2.09-37.65,27.036,27.036,0,0,1,3.76-2.81l274.56-205.92-.06-.08a26.678,26.678,0,0,1,37.33,5.33,26.322,26.322,0,0,1,2.65,4.33Zm32.95,163.25-64.98-112.35-229.33,172,119.72,133.81,174.59-193.45Z" fill="#250e1e"/>
    <path id="Path_103" data-name="Path 103" d="M435.32,1966.66a26.67,26.67,0,0,0,0,53.34h1462.7a26.67,26.67,0,0,0,0-53.34H435.32Z" fill="#250e1e"/>
    <path id="Path_104" data-name="Path 104" d="M1489.36,1709.8h196.62a26.669,26.669,0,0,1,26.67,26.67v50.13a26.7,26.7,0,0,1-16.56,24.69l-96.11,50.28.05.1a26.654,26.654,0,0,1-26.25-.86l-96.61-49.91-.05.05a26.674,26.674,0,0,1-14.43-24.02v-50.45a26.669,26.669,0,0,1,26.67-26.67Zm169.95,53.34H1516.03v7.94l71.61,36.99,71.67-37.5v-7.44Z" fill="#250e1e"/>
  </g>
</svg>
