<?xml version="1.0" encoding="UTF-8" standalone="no"?> <svg width="64" height="64" viewBox="0 0 64 64" fill="none" xmlns="http://www.w3.org/2000/svg">
<path d="M40 32H26C25.7348 32 25.4804 31.8946 25.2929 31.7071C25.1054 31.5196 25 31.2652 25 31C25 30.7348 25.1054 30.4804 25.2929 30.2929C25.4804 30.1054 25.7348 30 26 30H38C38.1388 30.0009 38.2763 29.973 38.4037 29.9179C38.5311 29.8628 38.6456 29.7818 38.74 29.68C38.8335 29.5782 38.9049 29.4581 38.9497 29.3273C38.9944 29.1964 39.0116 29.0578 39 28.92L38.09 18C38.7695 17.9742 39.4201 17.7182 39.9351 17.2742C40.4501 16.8301 40.7989 16.2243 40.9245 15.556C41.05 14.8876 40.9447 14.1965 40.626 13.5958C40.3072 12.9952 39.7938 12.5206 39.17 12.25L42.71 8.72C42.8039 8.62537 42.8779 8.51293 42.9277 8.38929C42.9775 8.26564 43.0021 8.13328 43 8V3C43 2.73478 42.8946 2.48043 42.7071 2.29289C42.5196 2.10536 42.2652 2 42 2H38C37.7348 2 37.4804 2.10536 37.2929 2.29289C37.1054 2.48043 37 2.73478 37 3V5H36C35.7348 5 35.4804 5.10536 35.2929 5.29289C35.1054 5.48043 35 5.73478 35 6C35 6.26522 35.1054 6.51957 35.2929 6.70711C35.4804 6.89464 35.7348 7 36 7H38C38.2652 7 38.5196 6.89464 38.7071 6.70711C38.8946 6.51957 39 6.26522 39 6V4H41V7.59L36.59 12H27.41L23 7.59V4H25V6C25 6.26522 25.1054 6.51957 25.2929 6.70711C25.4804 6.89464 25.7348 7 26 7H30C30.2652 7 30.5196 6.89464 30.7071 6.70711C30.8946 6.51957 31 6.26522 31 6V4H34C34.2652 4 34.5196 3.89464 34.7071 3.70711C34.8946 3.51957 35 3.26522 35 3C35 2.73478 34.8946 2.48043 34.7071 2.29289C34.5196 2.10536 34.2652 2 34 2H30C29.7348 2 29.4804 2.10536 29.2929 2.29289C29.1054 2.48043 29 2.73478 29 3V5H27V3C27 2.73478 26.8946 2.48043 26.7071 2.29289C26.5196 2.10536 26.2652 2 26 2H22C21.7348 2 21.4804 2.10536 21.2929 2.29289C21.1054 2.48043 21 2.73478 21 3V8C20.9992 8.13161 21.0245 8.26207 21.0742 8.38391C21.124 8.50574 21.1973 8.61656 21.29 8.71L24.83 12.24C24.2005 12.5073 23.6812 12.9816 23.3582 13.5843C23.0352 14.1871 22.9278 14.8821 23.0538 15.5543C23.1798 16.2264 23.5317 16.8354 24.0512 17.2802C24.5706 17.725 25.2265 17.9789 25.91 18L25.07 28.17C24.6761 28.2973 24.3129 28.5048 24.003 28.7793C23.6932 29.0539 23.4436 29.3895 23.2698 29.7652C23.0961 30.1409 23.0019 30.5486 22.9934 30.9624C22.9848 31.3763 23.062 31.7874 23.22 32.17C22.5938 32.3384 22.0391 32.7052 21.6389 33.2154C21.2386 33.7256 21.0145 34.3517 21 35V37C21 37.2652 21.1054 37.5196 21.2929 37.7071C21.4804 37.8946 21.7348 38 22 38H42C42.2652 38 42.5196 37.8946 42.7071 37.7071C42.8946 37.5196 43 37.2652 43 37V35C43 34.2044 42.6839 33.4413 42.1213 32.8787C41.5587 32.3161 40.7957 32 40 32ZM27.09 28L27.92 18H36.08L36.91 28H27.09ZM25 15C25 14.7348 25.1054 14.4804 25.2929 14.2929C25.4804 14.1054 25.7348 14 26 14H38C38.2652 14 38.5196 14.1054 38.7071 14.2929C38.8946 14.4804 39 14.7348 39 15C39 15.2652 38.8946 15.5196 38.7071 15.7071C38.5196 15.8946 38.2652 16 38 16H26C25.7348 16 25.4804 15.8946 25.2929 15.7071C25.1054 15.5196 25 15.2652 25 15ZM41 36H23V35C23 34.7348 23.1054 34.4804 23.2929 34.2929C23.4804 34.1054 23.7348 34 24 34H40C40.2652 34 40.5196 34.1054 40.7071 34.2929C40.8946 34.4804 41 34.7348 41 35V36Z" fill="black"/>
<path d="M32.71 40.29C32.6166 40.1973 32.5057 40.124 32.3839 40.0742C32.2621 40.0245 32.1316 39.9993 32 40C31.7352 40.0037 31.4816 40.1073 31.29 40.29L23.29 48.29C23.1512 48.4306 23.0572 48.6092 23.0199 48.8032C22.9825 48.9972 23.0034 49.1979 23.08 49.38C23.155 49.5626 23.2824 49.719 23.4461 49.8293C23.6099 49.9396 23.8026 49.999 24 50H27V61C27 61.2652 27.1054 61.5196 27.2929 61.7071C27.4804 61.8947 27.7348 62 28 62C28.2652 62 28.5196 61.8947 28.7071 61.7071C28.8946 61.5196 29 61.2652 29 61V49C29 48.7348 28.8946 48.4804 28.7071 48.2929C28.5196 48.1054 28.2652 48 28 48H26.41L32 42.41L37.59 48H36C35.7348 48 35.4804 48.1054 35.2929 48.2929C35.1054 48.4804 35 48.7348 35 49V61C35 61.2652 35.1054 61.5196 35.2929 61.7071C35.4804 61.8947 35.7348 62 36 62C36.2652 62 36.5196 61.8947 36.7071 61.7071C36.8946 61.5196 37 61.2652 37 61V50H40C40.1974 49.999 40.3901 49.9396 40.5539 49.8293C40.7176 49.719 40.845 49.5626 40.92 49.38C40.9966 49.1979 41.0175 48.9972 40.9801 48.8032C40.9428 48.6092 40.8488 48.4306 40.71 48.29L32.71 40.29Z" fill="black"/>
<path d="M61 24H51C50.7348 24 50.4804 24.1053 50.2929 24.2929C50.1054 24.4804 50 24.7348 50 25V26.59L44.41 21L50 15.41V17C50 17.2652 50.1054 17.5196 50.2929 17.7071C50.4804 17.8946 50.7348 18 51 18H61C61.2652 18 61.5196 17.8946 61.7071 17.7071C61.8946 17.5196 62 17.2652 62 17C62 16.7348 61.8946 16.4804 61.7071 16.2929C61.5196 16.1053 61.2652 16 61 16H52V13C51.999 12.8026 51.9396 12.6098 51.8293 12.4461C51.7189 12.2824 51.5626 12.155 51.38 12.08C51.1979 12.0034 50.9972 11.9825 50.8032 12.0199C50.6092 12.0572 50.4306 12.1512 50.29 12.29L42.29 20.29C42.1973 20.3834 42.124 20.4942 42.0742 20.6161C42.0245 20.7379 41.9992 20.8684 42 21C42.0037 21.2648 42.1073 21.5184 42.29 21.71L50.29 29.71C50.3834 29.8027 50.4943 29.876 50.6161 29.9258C50.7379 29.9755 50.8684 30.0007 51 30C51.1312 30.0034 51.2613 29.976 51.38 29.92C51.5626 29.845 51.7189 29.7176 51.8293 29.5538C51.9396 29.3901 51.999 29.1974 52 29V26H61C61.2652 26 61.5196 25.8946 61.7071 25.7071C61.8946 25.5196 62 25.2652 62 25C62 24.7348 61.8946 24.4804 61.7071 24.2929C61.5196 24.1053 61.2652 24 61 24Z" fill="black"/>
<path d="M2 25C2 25.2652 2.10536 25.5196 2.29289 25.7071C2.48043 25.8946 2.73478 26 3 26H12V29C12.001 29.1974 12.0604 29.3901 12.1707 29.5538C12.2811 29.7176 12.4374 29.845 12.62 29.92C12.7387 29.976 12.8688 30.0034 13 30C13.1316 30.0007 13.2621 29.9755 13.3839 29.9258C13.5057 29.876 13.6166 29.8027 13.71 29.71L21.71 21.71C21.8927 21.5184 21.9963 21.2648 22 21C22.0008 20.8684 21.9755 20.7379 21.9258 20.6161C21.876 20.4942 21.8027 20.3834 21.71 20.29L13.71 12.29C13.5694 12.1512 13.3908 12.0572 13.1968 12.0199C13.0028 11.9825 12.8021 12.0034 12.62 12.08C12.4374 12.155 12.2811 12.2824 12.1707 12.4461C12.0604 12.6098 12.001 12.8026 12 13V16H3C2.73478 16 2.48043 16.1053 2.29289 16.2929C2.10536 16.4804 2 16.7348 2 17C2 17.2652 2.10536 17.5196 2.29289 17.7071C2.48043 17.8946 2.73478 18 3 18H13C13.2652 18 13.5196 17.8946 13.7071 17.7071C13.8946 17.5196 14 17.2652 14 17V15.41L19.59 21L14 26.59V25C14 24.7348 13.8946 24.4804 13.7071 24.2929C13.5196 24.1053 13.2652 24 13 24H3C2.73478 24 2.48043 24.1053 2.29289 24.2929C2.10536 24.4804 2 24.7348 2 25V25Z" fill="black"/>
<path d="M53.93 42.86L56.05 40.74C56.202 40.6021 56.3079 40.4209 56.3534 40.2208C56.3988 40.0207 56.3816 39.8115 56.3041 39.6215C56.2266 39.4315 56.0925 39.2699 55.92 39.1588C55.7475 39.0476 55.545 38.9922 55.34 39H44C43.8684 38.9992 43.7379 39.0245 43.6161 39.0742C43.4943 39.124 43.3834 39.1973 43.29 39.29C43.1973 39.3834 43.124 39.4943 43.0742 39.6161C43.0245 39.7379 42.9992 39.8684 43 40V51.34C42.9988 51.5386 43.0569 51.7331 43.1667 51.8986C43.2765 52.0641 43.4331 52.1932 43.6165 52.2694C43.8 52.3455 44.0019 52.3653 44.1967 52.3263C44.3914 52.2872 44.5701 52.191 44.71 52.05L46.83 49.93L54.61 57.71C54.7963 57.8947 55.0477 57.9989 55.31 58C55.4416 58.0008 55.5721 57.9755 55.6939 57.9258C55.8157 57.876 55.9266 57.8027 56.02 57.71C56.1137 57.617 56.1881 57.5064 56.2389 57.3846C56.2897 57.2627 56.3158 57.132 56.3158 57C56.3158 56.868 56.2897 56.7373 56.2389 56.6154C56.1881 56.4936 56.1137 56.383 56.02 56.29L47.53 47.81C47.3426 47.6237 47.0892 47.5192 46.825 47.5192C46.5608 47.5192 46.3074 47.6237 46.12 47.81L45 48.93V41H52.9L51.78 42.12C51.6855 42.2126 51.6103 42.3231 51.5588 42.4449C51.5074 42.5668 51.4806 42.6977 51.48 42.83C51.4838 43.0938 51.5916 43.3454 51.78 43.53L60.26 52.02C60.353 52.1137 60.4636 52.1881 60.5854 52.2389C60.7073 52.2897 60.838 52.3158 60.97 52.3158C61.102 52.3158 61.2327 52.2897 61.3546 52.2389C61.4764 52.1881 61.587 52.1137 61.68 52.02C61.8663 51.8326 61.9708 51.5792 61.9708 51.315C61.9708 51.0508 61.8663 50.7974 61.68 50.61L53.93 42.86Z" fill="black"/>
<path d="M20.68 39.32C20.5036 39.129 20.2597 39.0142 20 39H8.66C8.45923 39.0025 8.26387 39.0654 8.09934 39.1805C7.93481 39.2956 7.80873 39.4575 7.73752 39.6453C7.66631 39.833 7.65327 40.0378 7.70008 40.2331C7.7469 40.4283 7.8514 40.605 8 40.74L10.12 42.86L2.29 50.64C2.10375 50.8274 1.99921 51.0808 1.99921 51.345C1.99921 51.6092 2.10375 51.8626 2.29 52.05C2.38296 52.1437 2.49356 52.2181 2.61542 52.2689C2.73728 52.3197 2.86799 52.3458 3 52.3458C3.13201 52.3458 3.26272 52.3197 3.38458 52.2689C3.50644 52.2181 3.61704 52.1437 3.71 52.05L12.19 43.56C12.3784 43.3754 12.4862 43.1238 12.49 42.86C12.4894 42.7277 12.4627 42.5968 12.4112 42.4749C12.3597 42.3531 12.2845 42.2426 12.19 42.15L11.07 41H19V48.9L17.88 47.78C17.6926 47.5937 17.4392 47.4892 17.175 47.4892C16.9108 47.4892 16.6574 47.5937 16.47 47.78L8 56.29C7.90627 56.383 7.83188 56.4936 7.78111 56.6154C7.73034 56.7373 7.7042 56.868 7.7042 57C7.7042 57.132 7.73034 57.2627 7.78111 57.3846C7.83188 57.5064 7.90627 57.617 8 57.71C8.09344 57.8027 8.20426 57.876 8.32609 57.9258C8.44793 57.9755 8.57839 58.0008 8.71 58C8.97234 57.9989 9.22374 57.8947 9.41 57.71L17.19 49.93L19.31 52.05C19.4508 52.1843 19.6278 52.2746 19.8192 52.3098C20.0105 52.345 20.208 52.3236 20.3874 52.2482C20.5668 52.1729 20.7203 52.0468 20.8291 51.8855C20.938 51.7241 20.9973 51.5346 21 51.34V40C20.9858 39.7403 20.871 39.4964 20.68 39.32V39.32Z" fill="black"/>
<path d="M52 20C51.7348 20 51.4804 20.1054 51.2929 20.2929C51.1054 20.4804 51 20.7348 51 21C51 21.2652 51.1054 21.5196 51.2929 21.7071C51.4804 21.8946 51.7348 22 52 22H57C57.2652 22 57.5196 21.8946 57.7071 21.7071C57.8946 21.5196 58 21.2652 58 21C58 20.7348 57.8946 20.4804 57.7071 20.2929C57.5196 20.1054 57.2652 20 57 20H52Z" fill="black"/>
<path d="M32 47C31.7348 47 31.4804 47.1054 31.2929 47.2929C31.1054 47.4804 31 47.7348 31 48V54C31 54.2652 31.1054 54.5196 31.2929 54.7071C31.4804 54.8946 31.7348 55 32 55C32.2652 55 32.5196 54.8946 32.7071 54.7071C32.8946 54.5196 33 54.2652 33 54V48C33 47.7348 32.8946 47.4804 32.7071 47.2929C32.5196 47.1054 32.2652 47 32 47Z" fill="black"/>
<path d="M49.29 45.29C49.1963 45.383 49.1219 45.4936 49.0711 45.6154C49.0203 45.7373 48.9942 45.868 48.9942 46C48.9942 46.132 49.0203 46.2627 49.0711 46.3846C49.1219 46.5064 49.1963 46.617 49.29 46.71L53.29 50.71C53.383 50.8037 53.4936 50.8781 53.6154 50.9289C53.7373 50.9797 53.868 51.0058 54 51.0058C54.132 51.0058 54.2627 50.9797 54.3846 50.9289C54.5064 50.8781 54.617 50.8037 54.71 50.71C54.8037 50.617 54.8781 50.5064 54.9289 50.3846C54.9797 50.2627 55.0058 50.132 55.0058 50C55.0058 49.868 54.9797 49.7373 54.9289 49.6154C54.8781 49.4936 54.8037 49.383 54.71 49.29L50.71 45.29C50.617 45.1963 50.5064 45.1219 50.3846 45.0711C50.2627 45.0203 50.132 44.9942 50 44.9942C49.868 44.9942 49.7373 45.0203 49.6154 45.0711C49.4936 45.1219 49.383 45.1963 49.29 45.29V45.29Z" fill="black"/>
<path d="M10.71 50.71L15.71 45.71C15.8983 45.5217 16.0041 45.2663 16.0041 45C16.0041 44.7337 15.8983 44.4783 15.71 44.29C15.5217 44.1017 15.2663 43.9959 15 43.9959C14.7337 43.9959 14.4783 44.1017 14.29 44.29L9.29 49.29C9.19627 49.383 9.12188 49.4936 9.07111 49.6154C9.02034 49.7373 8.9942 49.868 8.9942 50C8.9942 50.132 9.02034 50.2627 9.07111 50.3846C9.12188 50.5064 9.19627 50.617 9.29 50.71C9.38296 50.8037 9.49356 50.8781 9.61542 50.9289C9.73728 50.9797 9.86799 51.0058 10 51.0058C10.132 51.0058 10.2627 50.9797 10.3846 50.9289C10.5064 50.8781 10.617 50.8037 10.71 50.71V50.71Z" fill="black"/>
<path d="M13 22C13.2652 22 13.5196 21.8946 13.7071 21.7071C13.8946 21.5196 14 21.2652 14 21C14 20.7348 13.8946 20.4804 13.7071 20.2929C13.5196 20.1054 13.2652 20 13 20H7C6.73478 20 6.48043 20.1054 6.29289 20.2929C6.10536 20.4804 6 20.7348 6 21C6 21.2652 6.10536 21.5196 6.29289 21.7071C6.48043 21.8946 6.73478 22 7 22H13Z" fill="black"/>
</svg>
