<?xml version="1.0" encoding="UTF-8"?>
<!DOCTYPE svg PUBLIC "-//W3C//DTD SVG 1.1//EN" "http://www.w3.org/Graphics/SVG/1.1/DTD/svg11.dtd">
<!-- Creator: CorelDRAW -->
<svg xmlns="http://www.w3.org/2000/svg" xml:space="preserve" width="7.11111in" height="7.11111in" version="1.1" style="shape-rendering:geometricPrecision; text-rendering:geometricPrecision; image-rendering:optimizeQuality; fill-rule:evenodd; clip-rule:evenodd"
viewBox="0 0 7111 7111"
 xmlns:xlink="http://www.w3.org/1999/xlink">
 <defs>
  <style type="text/css">
   <![CDATA[
    .fil0 {fill:black}
   ]]>
  </style>
 </defs>
 <g id="Layer_x0020_1">
  <metadata id="CorelCorpID_0Corel-Layer"/>
  <g id="_514622800">
   <g>
    <g>
     <g>
      <path class="fil0" d="M5077 4467l-3037 0c-145,0 -261,-116 -261,-266l0 -3941c0,-144 116,-260 261,-260l2360 0c29,0 52,12 70,29l839 839c17,17 29,46 29,69l0 886c0,57 -47,104 -104,104 -58,0 -105,-47 -105,-104l0 -839 -775 -781 -2314 0c-29,0 -58,23 -58,57l0 3941c0,34 29,63 58,63l3037 0c29,0 58,-29 58,-63l0 -440c0,-58 46,-104 104,-104 58,0 104,46 104,104l0 440c-5,144 -121,266 -266,266z"/>
     </g>
     <g>
      <path class="fil0" d="M5234 1041l-649 0c-162,0 -289,-127 -289,-289l0 -648c0,-40 23,-75 64,-92 40,-18 81,-6 110,23l839 833c29,29 40,75 23,110 -17,40 -58,63 -98,63zm-735 -694l0 405c0,46 40,87 86,87l406 0 -492 -492z"/>
     </g>
     <g>
      <g>
       <path class="fil0" d="M3868 1794l-1504 0c-58,0 -105,-47 -105,-104 0,-58 47,-99 105,-99l1504 0c58,0 104,46 104,99 0,52 -46,104 -104,104z"/>
      </g>
      <g>
       <path class="fil0" d="M4701 1794l-451 0c-58,0 -104,-47 -104,-104 0,-58 46,-99 104,-99l451 0c58,0 104,46 104,99 0,52 -52,104 -104,104z"/>
      </g>
      <g>
       <path class="fil0" d="M3868 1256l-1504 0c-58,0 -105,-47 -105,-105 0,-57 47,-104 105,-104l1504 0c58,0 104,47 104,104 0,58 -46,105 -104,105z"/>
      </g>
      <g>
       <path class="fil0" d="M3868 717l-1504 0c-58,0 -105,-46 -105,-104 0,-58 47,-104 105,-104l1504 0c58,0 104,46 104,104 0,58 -46,104 -104,104z"/>
      </g>
     </g>
     <g>
      <g>
       <path class="fil0" d="M3868 2332l-1504 0c-58,0 -105,-46 -105,-99 0,-52 47,-104 105,-104l1504 0c58,0 104,47 104,104 0,58 -46,99 -104,99z"/>
      </g>
      <g>
       <path class="fil0" d="M4447 2332l-203 0c-58,0 -104,-46 -104,-99 0,-52 46,-104 104,-104l203 0c57,0 104,47 104,104 0,58 -52,99 -104,99z"/>
      </g>
     </g>
     <g>
      <g>
       <path class="fil0" d="M3868 2870l-1504 0c-58,0 -105,-46 -105,-104 0,-58 47,-104 105,-104l1504 0c58,0 104,46 104,104 0,58 -46,104 -104,104z"/>
      </g>
      <g>
       <path class="fil0" d="M4267 2870l-23 0c-58,0 -104,-46 -104,-104 0,-58 46,-104 104,-104l23 0c58,0 104,46 104,104 0,58 -46,104 -104,104z"/>
      </g>
     </g>
     <g>
      <g>
       <path class="fil0" d="M3868 3414l-1504 0c-58,0 -105,-46 -105,-104 0,-58 47,-105 105,-105l1504 0c58,0 104,47 104,105 0,58 -46,104 -104,104z"/>
      </g>
      <g>
       <path class="fil0" d="M4418 3414l-174 0c-58,0 -104,-46 -104,-104 0,-58 46,-105 104,-105l174 0c58,0 104,47 104,105 0,58 -52,104 -104,104z"/>
      </g>
     </g>
     <g>
      <g>
       <path class="fil0" d="M3868 3946l-1504 0c-58,0 -105,-46 -105,-104 0,-58 47,-104 105,-104l1504 0c58,0 104,46 104,104 0,58 -46,104 -104,104z"/>
      </g>
      <g>
       <path class="fil0" d="M4701 3946l-451 0c-58,0 -104,-46 -104,-104 0,-58 46,-104 104,-104l451 0c58,0 104,46 104,104 0,58 -52,104 -104,104z"/>
      </g>
     </g>
    </g>
    <g>
     <path class="fil0" d="M6755 6058l-6399 0c-168,0 -307,-139 -307,-307l0 -4299c6,-167 139,-306 307,-306l1522 0c57,0 104,46 104,104 0,58 -47,98 -104,98l-1522 0c-58,0 -104,46 -104,104l0 4299c0,58 46,105 104,105l6399 0c58,0 104,-47 104,-105l0 -4299c0,-58 -46,-104 -104,-104l-1521 0c-58,0 -105,-46 -105,-98 0,-52 52,-104 105,-104l1521 0c168,0 307,139 307,306l0 4299c0,168 -139,307 -307,307z"/>
    </g>
    <g>
     <path class="fil0" d="M2381 7111c-17,0 -35,-6 -52,-11 -46,-29 -64,-93 -35,-139l614 -1059c28,-46 92,-64 138,-35 47,29 64,93 35,139l-613 1059c-18,29 -52,46 -87,46z"/>
    </g>
    <g>
     <path class="fil0" d="M4730 7111c-35,0 -69,-17 -87,-52l-613 -1053c-29,-46 -12,-110 35,-139 46,-29 110,-11 139,35l613 1059c29,46 11,110 -35,139 -17,11 -35,11 -52,11z"/>
    </g>
    <g>
     <path class="fil0" d="M5610 7111l-4109 0c-57,0 -104,-46 -104,-104 0,-58 47,-104 104,-104l4109 0c57,0 104,46 104,104 0,58 -47,104 -104,104z"/>
    </g>
    <g>
     <path class="fil0" d="M6958 5271l-6805 0c-58,0 -104,-46 -104,-104 0,-58 46,-104 104,-104l6805 0c58,0 104,46 104,104 0,58 -46,104 -104,104z"/>
    </g>
    <g>
     <path class="fil0" d="M3851 5659l-591 0c-57,0 -104,-46 -104,-104 0,-58 47,-105 104,-105l591 0c58,0 104,47 104,105 0,58 -46,104 -104,104z"/>
    </g>
    <g>
     <path class="fil0" d="M5234 3859c-591,0 -1071,-480 -1071,-1070 0,-590 480,-1071 1071,-1071 590,0 1076,481 1076,1071 0,590 -481,1070 -1076,1070zm0 -1938c-481,0 -868,388 -868,868 0,480 387,868 868,868 480,0 867,-388 867,-868 6,-480 -387,-868 -867,-868z"/>
    </g>
    <g>
     <path class="fil0" d="M4985 3310c-23,0 -52,-12 -70,-29l-330 -330c-40,-41 -40,-104 0,-145 41,-40 105,-40 145,0l261 261 757 -764c41,-41 105,-41 145,0 41,40 41,104 0,145l-833 827c-23,23 -46,35 -75,35z"/>
    </g>
   </g>
  </g>
 </g>
</svg>
