<?xml version="1.0" encoding="UTF-8"?>
<!DOCTYPE svg PUBLIC "-//W3C//DTD SVG 1.1//EN" "http://www.w3.org/Graphics/SVG/1.1/DTD/svg11.dtd">
<!-- Creator: CorelDRAW -->
<svg xmlns="http://www.w3.org/2000/svg" xml:space="preserve" width="1.70666in" height="1.70666in" version="1.1" style="shape-rendering:geometricPrecision; text-rendering:geometricPrecision; image-rendering:optimizeQuality; fill-rule:evenodd; clip-rule:evenodd"
viewBox="0 0 1707 1707"
 xmlns:xlink="http://www.w3.org/1999/xlink">
 <defs>
  <style type="text/css">
   <![CDATA[
    .fil0 {fill:black}
   ]]>
  </style>
 </defs>
 <g id="Layer_x0020_1">
  <metadata id="CorelCorpID_0Corel-Layer"/>
  <path class="fil0" d="M257 997c-7,0 -14,-3 -19,-8l-65 -67c41,416 445,704 858,594 174,-47 320,-157 412,-311 6,-11 3,-19 15,-31 11,-10 28,-10 38,0 13,13 6,36 -3,49 -136,237 -385,370 -641,370 -387,0 -702,-299 -733,-678l-74 74c-24,25 -62,-13 -37,-38l112 -112c13,-16 33,-16 45,-1l111 114c17,17 4,45 -19,45zm286 365c-74,0 -89,-34 -68,-55l70 -67 -59 -59 -71 68c-14,14 -38,8 -44,-10 -32,-94 37,-181 43,-181 38,-38 89,-56 143,-52l132 -133 -81 -84c-173,24 -304,-142 -243,-302 7,-18 31,-24 45,-9l107 110c0,0 0,0 1,0l75 -78 -108 -108c-13,-13 -10,-37 9,-44 169,-65 332,89 302,250l78 80 125 -125c-13,-175 196,-250 306,-143 68,66 67,192 0,256 -40,36 -93,54 -142,49l-125 126 265 268c80,81 25,221 -93,221 -33,0 -66,-12 -92,-38l-264 -266 -133 134c9,109 -81,192 -178,192zm184 -527l109 -109 -88 -91c-7,-7 -9,-17 -7,-26 28,-106 -65,-225 -185,-212l76 77c21,20 21,50 1,71l-85 87c-21,14 -51,13 -67,-4l-76 -78c-13,119 93,208 206,184 9,-2 19,1 25,7l91 94zm273 54l-108 109 264 267c30,30 81,29 108,0 30,-32 30,-79 1,-109l-265 -267zm-494 235l96 97c11,11 11,28 0,38l-52 50c68,-5 128,-68 117,-145 -2,-9 1,-17 7,-23l460 -464c7,-6 16,-9 25,-7 37,8 77,-4 109,-33 46,-50 46,-129 0,-179 -78,-77 -235,-19 -215,111 1,8 -2,17 -8,23l-460 460c-6,6 -15,9 -23,8 -77,-11 -138,40 -146,113l51 -49c12,-10 28,-10 39,0zm672 -477c-91,0 -128,-108 -71,-168 34,-37 100,-41 139,-2 66,67 14,170 -68,170zm-32 -66c46,39 105,-23 62,-66 -16,-16 -43,-16 -62,0 -16,20 -16,46 0,66zm399 291l-117 -116c-25,-25 13,-63 38,-38l68 68c-40,-417 -444,-706 -858,-595 -177,47 -324,160 -416,318 -4,8 -8,17 -15,23 -22,22 -58,-6 -41,-33 3,-5 6,-10 9,-16 205,-353 658,-474 1011,-270 209,122 344,339 364,578l73 -73c25,-25 63,13 38,38l-114 113c-11,13 -28,15 -40,3z"/>
 </g>
</svg>
