<?xml version="1.0" encoding="UTF-8" standalone="no"?> <svg width="64" height="64" viewBox="0 0 64 64" fill="none" xmlns="http://www.w3.org/2000/svg">
<path d="M39 42C37.8133 42 36.6533 42.3519 35.6666 43.0112C34.6799 43.6705 33.9109 44.6075 33.4567 45.7039C33.0026 46.8003 32.8838 48.0067 33.1153 49.1705C33.3468 50.3344 33.9182 51.4035 34.7574 52.2426C35.5965 53.0818 36.6656 53.6532 37.8295 53.8847C38.9933 54.1162 40.1997 53.9974 41.2961 53.5433C42.3925 53.0892 43.3295 52.3201 43.9888 51.3334C44.6481 50.3467 45 49.1867 45 48C44.9984 46.4092 44.3658 44.884 43.2409 43.7591C42.116 42.6342 40.5908 42.0016 39 42ZM39 52C38.2089 52 37.4355 51.7654 36.7777 51.3259C36.1199 50.8864 35.6072 50.2616 35.3045 49.5307C35.0017 48.7998 34.9225 47.9956 35.0769 47.2196C35.2312 46.4437 35.6122 45.731 36.1716 45.1716C36.731 44.6122 37.4437 44.2312 38.2196 44.0769C38.9956 43.9225 39.7998 44.0017 40.5307 44.3045C41.2616 44.6072 41.8864 45.1199 42.3259 45.7777C42.7654 46.4355 43 47.2089 43 48C43 49.0609 42.5786 50.0783 41.8284 50.8284C41.0783 51.5786 40.0609 52 39 52Z" fill="black"/>
<path d="M19 32C17.6155 32 16.2621 32.4105 15.111 33.1797C13.9599 33.9489 13.0627 35.0421 12.5328 36.3212C12.003 37.6003 11.8644 39.0078 12.1345 40.3656C12.4046 41.7235 13.0713 42.9708 14.0502 43.9497C15.0292 44.9287 16.2765 45.5954 17.6344 45.8655C18.9922 46.1356 20.3997 45.997 21.6788 45.4672C22.9579 44.9373 24.0511 44.0401 24.8203 42.889C25.5895 41.7378 26 40.3845 26 39C25.9979 37.1441 25.2597 35.3649 23.9474 34.0526C22.6351 32.7403 20.8559 32.0021 19 32ZM19 44C18.0111 44 17.0444 43.7068 16.2221 43.1573C15.3999 42.6079 14.759 41.827 14.3806 40.9134C14.0022 39.9998 13.9031 38.9945 14.0961 38.0245C14.289 37.0546 14.7652 36.1637 15.4645 35.4645C16.1637 34.7652 17.0546 34.289 18.0245 34.0961C18.9944 33.9031 19.9998 34.0022 20.9134 34.3806C21.827 34.759 22.6079 35.3999 23.1573 36.2221C23.7068 37.0444 24 38.0111 24 39C23.9984 40.3256 23.4711 41.5964 22.5338 42.5338C21.5964 43.4711 20.3256 43.9984 19 44Z" fill="black"/>
<path d="M44 18.184V12H42V18.184C41.4171 18.3901 40.9121 18.7712 40.5541 19.2753C40.1961 19.7794 40.0026 20.3817 40 21C40.0017 21.4455 40.1043 21.8848 40.3 22.285L37.292 25.293L38.706 26.707L41.715 23.7C42.1152 23.8957 42.5545 23.9983 43 24C43.7068 24.0013 44.3913 23.7525 44.9322 23.2975C45.4732 22.8425 45.8356 22.2108 45.9554 21.5142C46.0752 20.8176 45.9445 20.1011 45.5866 19.4915C45.2287 18.882 44.6667 18.4188 44 18.184ZM43 22C42.8022 22 42.6089 21.9414 42.4444 21.8315C42.28 21.7216 42.1518 21.5654 42.0761 21.3827C42.0004 21.2 41.9806 20.9989 42.0192 20.8049C42.0578 20.6109 42.153 20.4327 42.2929 20.2929C42.4327 20.153 42.6109 20.0578 42.8049 20.0192C42.9989 19.9806 43.1999 20.0004 43.3827 20.0761C43.5654 20.1518 43.7216 20.28 43.8315 20.4444C43.9413 20.6089 44 20.8022 44 21C44 21.2652 43.8946 21.5196 43.7071 21.7071C43.5196 21.8946 43.2652 22 43 22Z" fill="black"/>
<path d="M62 21C62.0066 18.2171 61.4018 15.4666 60.2283 12.9432C59.0548 10.4197 57.3414 8.18491 55.209 6.39665C53.0766 4.60839 50.5775 3.31039 47.8882 2.59441C45.1989 1.87844 42.3852 1.76199 39.646 2.25326C36.9067 2.74454 34.3088 3.83157 32.036 5.43748C29.7631 7.0434 27.8708 9.129 26.4928 11.5468C25.1148 13.9647 24.2848 16.6557 24.0614 19.4297C23.838 22.2036 24.2267 24.9928 25.2 27.6C24.3778 27.141 23.5054 26.7786 22.6 26.52L21.99 22.84C21.9519 22.6051 21.8313 22.3915 21.6499 22.2375C21.4684 22.0835 21.238 21.9993 21 22H17C16.762 21.9993 16.5316 22.0835 16.3501 22.2375C16.1687 22.3915 16.0481 22.6051 16.01 22.84L15.4 26.52C14.4664 26.7842 13.567 27.1568 12.72 27.63L9.68 25.46C9.48799 25.3211 9.2529 25.2549 9.01664 25.2733C8.78038 25.2916 8.55831 25.3932 8.39 25.56L5.56 28.39C5.39319 28.5583 5.29157 28.7804 5.27325 29.0167C5.25494 29.2529 5.32112 29.488 5.46 29.68L7.63 32.72C7.15676 33.567 6.78423 34.4664 6.52 35.4L2.84 36.01C2.60508 36.0481 2.39145 36.1687 2.23748 36.3501C2.08352 36.5316 1.99931 36.762 2 37V41C1.99931 41.238 2.08352 41.4684 2.23748 41.6499C2.39145 41.8313 2.60508 41.9519 2.84 41.99L6.52 42.6C6.78423 43.5336 7.15676 44.433 7.63 45.28L5.46 48.32C5.32112 48.512 5.25494 48.7471 5.27325 48.9834C5.29157 49.2196 5.39319 49.4417 5.56 49.61L8.39 52.44C8.55831 52.6068 8.78038 52.7084 9.01664 52.7267C9.2529 52.7451 9.48799 52.6789 9.68 52.54L12.72 50.37C13.567 50.8432 14.4664 51.2158 15.4 51.48L16.01 55.16C16.0481 55.3949 16.1687 55.6085 16.3501 55.7625C16.5316 55.9165 16.762 56.0007 17 56H21C21.238 56.0007 21.4684 55.9165 21.6499 55.7625C21.8313 55.6085 21.9519 55.3949 21.99 55.16L22.6 51.48C23.5336 51.2158 24.433 50.8432 25.28 50.37L28.32 52.54C28.4282 52.6188 28.5519 52.6737 28.6829 52.7013C28.8139 52.7289 28.9492 52.7284 29.08 52.7C29.12 52.8 29.17 52.91 29.22 53.01L27.59 55.18C27.4444 55.3725 27.3733 55.6111 27.3899 55.8518C27.4064 56.0926 27.5095 56.3193 27.68 56.49L30.51 59.32C30.6807 59.4905 30.9074 59.5936 31.1482 59.6101C31.3889 59.6267 31.6275 59.5556 31.82 59.41L33.99 57.78C34.5169 58.0518 35.0654 58.2792 35.63 58.46L36.01 61.14C36.0437 61.3786 36.1625 61.5969 36.3443 61.7549C36.5262 61.9129 36.7591 62 37 62H41C41.2409 62 41.4738 61.9129 41.6556 61.7549C41.8375 61.5969 41.9563 61.3786 41.99 61.14L42.37 58.46C42.9346 58.2792 43.4831 58.0518 44.01 57.78L46.18 59.41C46.3725 59.5556 46.6111 59.6267 46.8518 59.6101C47.0926 59.5936 47.3193 59.4905 47.49 59.32L50.32 56.49C50.4905 56.3193 50.5936 56.0926 50.6101 55.8518C50.6267 55.6111 50.5556 55.3725 50.41 55.18L48.78 53.01C49.0517 52.4831 49.2792 51.9346 49.46 51.37L52.14 50.99C52.3786 50.9563 52.5969 50.8375 52.7549 50.6557C52.9129 50.4738 53 50.2409 53 50V46C53 45.7591 52.9129 45.5262 52.7549 45.3444C52.5969 45.1625 52.3786 45.0437 52.14 45.01L49.46 44.63C49.2792 44.0654 49.0517 43.5169 48.78 42.99L50.41 40.82C50.5556 40.6275 50.6267 40.3889 50.6101 40.1482C50.5936 39.9074 50.4905 39.6807 50.32 39.51L49.6 38.79C53.234 37.4425 56.3693 35.0163 58.5856 31.8366C60.8019 28.657 61.9932 24.8758 62 21ZM28.79 50.42L25.91 48.37C25.7497 48.2544 25.5586 48.1888 25.3611 48.1817C25.1635 48.1746 24.9682 48.2262 24.8 48.33C23.7824 48.9665 22.6677 49.4326 21.5 49.71C21.3056 49.753 21.1285 49.8531 20.9913 49.9974C20.8541 50.1417 20.7631 50.3237 20.73 50.52L20.15 54H17.85L17.27 50.52C17.2369 50.3237 17.1459 50.1417 17.0087 49.9974C16.8715 49.8531 16.6944 49.753 16.5 49.71C15.3322 49.4326 14.2176 48.9665 13.2 48.33C13.0317 48.2262 12.8365 48.1746 12.6389 48.1817C12.4414 48.1888 12.2503 48.2544 12.09 48.37L9.21 50.42L7.58 48.79L9.63 45.91C9.74564 45.7497 9.81116 45.5586 9.81828 45.3611C9.8254 45.1635 9.7738 44.9683 9.67 44.8C9.03353 43.7824 8.5674 42.6678 8.29 41.5C8.24698 41.3056 8.14691 41.1285 8.0026 40.9913C7.8583 40.8541 7.67633 40.7631 7.48 40.73L4 40.15V37.85L7.48 37.27C7.67633 37.2369 7.8583 37.1459 8.0026 37.0087C8.14691 36.8715 8.24698 36.6944 8.29 36.5C8.5674 35.3323 9.03353 34.2176 9.67 33.2C9.7738 33.0318 9.8254 32.8365 9.81828 32.6389C9.81116 32.4414 9.74564 32.2504 9.63 32.09L7.58 29.21L9.21 27.58L12.09 29.63C12.2503 29.7456 12.4414 29.8112 12.6389 29.8183C12.8365 29.8254 13.0317 29.7738 13.2 29.67C14.2176 29.0335 15.3322 28.5674 16.5 28.29C16.6944 28.247 16.8715 28.1469 17.0087 28.0026C17.1459 27.8583 17.2369 27.6763 17.27 27.48L17.85 24H20.15L20.73 27.48C20.7631 27.6763 20.8541 27.8583 20.9913 28.0026C21.1285 28.1469 21.3056 28.247 21.5 28.29C22.6677 28.5674 23.7824 29.0335 24.8 29.67C24.9682 29.7738 25.1635 29.8254 25.3611 29.8183C25.5586 29.8112 25.7497 29.7456 25.91 29.63L26.05 29.54C26.6489 30.7334 27.373 31.8597 28.21 32.9C28.2324 33.0062 28.273 33.1077 28.33 33.2C28.9683 34.2202 29.4345 35.3385 29.71 36.51C29.7556 36.7022 29.8567 36.8766 30.0007 37.0118C30.1448 37.1469 30.3253 37.2367 30.52 37.27L34 37.85V40.15L30.52 40.73C30.3237 40.7631 30.1417 40.8541 29.9974 40.9913C29.8531 41.1285 29.753 41.3056 29.71 41.5C29.4326 42.6678 28.9665 43.7824 28.33 44.8C28.2262 44.9683 28.1746 45.1635 28.1817 45.3611C28.1888 45.5586 28.2544 45.7497 28.37 45.91L30.42 48.79L28.79 50.42ZM51 46.87V49.13L48.54 49.48C48.3443 49.5084 48.1613 49.5936 48.0137 49.7252C47.8661 49.8568 47.7605 50.0289 47.71 50.22C47.5027 51.0511 47.1724 51.8465 46.73 52.58C46.6291 52.7502 46.5809 52.9465 46.5916 53.1441C46.6022 53.3417 46.6713 53.5317 46.79 53.69L48.29 55.69L46.69 57.29L44.69 55.79C44.5299 55.6711 44.3382 55.6019 44.139 55.5913C43.9398 55.5806 43.7419 55.6288 43.57 55.73C42.8409 56.1741 42.0485 56.5045 41.22 56.71C41.0288 56.7605 40.8568 56.8662 40.7252 57.0137C40.5936 57.1613 40.5083 57.3443 40.48 57.54L40.13 60H37.87L37.52 57.54C37.4916 57.3443 37.4064 57.1613 37.2748 57.0137C37.1432 56.8662 36.9711 56.7605 36.78 56.71C35.9515 56.5045 35.159 56.1741 34.43 55.73C34.2587 55.6269 34.0604 55.5775 33.8608 55.5882C33.6612 55.5989 33.4693 55.6692 33.31 55.79L31.31 57.29L29.71 55.69L31.21 53.69C31.332 53.5309 31.4022 53.3382 31.4112 53.1379C31.4201 52.9376 31.3674 52.7393 31.26 52.57C31.0369 52.1851 30.843 51.784 30.68 51.37L32.44 49.61C32.6068 49.4417 32.7084 49.2196 32.7267 48.9834C32.7451 48.7471 32.6789 48.512 32.54 48.32L30.37 45.28C30.8432 44.433 31.2158 43.5336 31.48 42.6L35.16 41.99C35.3949 41.9519 35.6085 41.8313 35.7625 41.6499C35.9165 41.4684 36.0007 41.238 36 41V39.53C36.2552 39.4353 36.5157 39.3552 36.78 39.29C36.9234 39.2485 37.0564 39.1769 37.17 39.08C39.0538 39.6873 41.0207 39.9977 43 40H43.08C43.2486 40.0801 43.4122 40.1703 43.57 40.27C43.7285 40.3604 43.9075 40.4086 44.09 40.41C44.306 40.408 44.5159 40.338 44.69 40.21L45.15 39.87C45.9177 39.7805 46.6792 39.6436 47.43 39.46L48.29 40.31L46.79 42.31C46.6713 42.4683 46.6022 42.6583 46.5916 42.8559C46.5809 43.0535 46.6291 43.2498 46.73 43.42C47.1724 44.1535 47.5027 44.9489 47.71 45.78C47.7605 45.9712 47.8661 46.1432 48.0137 46.2748C48.1613 46.4064 48.3443 46.4917 48.54 46.52L51 46.87ZM43 38C39.6377 38 36.3509 37.003 33.5553 35.135C30.7597 33.267 28.5807 30.612 27.294 27.5056C26.0074 24.3993 25.6707 20.9811 26.3266 17.6835C26.9826 14.3858 28.6017 11.3567 30.9792 8.9792C33.3567 6.60171 36.3858 4.98262 39.6835 4.32668C42.9811 3.67073 46.3993 4.00738 49.5056 5.29407C52.612 6.58076 55.267 8.7597 57.135 11.5553C59.003 14.3509 60 17.6377 60 21C59.9936 25.5067 58.2005 29.8271 55.0138 33.0138C51.8271 36.2006 47.5067 37.9937 43 38Z" fill="black"/>
<path d="M43 6C40.0333 6 37.1332 6.87973 34.6664 8.52796C32.1997 10.1762 30.2771 12.5189 29.1418 15.2597C28.0065 18.0006 27.7094 21.0166 28.2882 23.9264C28.867 26.8361 30.2956 29.5088 32.3934 31.6066C34.4912 33.7044 37.1639 35.133 40.0736 35.7118C42.9834 36.2906 45.9993 35.9935 48.7402 34.8582C51.4811 33.7229 53.8238 31.8003 55.472 29.3336C57.1203 26.8668 58 23.9667 58 21C57.9952 17.0232 56.4133 13.2107 53.6013 10.3987C50.7893 7.58665 46.9768 6.00476 43 6ZM52.86 29.45L51.49 28.07L50.07 29.49L51.45 30.86C49.3587 32.6564 46.7488 33.7389 44 33.95V32H42V33.95C39.2511 33.7389 36.6413 32.6564 34.55 30.86L35.93 29.49L34.51 28.07L33.14 29.45C31.3436 27.3587 30.2611 24.7488 30.05 22H32V20H30.05C30.2611 17.2512 31.3436 14.6413 33.14 12.55L34.51 13.93L35.93 12.51L34.55 11.14C36.6413 9.34358 39.2511 8.26111 42 8.05V10H44V8.05C46.7488 8.26111 49.3587 9.34358 51.45 11.14L50.07 12.51L51.49 13.93L52.86 12.55C54.6564 14.6413 55.7389 17.2512 55.95 20H54V22H55.95C55.7389 24.7488 54.6564 27.3587 52.86 29.45Z" fill="black"/>
</svg>
