<?xml version="1.0" encoding="UTF-8" standalone="no"?> <svg id="Layer_1" data-name="Layer 1" xmlns="http://www.w3.org/2000/svg" viewBox="0 0 128 128"><path d="M68.6052,70.989l-8.039,8.03173L57.787,76.23435a3.2255,3.2255,0,1,0-4.56154,4.56154L58.289,85.85942a3.23181,3.23181,0,0,0,4.55422,0L73.15947,75.54324A3.22034,3.22034,0,0,0,68.6052,70.989Z"/><path d="M93.4644,53.87052H34.5356a1.45506,1.45506,0,0,0-1.45507,1.455V67.00219L37.80942,71.731V90.32635c-1.84788,1.84793-2.881,2.881-4.72889,4.72884v11.1965a1.455,1.455,0,0,0,1.45507,1.455H45.9721l4.72889-4.72884H77.299l4.72884,4.72884H93.4644a1.455,1.455,0,0,0,1.455-1.455V95.05519l-4.72884-4.72884V71.731l4.72884-4.72883V55.32554A1.455,1.455,0,0,0,93.4644,53.87052ZM64,96.1756A17.755,17.755,0,1,1,81.75863,78.4242,17.75364,17.75364,0,0,1,64,96.1756Z"/><path d="M49.81344,35.04728a14.18656,14.18656,0,0,1,28.37312,0V47.64772h8.0027V35.04728a22.18926,22.18926,0,0,0-44.37852,0V47.64772h8.0027Z"/><path d="M17.29346,96.67033l-5.12169,5.1217a6.79748,6.79748,0,0,0-2.34988-.42194,6.91046,6.91046,0,1,0,6.46757,4.53241l4.26328-4.26323h6.70772V95.81914H19.35231A2.90017,2.90017,0,0,0,17.29346,96.67033Z"/><path d="M11.92436,73.90633a6.88232,6.88232,0,1,0,6.22757,9.79237H31.98929V77.87858H18.15193A6.8597,6.8597,0,0,0,11.92436,73.90633Z"/><path d="M9.82189,60.20719a6.79771,6.79771,0,0,0,2.34988-.42194L17.29346,64.907a2.9003,2.9003,0,0,0,2.05885.85115h7.90815V59.938H20.55274l-4.26328-4.26323a6.88165,6.88165,0,1,0-6.46757,4.53241Z"/><path d="M110.70654,64.90694l5.12174-5.12169a6.79729,6.79729,0,0,0,2.34988.42194,6.91046,6.91046,0,1,0-6.46762-4.53241L107.44731,59.938h-6.70772v5.82013H108.655A2.89588,2.89588,0,0,0,110.70654,64.90694Z"/><path d="M116.07564,87.671a6.88232,6.88232,0,1,0-6.22752-9.79237H96.01071V83.6987h13.83741A6.87185,6.87185,0,0,0,116.07564,87.671Z"/><path d="M118.17811,101.37009a6.797,6.797,0,0,0-2.34983.42194l-5.1217-5.1217a2.89607,2.89607,0,0,0-2.05162-.85119h-7.91537v5.82013h6.70767l4.26328,4.26323a6.88165,6.88165,0,1,0,6.46757-4.53241Z"/></svg>