<?xml version="1.0" encoding="UTF-8"?>
<!DOCTYPE svg PUBLIC "-//W3C//DTD SVG 1.1//EN" "http://www.w3.org/Graphics/SVG/1.1/DTD/svg11.dtd">
<!-- Creator: CorelDRAW -->
<svg xmlns="http://www.w3.org/2000/svg" xml:space="preserve" width="1.70666in" height="1.70666in" version="1.1" style="shape-rendering:geometricPrecision; text-rendering:geometricPrecision; image-rendering:optimizeQuality; fill-rule:evenodd; clip-rule:evenodd"
viewBox="0 0 1707 1707"
 xmlns:xlink="http://www.w3.org/1999/xlink">
 <defs>
  <style type="text/css">
   <![CDATA[
    .fil0 {fill:black}
   ]]>
  </style>
 </defs>
 <g id="Layer_x0020_1">
  <metadata id="CorelCorpID_0Corel-Layer"/>
  <g id="_415126664">
   <g>
    <g>
     <path class="fil0" d="M1318 1707l-1012 0c-14,0 -25,-11 -25,-25l0 -1438c0,-13 11,-25 25,-25l877 0c14,0 25,12 25,25 0,14 -11,25 -25,25l-852 0 0 1390 987 0c14,0 25,12 25,25 0,14 -11,23 -25,23zm135 -1168c-14,0 -25,-11 -25,-25 0,-14 11,-25 23,-25l0 0c14,0 25,11 25,25 0,14 -10,25 -23,25z"/>
    </g>
    <g>
     <path class="fil0" d="M1453 539l-270 0c-14,0 -25,-11 -25,-25l0 -270c0,-9 6,-18 15,-22 10,-4 20,-1 27,6l269 269c7,7 10,18 6,27 -4,8 -13,15 -22,15zm-246 -49l187 0 -187 -187 0 187z"/>
    </g>
    <g>
     <path class="fil0" d="M306 1448l-221 0c-14,0 -25,-11 -25,-25l0 -1399c0,-14 11,-24 25,-24l1004 0c14,0 25,11 25,24l0 220c0,14 -11,25 -25,25 -14,0 -25,-11 -25,-25l0 -197 -954 0 0 1353 197 0c14,0 25,11 25,25 0,14 -13,23 -26,23z"/>
    </g>
    <g>
     <path class="fil0" d="M475 1544c-7,0 -13,-3 -17,-7 -3,-3 -4,-5 -5,-8 -2,-3 -2,-6 -2,-10 0,-1 0,-3 0,-4 0,-1 2,-3 2,-4 0,-2 1,-3 2,-4 2,-2 2,-3 3,-4 10,-10 25,-10 35,0 1,1 1,2 3,4 1,1 1,2 3,4 0,1 1,3 1,4 0,1 0,3 0,4 0,3 0,7 -1,10 -2,3 -3,5 -6,8 -6,6 -11,7 -18,7z"/>
    </g>
    <g>
     <path class="fil0" d="M475 1362c-7,0 -13,-3 -17,-7 -4,-4 -7,-11 -7,-16 0,-7 3,-13 7,-17 2,-1 3,-3 4,-3 2,-1 3,-1 5,-3 1,0 2,-1 4,-1 3,0 7,0 9,0 2,0 3,1 5,1 1,0 2,2 4,3 1,2 3,2 4,3 4,4 7,11 7,17 0,2 0,7 -1,9 -2,3 -3,6 -6,9 -6,4 -11,5 -18,5z"/>
    </g>
    <g>
     <path class="fil0" d="M475 1180c-1,0 -3,0 -4,0 -2,0 -3,0 -4,-1 -2,0 -3,-1 -5,-3 -1,-1 -2,-1 -4,-3 -1,-1 -1,-2 -3,-4 -1,-1 -1,-3 -2,-4 0,-1 -2,-3 -2,-4 0,-1 0,-3 0,-4 0,-2 0,-3 0,-4 0,-2 2,-3 2,-5 0,-1 1,-2 2,-4 2,-1 2,-3 3,-4 10,-8 25,-8 35,0 1,1 1,3 3,4 1,2 1,3 3,4 0,2 1,3 1,5 0,1 0,2 0,4 0,3 0,7 -1,9 -2,3 -3,6 -6,9 -3,3 -6,4 -8,5 -3,0 -7,0 -10,0z"/>
    </g>
    <g>
     <path class="fil0" d="M475 998c-7,0 -13,-2 -17,-7 -1,-1 -1,-2 -3,-4 -1,-1 -1,-2 -2,-4 -2,-3 -2,-5 -2,-10 0,-1 0,-2 0,-4 0,-1 2,-2 2,-4 0,-1 1,-3 2,-4 2,-1 2,-3 3,-4 10,-9 25,-9 35,0 1,1 1,3 3,4 1,1 1,3 3,4 0,2 1,3 1,4 0,2 0,3 0,4 0,7 -3,13 -7,17 -6,6 -11,8 -18,8z"/>
    </g>
    <g>
     <path class="fil0" d="M475 817c-1,0 -3,0 -4,0 -2,0 -3,-2 -4,-2 -2,0 -3,-1 -5,-3 -1,-1 -2,-1 -4,-2 -1,-2 -1,-3 -3,-5 -1,-1 -1,-2 -2,-4 0,-1 -2,-3 -2,-4 0,-1 0,-3 0,-4 0,-1 0,-3 0,-4 0,-2 2,-3 2,-4 0,-2 1,-3 2,-5 2,-1 2,-2 3,-4 2,-1 3,-3 4,-3 2,-1 3,-1 5,-2 1,0 2,-2 4,-2 3,-1 7,-1 9,0 2,0 3,0 5,2 1,0 2,1 4,2 1,2 3,2 4,3 1,2 1,3 3,4 1,2 1,3 3,5 0,1 1,2 1,4 0,1 0,3 0,4 0,1 0,3 0,4 0,1 -1,3 -1,4 0,2 -2,3 -3,4 -2,2 -2,3 -3,5 -1,1 -3,2 -4,2 -2,2 -3,2 -4,3 -2,2 -3,2 -5,2 -1,0 -4,0 -5,0z"/>
    </g>
    <g>
     <path class="fil0" d="M475 635c-7,0 -13,-3 -17,-7 -4,-4 -7,-11 -7,-17 0,-1 0,-3 0,-4 0,-2 2,-3 2,-4 0,-2 1,-3 2,-4 2,-2 2,-3 3,-5 10,-8 25,-8 35,0 1,2 1,3 3,5 1,1 1,2 3,4 0,1 1,2 1,4 0,1 0,3 0,4 0,1 0,3 0,4 0,2 -1,3 -1,4 0,2 -2,3 -3,5 -2,1 -2,2 -3,4 -6,4 -11,7 -18,7z"/>
    </g>
    <g>
     <path class="fil0" d="M1318 1707c-182,0 -331,-148 -331,-329 0,-182 149,-331 331,-331 182,0 329,149 329,331 0,181 -147,329 -329,329zm0 -611c-156,0 -282,126 -282,282 0,154 126,280 282,280 154,0 280,-126 280,-280 0,-156 -126,-282 -280,-282z"/>
    </g>
    <g>
     <path class="fil0" d="M1255 1465c-1,0 -1,0 -2,0 -7,-1 -13,-4 -17,-10l-64 -80c-8,-11 -7,-27 4,-35 11,-8 27,-7 35,4l49 63 168 -134c11,-8 26,-7 34,5 9,11 7,26 -4,34l-187 149c-5,3 -10,4 -16,4z"/>
    </g>
    <g>
     <path class="fil0" d="M1453 1130c-14,0 -25,-11 -25,-25l0 -591c0,-14 11,-25 25,-25 13,0 25,11 25,25l0 591c0,14 -12,25 -25,25z"/>
    </g>
    <g>
     <path class="fil0" d="M589 575l-163 0c-14,0 -25,-11 -25,-25l0 -167c0,-14 11,-25 25,-25l163 0c14,0 25,11 25,25l0 167c0,14 -11,25 -25,25zm-138 -49l114 0 0 -118 -114 0 0 118z"/>
    </g>
    <g>
     <path class="fil0" d="M589 900l-163 0c-14,0 -25,-11 -25,-25l0 -167c0,-14 11,-25 25,-25l163 0c14,0 25,11 25,25l0 167c0,14 -11,25 -25,25zm-138 -49l114 0 0 -118 -114 0 0 118z"/>
    </g>
    <g>
     <path class="fil0" d="M589 1225l-163 0c-14,0 -25,-11 -25,-25l0 -167c0,-14 11,-25 25,-25l163 0c14,0 25,11 25,25l0 167c0,14 -11,25 -25,25zm-138 -49l114 0 0 -118 -114 0 0 118z"/>
    </g>
    <g>
     <path class="fil0" d="M589 1550l-163 0c-14,0 -25,-11 -25,-25l0 -167c0,-14 11,-25 25,-25l163 0c14,0 25,11 25,25l0 167c0,14 -11,25 -25,25zm-138 -49l114 0 0 -118 -114 0 0 118z"/>
    </g>
    <g>
     <g>
      <path class="fil0" d="M914 471l-229 0c-14,0 -25,-11 -25,-25 0,-14 11,-25 25,-25l229 0c14,0 25,11 25,25 0,14 -11,25 -25,25z"/>
     </g>
     <g>
      <path class="fil0" d="M1076 575l-391 0c-14,0 -25,-11 -25,-25 0,-14 11,-25 25,-25l391 0c14,0 25,11 25,25 0,14 -11,25 -25,25z"/>
     </g>
    </g>
    <g>
     <g>
      <path class="fil0" d="M914 796l-229 0c-14,0 -25,-11 -25,-25 0,-14 11,-25 25,-25l229 0c14,0 25,11 25,25 0,14 -11,25 -25,25z"/>
     </g>
     <g>
      <path class="fil0" d="M1076 900l-391 0c-14,0 -25,-11 -25,-25 0,-14 11,-25 25,-25l391 0c14,0 25,11 25,25 0,14 -11,25 -25,25z"/>
     </g>
    </g>
    <g>
     <g>
      <path class="fil0" d="M830 1119l-145 0c-14,0 -25,-11 -25,-25 0,-14 11,-25 25,-25l145 0c14,0 25,11 25,25 0,14 -11,25 -25,25z"/>
     </g>
     <g>
      <path class="fil0" d="M935 1225l-250 0c-14,0 -25,-11 -25,-25 0,-14 11,-25 25,-25l250 0c13,0 25,11 25,25 0,14 -12,25 -25,25z"/>
     </g>
    </g>
    <g>
     <g>
      <path class="fil0" d="M855 1444l-170 0c-14,0 -25,-11 -25,-25 0,-14 11,-25 25,-25l170 0c14,0 25,11 25,25 0,14 -11,25 -25,25z"/>
     </g>
     <g>
      <path class="fil0" d="M976 1550l-291 0c-14,0 -25,-11 -25,-25 0,-14 11,-25 25,-25l291 0c14,0 25,11 25,25 0,14 -11,25 -25,25z"/>
     </g>
    </g>
   </g>
  </g>
 </g>
</svg>
