<?xml version="1.0" encoding="UTF-8"?>
<!DOCTYPE svg PUBLIC "-//W3C//DTD SVG 1.1//EN" "http://www.w3.org/Graphics/SVG/1.1/DTD/svg11.dtd">
<!-- Creator: CorelDRAW -->
<svg xmlns="http://www.w3.org/2000/svg" xml:space="preserve" width="512px" height="512px" version="1.1" style="shape-rendering:geometricPrecision; text-rendering:geometricPrecision; image-rendering:optimizeQuality; fill-rule:evenodd; clip-rule:evenodd"
viewBox="0 0 512 512"
 xmlns:xlink="http://www.w3.org/1999/xlink">
 <defs>
  <style type="text/css">
   <![CDATA[
    .fil0 {fill:black}
   ]]>
  </style>
 </defs>
 <g id="Layer_x0020_1">
  <metadata id="CorelCorpID_0Corel-Layer"/>
  <g id="_440899688">
   <g>
    <g>
     <g>
      <path class="fil0" d="M176 313l-37 0c-4,0 -7,-3 -7,-7l0 -10c-6,-2 -11,-4 -16,-7l-7 7c-3,3 -7,3 -10,0l-26 -25c-1,-1 -2,-3 -2,-5 0,-2 1,-4 2,-5l7 -7c-2,-6 -5,-11 -6,-17l-10 0c-4,0 -7,-3 -7,-7l0 -36c0,-4 3,-7 7,-7l10 0c1,-6 4,-11 6,-17l-7 -7c-1,-1 -2,-3 -2,-5 0,-2 1,-4 2,-5l26 -25c3,-3 7,-3 10,0l7 7c5,-2 10,-4 16,-6l0 -11c0,-4 3,-7 7,-7l37 0c4,0 7,3 7,7l0 11c6,2 12,4 16,6l7 -7c3,-3 7,-3 10,0l26 25c1,1 2,3 2,5 0,2 -1,4 -2,5l-7 7c2,6 5,11 7,17l10 0c4,0 7,3 7,7l0 36c0,4 -3,7 -7,7l-11 0c-1,6 -4,11 -6,17l7 7c1,1 2,3 2,5 0,2 -1,4 -2,5l-26 25c-3,3 -7,3 -10,0l-7 -7c-5,3 -11,5 -16,7l0 10c0,4 -3,7 -7,7zm-30 -14l23 0 0 -8c0,-3 2,-6 5,-7 8,-2 16,-5 22,-10 3,-2 6,-1 9,1l6 6 16 -15 -6 -6c-2,-2 -3,-6 -1,-8 3,-8 7,-15 9,-24 1,-3 4,-5 7,-5l9 0 0 -22 -9 0c-4,0 -6,-2 -7,-6 -2,-8 -6,-15 -9,-23 -2,-3 -1,-6 1,-8l6 -6 -16 -15 -6 6c-3,2 -6,2 -9,0 -5,-3 -12,-6 -22,-9 -3,0 -5,-3 -5,-6l0 -9 -23 0 0 9c0,3 -2,6 -5,6 -10,3 -17,6 -22,9 -3,2 -6,2 -9,0l-6 -6 -16 15 6 6c2,2 3,6 1,8 -4,8 -7,15 -9,24 -1,3 -4,5 -7,5l-8 0 0 22 8 0c3,0 6,2 7,6 2,8 5,15 9,23 2,3 1,6 -1,8l-6 6 16 15 6 -6c2,-2 6,-2 9,0 6,4 14,8 22,10 3,0 5,3 5,6l0 8 0 0z"/>
     </g>
     <g>
      <path class="fil0" d="M158 272c-16,0 -32,-6 -43,-18 -11,-11 -17,-26 -17,-42 0,-16 6,-31 17,-42 12,-12 27,-18 43,-18 33,0 59,27 59,60 0,33 -26,60 -59,60zm0 -106c-26,0 -46,20 -46,46 0,26 20,46 46,46 25,0 45,-21 45,-46 0,-25 -20,-46 -45,-46z"/>
     </g>
    </g>
    <g>
     <path class="fil0" d="M505 405l-498 0c-4,0 -7,-3 -7,-7l0 -361c0,-4 3,-7 7,-7l498 0c4,0 7,3 7,7l0 361c0,4 -3,7 -7,7zm-491 -14l484 0 0 -347 -484 0 0 347z"/>
    </g>
    <g>
     <path class="fil0" d="M289 442l-66 0c-4,0 -7,-3 -7,-7l0 -37c0,-4 3,-7 7,-7l66 0c4,0 7,3 7,7l0 37c0,4 -3,7 -7,7zm-59 -14l52 0 0 -23 -52 0 0 23z"/>
    </g>
    <g>
     <path class="fil0" d="M358 482l-204 0c-4,0 -7,-3 -7,-7l0 -40c0,-4 3,-7 7,-7l204 0c4,0 7,3 7,7l0 40c0,4 -3,7 -7,7zm-197 -14l190 0 0 -26 -190 0 0 26z"/>
    </g>
    <g>
     <path class="fil0" d="M473 383l-435 0c-4,0 -7,-3 -7,-7l0 -316c0,-4 3,-7 7,-7l435 0c4,0 7,3 7,7l0 316c0,4 -3,7 -7,7zm-428 -14l421 0 0 -302 -421 0 0 302z"/>
    </g>
    <g>
     <g>
      <path class="fil0" d="M356 343c-1,0 -1,0 -2,0 -4,-1 -6,-5 -5,-9l25 -94c1,-3 5,-6 9,-5 3,1 6,5 5,9l-25 94c-1,3 -4,5 -7,5z"/>
     </g>
     <g>
      <g>
       <g>
        <path class="fil0" d="M434 296c-2,0 -4,-1 -5,-2l-29 -29c-3,-3 -3,-7 0,-10 3,-3 7,-3 10,0l29 29c3,3 3,7 0,10 -1,1 -3,2 -5,2z"/>
       </g>
       <g>
        <path class="fil0" d="M405 325c-2,0 -4,-1 -5,-2 -3,-3 -3,-7 0,-10l29 -29c3,-3 7,-3 10,0 3,3 3,7 0,10l-29 29c-1,1 -3,2 -5,2z"/>
       </g>
      </g>
      <g>
       <g>
        <path class="fil0" d="M303 296c-2,0 -4,-1 -5,-2 -3,-3 -3,-7 0,-10l29 -29c3,-3 7,-3 10,0 3,3 3,7 0,10l-29 29c-1,1 -3,2 -5,2z"/>
       </g>
       <g>
        <path class="fil0" d="M332 325c-2,0 -4,-1 -5,-2l-29 -29c-3,-3 -3,-7 0,-10 3,-3 7,-3 10,0l29 29c3,3 3,7 0,10 -1,1 -3,2 -5,2z"/>
       </g>
      </g>
     </g>
    </g>
    <g>
     <g>
      <g>
       <path class="fil0" d="M286 218c-1,0 -1,0 -2,0 -4,-1 -6,-5 -5,-9l21 -80c1,-3 5,-6 9,-5 3,1 6,5 5,9l-21 80c-1,3 -4,5 -7,5z"/>
      </g>
      <g>
       <path class="fil0" d="M329 218c-3,0 -6,-2 -7,-5l-22 -80c-1,-4 1,-8 5,-9 4,-1 8,2 9,5l22 80c1,4 -1,8 -5,9 -1,0 -1,0 -2,0z"/>
      </g>
      <g>
       <path class="fil0" d="M320 187l-26 0c-4,0 -7,-3 -7,-7 0,-4 3,-7 7,-7l26 0c4,0 7,3 7,7 0,4 -3,7 -7,7z"/>
      </g>
     </g>
     <g>
      <g>
       <path class="fil0" d="M381 171l-30 0c-4,0 -7,-3 -7,-7l0 -33c0,-4 3,-7 7,-7l30 0c13,0 23,10 23,23 0,13 -10,24 -23,24zm-23 -14l23 0c5,0 9,-5 9,-10 0,-5 -4,-9 -9,-9l-23 0 0 19z"/>
      </g>
      <g>
       <path class="fil0" d="M351 218c-4,0 -7,-3 -7,-7l0 -47c0,-4 3,-7 7,-7 4,0 7,3 7,7l0 47c0,4 -3,7 -7,7z"/>
      </g>
     </g>
     <g>
      <g>
       <path class="fil0" d="M435 218c-4,0 -7,-3 -7,-7l0 -80c0,-4 3,-7 7,-7 4,0 7,3 7,7l0 80c0,4 -3,7 -7,7z"/>
      </g>
      <g>
       <path class="fil0" d="M452 138l-34 0c-4,0 -7,-3 -7,-7 0,-4 3,-7 7,-7l34 0c4,0 7,3 7,7 0,4 -3,7 -7,7z"/>
      </g>
      <g>
       <path class="fil0" d="M452 218l-34 0c-4,0 -7,-3 -7,-7 0,-4 3,-7 7,-7l34 0c4,0 7,3 7,7 0,4 -3,7 -7,7z"/>
      </g>
     </g>
    </g>
   </g>
  </g>
 </g>
</svg>
